<?xml version="1.0" encoding="UTF-8" standalone="no"?>
<!-- Generator: Adobe Illustrator 20.1.0, SVG Export Plug-In . SVG Version: 6.00 Build 0)  -->

<svg
   version="1.1"
   id="Capa_1"
   x="0px"
   y="0px"
   viewBox="0 0 570 340"
   xml:space="preserve"
   sodipodi:docname="football_background_dark.svg"
   width="570"
   height="340"
   inkscape:version="1.2.2 (b0a8486541, 2022-12-01)"
   xmlns:inkscape="http://www.inkscape.org/namespaces/inkscape"
   xmlns:sodipodi="http://sodipodi.sourceforge.net/DTD/sodipodi-0.dtd"
   xmlns:xlink="http://www.w3.org/1999/xlink"
   xmlns="http://www.w3.org/2000/svg"
   xmlns:svg="http://www.w3.org/2000/svg"><defs
   id="defs604" /><sodipodi:namedview
   id="namedview602"
   pagecolor="#ffffff"
   bordercolor="#666666"
   borderopacity="1.0"
   inkscape:showpageshadow="2"
   inkscape:pageopacity="0.0"
   inkscape:pagecheckerboard="true"
   inkscape:deskcolor="#d1d1d1"
   showgrid="false"
   inkscape:zoom="1.2671558"
   inkscape:cx="262.00409"
   inkscape:cy="214.65395"
   inkscape:window-width="1920"
   inkscape:window-height="1131"
   inkscape:window-x="0"
   inkscape:window-y="0"
   inkscape:window-maximized="1"
   inkscape:current-layer="g54" />
<g
   id="g84"
   transform="matrix(0.99279964,0,0,0.96728307,25.945827,0)">
	<defs
   id="defs3">
		<rect
   id="SVGID_1_"
   x="-26.134001"
   width="574.13397"
   height="351.5"
   y="0" />
	</defs>
	<clipPath
   id="SVGID_2_">
		<use
   xlink:href="#SVGID_1_"
   style="overflow:visible"
   id="use5" />
	</clipPath>
	<g
   clip-path="url(#SVGID_2_)"
   id="g22"
   style="stroke:#1a1a1a;stroke-opacity:1">
		<polygon
   style="fill:none;stroke:#1a1a1a;stroke-width:8.623;stroke-miterlimit:10;stroke-opacity:1"
   points="21.758,29.266 -26.134,58.532 -74.026,29.266 -74.026,-29.266 -26.134,-58.532 21.758,-29.266 "
   id="polygon8" />
		<polygon
   style="fill:#1a1a1a;fill-opacity:1;stroke:#1a1a1a;stroke-opacity:1"
   points="117.447,29.266 69.555,58.532 21.663,29.266 21.663,-29.266 69.555,-58.532 117.447,-29.266 "
   id="polygon10" />
		<polygon
   style="fill:none;stroke:#1a1a1a;stroke-width:8.623;stroke-miterlimit:10;stroke-opacity:1"
   points="213.136,29.266 165.244,58.532 117.352,29.266 117.352,-29.266 165.244,-58.532 213.136,-29.266 "
   id="polygon12" />
		<polygon
   style="fill:none;stroke:#1a1a1a;stroke-width:8.623;stroke-miterlimit:10;fill-opacity:1;stroke-opacity:1"
   points="308.825,29.266 260.933,58.532 213.041,29.266 213.041,-29.266 260.933,-58.532 308.825,-29.266 "
   id="polygon14" />
		<polygon
   style="fill:#1a1a1a;fill-opacity:1;stroke:#1a1a1a;stroke-opacity:1"
   points="404.514,29.266 356.622,58.532 308.73,29.266 308.73,-29.266 356.622,-58.532 404.514,-29.266 "
   id="polygon16" />
		<polygon
   style="fill:none;stroke:#1a1a1a;stroke-width:8.623;stroke-miterlimit:10;stroke-opacity:1"
   points="500.203,29.266 452.311,58.532 404.419,29.266 404.419,-29.266 452.311,-58.532 500.203,-29.266 "
   id="polygon18" />
		<polygon
   style="fill:none;stroke:#1a1a1a;stroke-width:8.623;stroke-miterlimit:10;stroke-opacity:1"
   points="595.892,29.266 548,58.532 500.108,29.266 500.108,-29.266 548,-58.532 595.892,-29.266 "
   id="polygon20" />
	</g>
	<g
   clip-path="url(#SVGID_2_)"
   id="g38"
   style="stroke:#1a1a1a;stroke-opacity:1">
		<polygon
   style="fill:none;stroke:#1a1a1a;stroke-width:8.623;stroke-miterlimit:10;stroke-opacity:1"
   points="21.758,205.016 -26.134,234.283 -74.026,205.016 -74.026,146.484 -26.134,117.218 21.758,146.484 "
   id="polygon24" />
		<polygon
   style="fill:#1a1a1a;fill-opacity:1;stroke:#1a1a1a;stroke-opacity:1"
   points="117.447,205.016 69.555,234.283 21.663,205.016 21.663,146.484 69.555,117.218 117.447,146.484 "
   id="polygon26" />
		<polygon
   style="fill:none;stroke:#1a1a1a;stroke-width:8.623;stroke-miterlimit:10;stroke-opacity:1"
   points="213.136,205.016 165.244,234.283 117.352,205.016 117.352,146.484 165.244,117.218 213.136,146.484 "
   id="polygon28" />
		<polygon
   style="fill:none;stroke:#1a1a1a;stroke-width:8.623;stroke-miterlimit:10;stroke-opacity:1"
   points="308.825,205.016 260.933,234.283 213.041,205.016 213.041,146.484 260.933,117.218 308.825,146.484 "
   id="polygon30" />
		<polygon
   style="fill:#1a1a1a;fill-opacity:1;stroke:#1a1a1a;stroke-opacity:1"
   points="404.514,205.016 356.622,234.283 308.73,205.016 308.73,146.484 356.622,117.218 404.514,146.484 "
   id="polygon32" />
		<polygon
   style="fill:none;stroke:#1a1a1a;stroke-width:8.623;stroke-miterlimit:10;stroke-opacity:1"
   points="500.203,205.016 452.311,234.283 404.419,205.016 404.419,146.484 452.311,117.218 500.203,146.484 "
   id="polygon34" />
		<polygon
   style="fill:none;stroke:#1a1a1a;stroke-width:8.623;stroke-miterlimit:10;stroke-opacity:1"
   points="595.892,205.016 548,234.283 500.108,205.016 500.108,146.484 548,117.218 595.892,146.484 "
   id="polygon36" />
	</g>
	<g
   clip-path="url(#SVGID_2_)"
   id="g54"
   style="stroke:#1a1a1a;stroke-opacity:1">
		<polygon
   style="fill:none;stroke:#1a1a1a;stroke-width:8.623;stroke-miterlimit:10;stroke-opacity:1"
   points="21.758,380.766 -26.134,410.032 -74.026,380.766 -74.026,322.234 -26.134,292.968 21.758,322.234 "
   id="polygon40" />
		<polygon
   style="fill:#1a1a1a;fill-opacity:1;stroke:#1a1a1a;stroke-opacity:1"
   points="117.447,380.766 69.555,410.032 21.663,380.766 21.663,322.234 69.555,292.968 117.447,322.234 "
   id="polygon42" />
		<polygon
   style="fill:none;stroke:#1a1a1a;stroke-width:8.623;stroke-miterlimit:10;stroke-opacity:1"
   points="213.136,380.766 165.244,410.032 117.352,380.766 117.352,322.234 165.244,292.968 213.136,322.234 "
   id="polygon44" />
		<polygon
   style="fill:none;stroke:#1a1a1a;stroke-width:8.623;stroke-miterlimit:10;stroke-opacity:1"
   points="308.825,380.766 260.933,410.032 213.041,380.766 213.041,322.234 260.933,292.968 308.825,322.234 "
   id="polygon46" />
		<polygon
   style="fill:#1a1a1a;fill-opacity:1;stroke:#1a1a1a;stroke-opacity:1"
   points="404.514,380.766 356.622,410.032 308.73,380.766 308.73,322.234 356.622,292.968 404.514,322.234 "
   id="polygon48" />
		<polygon
   style="fill:none;stroke:#1a1a1a;stroke-width:8.623;stroke-miterlimit:10;stroke-opacity:1"
   points="500.203,380.766 452.311,410.032 404.419,380.766 404.419,322.234 452.311,292.968 500.203,322.234 "
   id="polygon50" />
		<polygon
   style="fill:none;stroke:#1a1a1a;stroke-width:8.623;stroke-miterlimit:10;stroke-opacity:1"
   points="595.892,380.766 548,410.032 500.108,380.766 500.108,322.234 548,292.968 595.892,322.234 "
   id="polygon52" />
	</g>
	<g
   clip-path="url(#SVGID_2_)"
   id="g68"
   style="stroke:#1a1a1a;stroke-opacity:1">
		<polygon
   style="fill:none;stroke:#1a1a1a;stroke-width:8.623;stroke-miterlimit:10;stroke-opacity:1"
   points="69.602,117.141 21.71,146.408 -26.181,117.141 -26.181,58.609 21.71,29.343 69.602,58.609 "
   id="polygon56" />
		<polygon
   style="fill:none;stroke:#1a1a1a;stroke-width:8.623;stroke-miterlimit:10;stroke-opacity:1"
   points="165.291,117.141 117.399,146.408 69.508,117.141 69.508,58.609 117.399,29.343 165.291,58.609 "
   id="polygon58" />
		<polygon
   style="fill:#1a1a1a;fill-opacity:1;stroke:#1a1a1a;stroke-opacity:1"
   points="260.98,117.141 213.088,146.408 165.197,117.141 165.197,58.609 213.088,29.343 260.98,58.609 "
   id="polygon60" />
		<polygon
   style="fill:none;stroke:#1a1a1a;stroke-width:8.623;stroke-miterlimit:10;stroke-opacity:1"
   points="356.669,117.141 308.777,146.408 260.886,117.141 260.886,58.609 308.777,29.343 356.669,58.609 "
   id="polygon62" />
		<polygon
   style="fill:none;stroke:#1a1a1a;stroke-width:8.623;stroke-miterlimit:10;fill-opacity:0.2;stroke-opacity:1"
   points="452.358,117.141 404.467,146.408 356.575,117.141 356.575,58.609 404.467,29.343 452.358,58.609 "
   id="polygon64" />
		<polygon
   style="fill:#1a1a1a;fill-opacity:1;stroke:#1a1a1a;stroke-opacity:1"
   points="548.047,117.141 500.156,146.408 452.264,117.141 452.264,58.609 500.156,29.343 548.047,58.609 "
   id="polygon66" />
	</g>
	<g
   clip-path="url(#SVGID_2_)"
   id="g82"
   style="stroke:#1a1a1a;stroke-opacity:1">
		<polygon
   style="fill:none;stroke:#1a1a1a;stroke-width:8.623;stroke-miterlimit:10;stroke-opacity:1"
   points="69.602,292.891 21.71,322.157 -26.181,292.891 -26.181,234.359 21.71,205.093 69.602,234.359 "
   id="polygon70" />
		<polygon
   style="fill:none;stroke:#1a1a1a;stroke-width:8.623;stroke-miterlimit:10;stroke-opacity:1"
   points="165.291,292.891 117.399,322.157 69.508,292.891 69.508,234.359 117.399,205.093 165.291,234.359 "
   id="polygon72" />
		<polygon
   style="fill:#1a1a1a;fill-opacity:1;stroke:#1a1a1a;stroke-opacity:1"
   points="260.98,292.891 213.088,322.157 165.197,292.891 165.197,234.359 213.088,205.093 260.98,234.359 "
   id="polygon74" />
		<polygon
   style="fill:none;stroke:#1a1a1a;stroke-width:8.623;stroke-miterlimit:10;stroke-opacity:1"
   points="356.669,292.891 308.777,322.157 260.886,292.891 260.886,234.359 308.777,205.093 356.669,234.359 "
   id="polygon76" />
		<polygon
   style="fill:none;stroke:#1a1a1a;stroke-width:8.623;stroke-miterlimit:10;stroke-opacity:1"
   points="452.358,292.891 404.467,322.157 356.575,292.891 356.575,234.359 404.467,205.093 452.358,234.359 "
   id="polygon78" />
		<polygon
   style="fill:#1a1a1a;fill-opacity:1;stroke:#1a1a1a;stroke-opacity:1"
   points="548.047,292.891 500.156,322.157 452.264,292.891 452.264,234.359 500.156,205.093 548.047,234.359 "
   id="polygon80" />
	</g>
</g>




</svg>
