<?xml version="1.0" encoding="UTF-8"?><svg id="Laag_1" xmlns="http://www.w3.org/2000/svg" viewBox="0 0 266.94 321.98"><defs><style>.cls-1,.cls-2{fill:none;}.cls-3{fill:#f15a24;}.cls-3,.cls-4,.cls-5,.cls-2,.cls-6{stroke-miterlimit:10;stroke-width:5px;}.cls-3,.cls-4,.cls-5,.cls-6{stroke:#fff;}.cls-4{fill:#f7931e;}.cls-5{fill:#009cdc;}.cls-2{stroke:#000;}</style></defs><g><path class="cls-3" d="m101.69,146.63s-3.32-1.66-5.97-2.86c-.46-.21-.91-.41-.91-.41-.01,0-.02,0-.02,0-1.68-.75-3.34-1.45-5.22-2.21-12.75-5.16-18.1-5.3-26.32-12.3-14.65-12.47-18.94-30.14-19.98-34.61-1.47-6.38-1.73-11.87-1.68-15.7,1.38,3.19,7.81,17.15,21.97,21.02,1.43.39,14.72,4.02,19.74-2.87,3.65-5,1.11-13.08-2.23-17.83-3.64-5.17-7.81-5.82-19.42-10.83-14.27-6.15-22.29-9.61-28.34-16.24-3.51-3.85-7.77-10.32-9.55-21.33,3.42,3.52,8.57,8.17,15.6,12.42,7.47,4.51,15.16,7.43,25.47,9.87,17.69,4.19,29.11,3.67,37.89,4.46,27.96,2.5,64.51,21.39,71.96,50.31,1.52,5.88,3.59,19.04-5.09,37.57.34,2.05.64,4.23.88,6.53.24,2.33.39,4.55.47,6.65-1.91,1.33-3.83,2.65-5.74,3.98-1.53-1.03-3.52-2.18-5.96-3.18-2.38-.97-4.55-1.53-6.32-1.87-.35-1.96-.71-3.91-1.06-5.87h-10.53c-.35,1.96-.71,3.91-1.06,5.87-2.06.4-4.6,1.08-7.34,2.31-1.74.78-3.24,1.63-4.5,2.44-.29,0-.59-.02-.88-.02-.58-.39-1.16-.78-1.75-1.18-.8-.55-1.58-1.09-2.34-1.63-.47-.2-.94-.41-1.41-.61-.51-.47-1.02-.93-1.53-1.4-1.6-.94-3.2-1.87-4.81-2.81-3.48-1.94-6.95-3.88-10.43-5.82-1.2-.61-2.4-1.23-3.6-1.84Z"/><path class="cls-4" d="m105.29,148.47c1.08-3.78,1.97-9.25-.85-13.31-2.58-3.71-6.33-3.46-9.11-6.87-2.03-2.48-3.76-7.17-1.07-16.91,3.02,4.52,8.96,11.82,18.53,15.28,3.43,1.24,7.92,2.79,12.31.73.54-.25,5.16-2.51,6.07-7.22.19-1.01.47-3.45-1.36-6.91-3.84-7.26-11.26-8.23-17.2-12.3-4.68-3.21-9.94-9.37-12.54-22.35,4.93,4.46,9.59,7.67,13.29,9.92,9.31,5.64,17.8,8.35,19.52,8.78.31.08,1.89.46,3.99,1.2.51.18,1.03.38,1.59.6,6.25,2.52,10.34,6.09,13.21,8.64.27.24,3.9,3.49,6.76,7.1,2.79,3.52,7.47,10.67,11.18,30.24,1.46,7.73,2.95,18.3,3.18,31.06-1.24-2.42-3.98-6.95-9.25-10.67-4.58-3.23-9.03-4.4-11.53-4.87-2.39-.45-7.29-1.06-13.11.52-3.34.9-5.92,2.24-7.66,3.3-2.29-1.54-4.05-2.74-5.25-3.58-.67-.47-1.94-1.35-3.73-2.56-.76-.52-1.38-.93-1.75-1.18-.13-.07-.27-.14-.4-.21-1.84-1.13-3.35-2-4.4-2.6-1.41-.8-2.53-1.4-5.57-3.11-.5-.28-.92-.52-1.19-.67-1.22-.68-2.45-1.36-3.67-2.04Z"/></g><rect class="cls-1" width="266.94" height="321.98"/><g><path class="cls-5" d="m171.3,211.99c-2.52,2.8-7.69,7.59-15.76,9.91-5.61,1.61-10.43,1.4-13.27,1.06,7.7,5.44,15.4,10.88,23.11,16.33.79,2.82,1.58,5.63,2.37,8.45h8.45c.77-2.82,1.54-5.63,2.3-8.45h1.84c.79,2.82,1.58,5.63,2.37,8.45h8.45c.77-2.82,1.54-5.63,2.31-8.45h1.84c.79,2.82,1.58,5.63,2.37,8.45h8.45c.77-2.82,1.54-5.63,2.31-8.45h1.84c.79,2.82,1.58,5.63,2.37,8.45h8.45c.77-2.82,1.54-5.63,2.3-8.45h.28c1.66-.15,4.56-.69,6.88-2.85,1.14-1.64,3.55-5.6,3.54-11,0,0,0-4.23-2.07-8.45-3.62-7.43-16.94-12.92-33.96-13.11-6.09-3.94-12.18-7.87-18.27-11.81-.11,1.81-.43,4.33-1.29,7.22-.53,1.78-2.35,7.3-7.23,12.7Z"/><path class="cls-5" d="m105.29,148.47c-1.48,6.6-4.29,10.21-6.61,12.29-3.28,2.94-10.31,7.12-12.13,10.1-1.4,2.3-1.8,4.44-1.94,5.34-.63,4.02.59,7.29,1.28,8.81-.79,2.82-1.58,5.64-2.37,8.45,2.41,1.47,4.81,2.93,7.22,4.4,2.12-2.01,4.25-4.01,6.37-6.02.79.47,1.58.94,2.37,1.42-.79,2.82-1.58,5.64-2.37,8.45,2.41,1.47,4.81,2.93,7.22,4.4,2.05-2.11,4.1-4.21,6.15-6.32h0c1.91,1.17,3.82,2.34,5.72,3.51-.56-4.49-.84-11.75,1.69-20.07,1.42-4.66,3.35-8.42,5.1-11.24,2.97-2.65,5.94-5.3,8.91-7.95-8.87-5.19-17.73-10.38-26.6-15.57Z"/><path class="cls-5" d="m221.89,223.09c.02-.73-.08-1.38-.27-1.98-2.75-8.71-25.83-8.02-28.26-7.93-3.1-2.64-6.19-5.27-9.29-7.91"/></g><g><path d="m32.63,234.52c2.2,0,3.72,1.52,3.72,3.72v11.44c0,2.2-1.52,3.72-3.72,3.72h-9.84v-18.89h9.84Zm-.94,15.32c.58,0,.89-.31.89-.89v-9.97c0-.58-.31-.89-.89-.89h-5.11v11.75h5.11Z"/><path d="m52.41,234.52v3.57h-8.58v3.88h6.95v3.57h-6.95v4.3h8.58v3.57h-12.35v-18.89h12.35Z"/><path d="m59.51,234.52v15.32h7.92v3.57h-11.7v-18.89h3.78Z"/><path d="m70.29,234.52h12.35v3.57h-8.58v4.04h6.95v3.57h-6.95v7.71h-3.78v-18.89Z"/><path d="m92.79,238.03v15.37h-3.78v-15.37h-4.93v-3.51h13.64v3.51h-4.93Z"/><path d="m47.55,290.35h-4.92v-17.38l-5.65,13.22h-3.77l-5.65-13.22v17.38h-4.92v-26.07h5.72l6.73,15.28,6.73-15.28h5.72v26.07Z"/><path d="m70.33,264.28v4.92h-11.84v5.36h9.6v4.92h-9.6v5.94h11.84v4.92h-17.05v-26.07h17.05Z"/><path d="m88.54,290.35l-4.2-9.67h-4.2v9.67h-5.21v-26.07h13.29c3.04,0,5.14,2.1,5.14,5.14v6.12c0,2.46-1.38,4.31-3.55,4.92l4.34,9.88h-5.61Zm-.4-19.92c0-.8-.43-1.23-1.23-1.23h-6.77v6.63h6.77c.8,0,1.23-.43,1.23-1.23v-4.16Z"/><path d="m111.18,270.29c0-.8-.43-1.23-1.23-1.23h-5.65c-.8,0-1.23.43-1.23,1.23v14.05c0,.8.43,1.23,1.23,1.23h5.65c.8,0,1.23-.43,1.23-1.23v-3.19h5.21v4.2c0,3.04-2.1,5.14-5.14,5.14h-8.26c-3.04,0-5.14-2.1-5.14-5.14v-16.08c0-3.04,2.1-5.14,5.14-5.14h8.26c3.04,0,5.14,2.1,5.14,5.14v4.2h-5.21v-3.19Z"/><path d="m139.24,285.36c0,3.04-2.1,5.14-5.14,5.14h-8.33c-3.04,0-5.14-2.1-5.14-5.14v-21.07h5.21v20.06c0,.8.43,1.23,1.23,1.23h5.72c.8,0,1.23-.43,1.23-1.23v-20.06h5.21v21.07Z"/><path d="m158.18,290.35l-4.2-9.67h-4.2v9.67h-5.21v-26.07h13.29c3.04,0,5.14,2.1,5.14,5.14v6.12c0,2.46-1.38,4.31-3.55,4.92l4.35,9.88h-5.61Zm-.4-19.92c0-.8-.43-1.23-1.23-1.23h-6.77v6.63h6.77c.8,0,1.23-.43,1.23-1.23v-4.16Z"/><path d="m168.11,264.28h5.21v26.07h-5.21v-26.07Z"/><path d="m182.16,290.35h-5.4l8.4-26.07h6.08l8.4,26.07h-5.61l-1.7-5.87h-8.44l-1.74,5.87Zm3.19-10.79h5.58l-2.75-9.56-2.82,9.56Z"/><path d="m223.19,264.28v26.07h-5.61l-9.59-17.78v17.78h-4.89v-26.07h5.61l9.6,17.78v-17.78h4.89Z"/><path d="m241.08,270.29c0-.8-.43-1.23-1.23-1.23h-5.21c-.8,0-1.23.43-1.23,1.23v2.46c0,.8.43,1.05,1.23,1.23l6.73,1.45c2.82.62,5.21,2.32,5.21,5.21v4.71c0,3.04-2.1,5.14-5.14,5.14h-8.11c-3.04,0-5.14-2.1-5.14-5.14v-3.33h5.07v2.32c0,.8.43,1.23,1.23,1.23h5.65c.8,0,1.23-.43,1.23-1.23v-2.75c0-.8-.43-1.05-1.23-1.23l-6.73-1.45c-2.82-.62-5.21-2.32-5.21-5.21v-4.42c0-3.04,2.1-5.14,5.14-5.14h7.68c3.04,0,5.14,2.1,5.14,5.14v3.04h-5.07v-2.03Z"/></g><line class="cls-2" x1="22.64" y1="297.83" x2="248.46" y2="297.83"/><circle class="cls-5" cx="146.61" cy="190.06" r="21.23" transform="translate(-64.48 304.33) rotate(-80.78)"/><circle class="cls-6" cx="146.61" cy="189.5" r="33.39"/><path class="cls-6" d="m128.06,199.43c-.57-.95-5.14-8.88-1.62-17.81,2.72-6.91,9.23-11.77,16.84-12.63"/><path class="cls-6" d="m164.88,180.38c.57.95,5.14,8.88,1.62,17.81-2.72,6.91-9.23,11.77-16.84,12.63"/></svg>