<?xml version="1.0" encoding="UTF-8" standalone="no"?>
<svg
   viewBox="0 0 150 150"
   version="1.1"
   id="svg494"
   sodipodi:docname="SmallLogoBlack_SVG.svg"
   width="150"
   height="150"
   xmlns:inkscape="http://www.inkscape.org/namespaces/inkscape"
   xmlns:sodipodi="http://sodipodi.sourceforge.net/DTD/sodipodi-0.dtd"
   xmlns:xlink="http://www.w3.org/1999/xlink"
   xmlns="http://www.w3.org/2000/svg"
   xmlns:svg="http://www.w3.org/2000/svg"
   xmlns:rdf="http://www.w3.org/1999/02/22-rdf-syntax-ns#"
   xmlns:cc="http://creativecommons.org/ns#"
   xmlns:dc="http://purl.org/dc/elements/1.1/">
  <sodipodi:namedview
     id="namedview496"
     pagecolor="#ffffff"
     bordercolor="#666666"
     borderopacity="1.0"
     inkscape:showpageshadow="2"
     inkscape:pageopacity="0.0"
     inkscape:pagecheckerboard="0"
     inkscape:deskcolor="#d1d1d1"
     showgrid="false" />
  <defs
     id="defs14">
    <style
       id="style2">.cls-1,.cls-5{fill:#333;}.cls-2{fill:#009cdc;}.cls-3{fill:url(#linear-gradient);}.cls-4{fill:url(#linear-gradient-2);}.cls-5{stroke:#fff;stroke-miterlimit:10;stroke-width:3px;}.cls-6{fill:none;}.cls-7{fill:#fff;}.cls-8{fill:red;}</style>
    <linearGradient
       id="linear-gradient"
       x1="1.55"
       y1="-1.42"
       x2="84.300003"
       y2="64.889999"
       gradientUnits="userSpaceOnUse">
      <stop
         offset="0.28"
         stop-color="#ed1c24"
         id="stop4" />
      <stop
         offset="0.82"
         stop-color="#f7931e"
         id="stop6" />
    </linearGradient>
    <linearGradient
       id="linear-gradient-2"
       x1="42.16"
       y1="32.91"
       x2="81.699997"
       y2="64.599998"
       gradientUnits="userSpaceOnUse">
      <stop
         offset="0.29"
         stop-color="#fcee21"
         id="stop9" />
      <stop
         offset="0.85"
         stop-color="#f7931e"
         id="stop11" />
    </linearGradient>
    <linearGradient
       inkscape:collect="always"
       xlink:href="#linear-gradient"
       id="linearGradient727"
       gradientUnits="userSpaceOnUse"
       x1="1.55"
       y1="-1.42"
       x2="84.300003"
       y2="64.889999" />
    <linearGradient
       inkscape:collect="always"
       xlink:href="#linear-gradient-2"
       id="linearGradient729"
       gradientUnits="userSpaceOnUse"
       x1="42.16"
       y1="32.91"
       x2="81.699997"
       y2="64.599998" />
    <linearGradient
       inkscape:collect="always"
       xlink:href="#linear-gradient"
       id="linearGradient731"
       gradientUnits="userSpaceOnUse"
       x1="1.55"
       y1="-1.42"
       x2="84.300003"
       y2="64.889999" />
    <linearGradient
       inkscape:collect="always"
       xlink:href="#linear-gradient-2"
       id="linearGradient733"
       gradientUnits="userSpaceOnUse"
       x1="42.16"
       y1="32.91"
       x2="81.699997"
       y2="64.599998" />
    <linearGradient
       inkscape:collect="always"
       xlink:href="#linear-gradient"
       id="linearGradient735"
       gradientUnits="userSpaceOnUse"
       x1="1.55"
       y1="-1.42"
       x2="84.300003"
       y2="64.889999" />
    <linearGradient
       inkscape:collect="always"
       xlink:href="#linear-gradient-2"
       id="linearGradient737"
       gradientUnits="userSpaceOnUse"
       x1="42.16"
       y1="32.91"
       x2="81.699997"
       y2="64.599998" />
    <linearGradient
       inkscape:collect="always"
       xlink:href="#linear-gradient"
       id="linearGradient739"
       gradientUnits="userSpaceOnUse"
       x1="1.55"
       y1="-1.42"
       x2="84.300003"
       y2="64.889999" />
    <linearGradient
       inkscape:collect="always"
       xlink:href="#linear-gradient-2"
       id="linearGradient741"
       gradientUnits="userSpaceOnUse"
       x1="42.16"
       y1="32.91"
       x2="81.699997"
       y2="64.599998" />
    <linearGradient
       inkscape:collect="always"
       xlink:href="#linear-gradient"
       id="linearGradient743"
       gradientUnits="userSpaceOnUse"
       x1="1.55"
       y1="-1.42"
       x2="84.300003"
       y2="64.889999" />
    <linearGradient
       inkscape:collect="always"
       xlink:href="#linear-gradient-2"
       id="linearGradient745"
       gradientUnits="userSpaceOnUse"
       x1="42.16"
       y1="32.91"
       x2="81.699997"
       y2="64.599998" />
    <linearGradient
       inkscape:collect="always"
       xlink:href="#linear-gradient"
       id="linearGradient747"
       gradientUnits="userSpaceOnUse"
       x1="1.55"
       y1="-1.42"
       x2="84.300003"
       y2="64.889999" />
    <linearGradient
       inkscape:collect="always"
       xlink:href="#linear-gradient-2"
       id="linearGradient749"
       gradientUnits="userSpaceOnUse"
       x1="42.16"
       y1="32.91"
       x2="81.699997"
       y2="64.599998" />
    <linearGradient
       inkscape:collect="always"
       xlink:href="#linear-gradient"
       id="linearGradient751"
       gradientUnits="userSpaceOnUse"
       x1="1.55"
       y1="-1.42"
       x2="84.300003"
       y2="64.889999" />
    <linearGradient
       inkscape:collect="always"
       xlink:href="#linear-gradient-2"
       id="linearGradient753"
       gradientUnits="userSpaceOnUse"
       x1="42.16"
       y1="32.91"
       x2="81.699997"
       y2="64.599998" />
    <linearGradient
       inkscape:collect="always"
       xlink:href="#linear-gradient"
       id="linearGradient755"
       gradientUnits="userSpaceOnUse"
       x1="1.55"
       y1="-1.42"
       x2="84.300003"
       y2="64.889999" />
    <linearGradient
       inkscape:collect="always"
       xlink:href="#linear-gradient-2"
       id="linearGradient757"
       gradientUnits="userSpaceOnUse"
       x1="42.16"
       y1="32.91"
       x2="81.699997"
       y2="64.599998" />
    <linearGradient
       inkscape:collect="always"
       xlink:href="#linear-gradient"
       id="linearGradient759"
       gradientUnits="userSpaceOnUse"
       x1="1.55"
       y1="-1.42"
       x2="84.300003"
       y2="64.889999" />
    <linearGradient
       inkscape:collect="always"
       xlink:href="#linear-gradient-2"
       id="linearGradient761"
       gradientUnits="userSpaceOnUse"
       x1="42.16"
       y1="32.91"
       x2="81.699997"
       y2="64.599998" />
    <linearGradient
       inkscape:collect="always"
       xlink:href="#linear-gradient"
       id="linearGradient763"
       gradientUnits="userSpaceOnUse"
       x1="1.55"
       y1="-1.42"
       x2="84.300003"
       y2="64.889999" />
    <linearGradient
       inkscape:collect="always"
       xlink:href="#linear-gradient-2"
       id="linearGradient765"
       gradientUnits="userSpaceOnUse"
       x1="42.16"
       y1="32.91"
       x2="81.699997"
       y2="64.599998" />
    <linearGradient
       inkscape:collect="always"
       xlink:href="#linear-gradient"
       id="linearGradient767"
       gradientUnits="userSpaceOnUse"
       x1="1.55"
       y1="-1.42"
       x2="84.300003"
       y2="64.889999" />
    <linearGradient
       inkscape:collect="always"
       xlink:href="#linear-gradient-2"
       id="linearGradient769"
       gradientUnits="userSpaceOnUse"
       x1="42.16"
       y1="32.91"
       x2="81.699997"
       y2="64.599998" />
    <linearGradient
       inkscape:collect="always"
       xlink:href="#linear-gradient"
       id="linearGradient771"
       gradientUnits="userSpaceOnUse"
       x1="1.55"
       y1="-1.42"
       x2="84.300003"
       y2="64.889999" />
    <linearGradient
       inkscape:collect="always"
       xlink:href="#linear-gradient-2"
       id="linearGradient773"
       gradientUnits="userSpaceOnUse"
       x1="42.16"
       y1="32.91"
       x2="81.699997"
       y2="64.599998" />
    <linearGradient
       inkscape:collect="always"
       xlink:href="#linear-gradient"
       id="linearGradient775"
       gradientUnits="userSpaceOnUse"
       x1="1.55"
       y1="-1.42"
       x2="84.300003"
       y2="64.889999" />
    <linearGradient
       inkscape:collect="always"
       xlink:href="#linear-gradient-2"
       id="linearGradient777"
       gradientUnits="userSpaceOnUse"
       x1="42.16"
       y1="32.91"
       x2="81.699997"
       y2="64.599998" />
    <linearGradient
       inkscape:collect="always"
       xlink:href="#linear-gradient"
       id="linearGradient779"
       gradientUnits="userSpaceOnUse"
       x1="1.55"
       y1="-1.42"
       x2="84.300003"
       y2="64.889999" />
    <linearGradient
       inkscape:collect="always"
       xlink:href="#linear-gradient-2"
       id="linearGradient781"
       gradientUnits="userSpaceOnUse"
       x1="42.16"
       y1="32.91"
       x2="81.699997"
       y2="64.599998" />
    <linearGradient
       inkscape:collect="always"
       xlink:href="#linear-gradient"
       id="linearGradient783"
       gradientUnits="userSpaceOnUse"
       x1="1.55"
       y1="-1.42"
       x2="84.300003"
       y2="64.889999" />
    <linearGradient
       inkscape:collect="always"
       xlink:href="#linear-gradient-2"
       id="linearGradient785"
       gradientUnits="userSpaceOnUse"
       x1="42.16"
       y1="32.91"
       x2="81.699997"
       y2="64.599998" />
    <linearGradient
       inkscape:collect="always"
       xlink:href="#linear-gradient"
       id="linearGradient787"
       gradientUnits="userSpaceOnUse"
       x1="1.55"
       y1="-1.42"
       x2="84.300003"
       y2="64.889999" />
    <linearGradient
       inkscape:collect="always"
       xlink:href="#linear-gradient-2"
       id="linearGradient789"
       gradientUnits="userSpaceOnUse"
       x1="42.16"
       y1="32.91"
       x2="81.699997"
       y2="64.599998" />
    <linearGradient
       inkscape:collect="always"
       xlink:href="#linear-gradient"
       id="linearGradient791"
       gradientUnits="userSpaceOnUse"
       x1="1.55"
       y1="-1.42"
       x2="84.300003"
       y2="64.889999" />
    <linearGradient
       inkscape:collect="always"
       xlink:href="#linear-gradient-2"
       id="linearGradient793"
       gradientUnits="userSpaceOnUse"
       x1="42.16"
       y1="32.91"
       x2="81.699997"
       y2="64.599998" />
  </defs>
  <title
     id="title16">SmallLogoBlack_SVG</title>
  <rect
     style="fill:#ffffff;stroke:#1a1a1a;stroke-width:0;stroke-linecap:round;stroke-linejoin:round"
     id="rect1590"
     width="150"
     height="150"
     x="7.4999997e-07"
     y="7.4999997e-07"
     rx="15"
     ry="15" />
  <g
     id="Layer_2"
     data-name="Layer 2"
     transform="translate(10.875539,19.130547)">
    <g
       id="Laag_1"
       data-name="Laag 1">
      <path
         class="cls-1"
         d="m 46.94,73.64 -2.84,4.72 3.11,3.82 6.73,-1.9 2.62,2.72 -1,4.75 5.15,3.25 3.77,-3 24.14,13.2 -0.75,5.66 3.77,1.89 4.52,-3.77 7.92,2.26 2.64,4.52 h 4.53 l 2.26,-4.52 H 118 q 1.13,2.27 2.26,4.52 h 4.15 c 0.75,-1.63 1.51,-3.26 2.26,-4.9 L 48.27,73.6"
         id="path18" />
      <path
         class="cls-1"
         d="m 49.2,66.57 a 1,1 0 0 0 -0.85,-0.2 0.65,0.65 0 0 0 -0.3,0.37 c -0.33,0.82 -1.06,1.15 -1.64,2.09 a 4.9,4.9 0 0 0 -0.66,2.11 7.12,7.12 0 0 0 1.7,4.91 28.35,28.35 0 0 0 6.55,6.83 c 17.48,11.44 41.36,23.1 43.22,24.2 a 8.84,8.84 0 0 0 1.87,0.84 10.35,10.35 0 0 0 1.75,0.38 22.86,22.86 0 0 0 3.1,0.24 h 19.14 a 19.72,19.72 0 0 0 3,-0.73 3.37,3.37 0 0 0 1.4,-0.71 3.24,3.24 0 0 0 0.77,-2.27 7,7 0 0 0 -1,-3.43 C 125.18,97.8 55.1,69 49.2,66.57 Z"
         id="path20" />
      <path
         class="cls-2"
         d="M 54.84,61.18 A 19.84,19.84 0 0 0 51.24,65 6.56,6.56 0 0 0 50,67.25 6.06,6.06 0 0 0 50.78,71.4 c 1.27,2.61 3.25,4.45 6.7,7.43 6.24,5.38 8.26,6.45 9.74,5.84 a 5.54,5.54 0 0 1 2.44,-0.76 4.71,4.71 0 0 1 2.45,0.73 c 8.45,4.91 8.71,5.06 13.88,8 a 4.18,4.18 0 0 1 1.86,1.71 c 0.53,1 0.1,1.7 0.45,2.66 0.22,0.61 0.62,1 3.57,2.54 3.39,1.78 5.26,2.54 5.77,2.75 0.84,0.34 1.42,0.57 2.2,0.83 a 28,28 0 0 0 6.27,1.28 98.83,98.83 0 0 0 16.49,0 5.79,5.79 0 0 0 4,-1.48 5.3,5.3 0 0 0 1.2,-4.11 c -0.34,-2.24 -2.18,-3.59 -3.88,-4.79 -3.07,-2.16 -6.46,-3.18 -12.13,-4.87 a 20,20 0 0 1 -3,-1.14 10.71,10.71 0 0 1 -3.2,-1.86 73.36,73.36 0 0 1 -10.71,-11.83 c -0.58,-0.8 -1,-1.48 -1.13,-1.6 a 68.12,68.12 0 0 1 -6,-11 C 87.41,60.92 87.17,60.36 86.88,59.52 A 33.26,33.26 0 0 1 85.25,53 c -0.06,-0.43 -0.13,-1 -0.19,-1.77"
         id="path22" />
      <path
         class="cls-3"
         d="m 69.39,73.83 c -7.69,-1.9 -10.46,-2.78 -20.47,-7 a 60.83,60.83 0 0 1 -12.59,-6.7 69.53,69.53 0 0 1 -6,-4.92 71.4,71.4 0 0 1 -9.77,-11 60.48,60.48 0 0 1 -4.75,-7.91 3.42,3.42 0 0 1 -0.33,-1.13 c -0.08,-0.57 0.34,-0.89 0.89,-0.71 a 3,3 0 0 1 0.57,0.28 c 0.6,0.36 1.18,0.75 1.78,1.09 a 24.38,24.38 0 0 0 6.87,2.81 12.86,12.86 0 0 0 7.12,-0.2 6.07,6.07 0 0 0 4.07,-4 9.49,9.49 0 0 0 0,-5.36 A 8.78,8.78 0 0 0 35,25.81 20.93,20.93 0 0 0 30.18,21.64 53.87,53.87 0 0 0 23.62,18 c -3.66,-1.77 -7.34,-3.48 -11,-5.25 A 45.27,45.27 0 0 1 4.28,7.75 11.76,11.76 0 0 1 0.5,3 5.1,5.1 0 0 1 0,0.88 0.81,0.81 0 0 1 0.61,0 C 0.94,-0.08 1.16,0.06 1.4,0.55 a 5.08,5.08 0 0 0 1.5,1.9 c 0.43,0.33 0.89,0.64 1.34,0.93 a 30.85,30.85 0 0 0 7.12,3.4 52.35,52.35 0 0 0 9.79,2.22 c 4.44,0.63 8.91,0.91 13.37,1.26 3.44,0.27 6.87,0.55 10.27,1.11 a 81.54,81.54 0 0 1 17.61,5.07 51.37,51.37 0 0 1 9.41,4.92 c 1.52,1 3,2.14 4.41,3.31 a 33.25,33.25 0 0 1 5.61,5.94 31.53,31.53 0 0 1 5.7,13 c 0,0.2 0.09,0.47 0.14,0.8 0,0 0.33,1.93 0.46,4.08 A 79.65,79.65 0 0 1 87.4,61"
         id="path24"
         style="fill:url(#linearGradient727)" />
      <path
         class="cls-4"
         d="m 87.35,57.55 a 20.3,20.3 0 0 0 -0.49,-3.26 24.21,24.21 0 0 0 -5.67,-10.37 27.83,27.83 0 0 0 -7.13,-6 c -2,-1.22 -4.09,-2.33 -6.18,-3.42 -3.29,-1.73 -6.67,-3.3 -9.8,-5.34 a 25.3,25.3 0 0 1 -4,-3.23 c -0.81,-0.81 -1.56,-1.66 -2.37,-2.46 a 4.55,4.55 0 0 0 -0.94,-0.69 c -0.33,-0.18 -0.53,-0.05 -0.55,0.31 a 1.88,1.88 0 0 0 0.07,0.63 c 0.16,0.48 0.33,0.95 0.53,1.41 a 22.27,22.27 0 0 0 4.38,6.54 c 1.52,1.65 3.11,3.24 4.65,4.87 A 19,19 0 0 1 62.51,40 7.42,7.42 0 0 1 63.6,43.57 7.75,7.75 0 0 1 63,46.48 5.74,5.74 0 0 1 57.55,50.3 12,12 0 0 1 52.86,49.4 16.53,16.53 0 0 1 46,44.56 c -0.38,-0.46 -0.75,-0.9 -1.14,-1.34 a 1.92,1.92 0 0 0 -0.5,-0.39 0.37,0.37 0 0 0 -0.6,0.32 3.36,3.36 0 0 0 0,0.84 14.67,14.67 0 0 0 0.84,3 53.07,53.07 0 0 0 3.4,7.62 32.28,32.28 0 0 0 4.37,5.79 A 94.47,94.47 0 0 0 64,71.32"
         id="path26"
         style="fill:url(#linearGradient729)" />
      <circle
         class="cls-1"
         cx="72.75"
         cy="59.490002"
         r="14.72"
         transform="rotate(-19.33,72.766591,59.490962)"
         id="circle28" />
      <circle
         class="cls-5"
         cx="72.75"
         cy="59.490002"
         r="9.9300003"
         id="circle30" />
      <line
         class="cls-6"
         x1="72.75"
         y1="59.490002"
         x2="72.75"
         y2="44.77"
         id="line32" />
      <path
         class="cls-1"
         d="M 72.75,59.49 H 58 a 14.68,14.68 0 0 0 14.75,14.72 z"
         id="path34" />
      <path
         class="cls-1"
         d="M 72.75,44.77 A 14.73,14.73 0 0 1 87.48,59.49 H 72.75 Z"
         id="path36" />
      <rect
         class="cls-7"
         x="68.949997"
         y="90.230003"
         width="16.59"
         height="3.02"
         transform="rotate(30,77.242449,91.742948)"
         id="rect38" />
      <circle
         class="cls-7"
         cx="70.07"
         cy="87.589996"
         r="1.51"
         id="circle40" />
      <circle
         class="cls-7"
         cx="84.440002"
         cy="95.889999"
         r="1.51"
         id="circle42" />
      <path
         class="cls-1"
         d="m 46.94,73.64 -2.84,4.72 3.11,3.82 6.73,-1.9 2.62,2.72 -1,4.75 5.15,3.25 3.77,-3 24.14,13.2 -0.75,5.66 3.77,1.89 4.52,-3.77 7.92,2.26 2.64,4.52 h 4.53 l 2.26,-4.52 H 118 q 1.13,2.27 2.26,4.52 h 4.15 c 0.75,-1.63 1.51,-3.26 2.26,-4.9 L 48.27,73.6"
         id="path44" />
      <path
         class="cls-1"
         d="m 49.2,66.57 a 1,1 0 0 0 -0.85,-0.2 0.65,0.65 0 0 0 -0.3,0.37 c -0.33,0.82 -1.06,1.15 -1.64,2.09 a 4.9,4.9 0 0 0 -0.66,2.11 7.12,7.12 0 0 0 1.7,4.91 28.35,28.35 0 0 0 6.55,6.83 c 17.48,11.44 41.36,23.1 43.22,24.2 a 8.84,8.84 0 0 0 1.87,0.84 10.35,10.35 0 0 0 1.75,0.38 22.86,22.86 0 0 0 3.1,0.24 h 19.14 a 19.72,19.72 0 0 0 3,-0.73 3.37,3.37 0 0 0 1.4,-0.71 3.24,3.24 0 0 0 0.77,-2.27 7,7 0 0 0 -1,-3.43 C 125.18,97.8 55.1,69 49.2,66.57 Z"
         id="path46" />
      <path
         class="cls-2"
         d="M 54.84,61.18 A 19.84,19.84 0 0 0 51.24,65 6.56,6.56 0 0 0 50,67.25 6.06,6.06 0 0 0 50.78,71.4 c 1.17,2.42 3.07,4.39 6.7,7.43 6.63,5.55 8.38,6.18 9.78,5.74 a 6.09,6.09 0 0 1 2.4,-0.66 4.9,4.9 0 0 1 2.45,0.73 c 4.43,2.52 7.58,4.35 13.88,8 A 5,5 0 0 1 88.34,95 c 0.4,1 0,1.4 0.45,2.3 0.45,0.9 1.25,1.55 3.1,2.3 5.55,2.26 4.39,2.43 8,3.58 a 21.86,21.86 0 0 0 7.06,1.3 86.5,86.5 0 0 0 15.7,0 5.81,5.81 0 0 0 4,-1.48 5.3,5.3 0 0 0 1.2,-4.11 c -0.34,-2.24 -2.18,-3.59 -3.88,-4.79 -3.07,-2.16 -6.46,-3.18 -12.13,-4.87 a 21.29,21.29 0 0 1 -6.19,-3 84.22,84.22 0 0 1 -10.77,-11.9 c -0.58,-0.8 -1,-1.48 -1.13,-1.6 a 68.12,68.12 0 0 1 -6,-11 c -0.34,-0.81 -0.58,-1.37 -0.87,-2.21 a 32.8,32.8 0 0 1 -1.79,-8.39"
         id="path48" />
      <path
         class="cls-3"
         d="m 69.39,73.83 c -7.69,-1.9 -10.46,-2.78 -20.47,-7 a 60.83,60.83 0 0 1 -12.59,-6.7 69.53,69.53 0 0 1 -6,-4.92 71.4,71.4 0 0 1 -9.77,-11 60.48,60.48 0 0 1 -4.75,-7.91 3.42,3.42 0 0 1 -0.33,-1.13 c -0.08,-0.57 0.34,-0.89 0.89,-0.71 a 3,3 0 0 1 0.57,0.28 c 0.6,0.36 1.18,0.75 1.78,1.09 a 24.38,24.38 0 0 0 6.87,2.81 12.86,12.86 0 0 0 7.12,-0.2 6.07,6.07 0 0 0 4.07,-4 9.49,9.49 0 0 0 0,-5.36 A 8.78,8.78 0 0 0 35,25.81 20.93,20.93 0 0 0 30.18,21.64 53.87,53.87 0 0 0 23.62,18 c -3.66,-1.77 -7.34,-3.48 -11,-5.25 A 45.27,45.27 0 0 1 4.28,7.75 11.76,11.76 0 0 1 0.5,3 5.1,5.1 0 0 1 0,0.88 0.81,0.81 0 0 1 0.61,0 C 0.94,-0.08 1.16,0.06 1.4,0.55 a 5.08,5.08 0 0 0 1.5,1.9 c 0.43,0.33 0.89,0.64 1.34,0.93 a 30.85,30.85 0 0 0 7.12,3.4 52.35,52.35 0 0 0 9.79,2.22 c 4.44,0.63 8.91,0.91 13.37,1.26 3.44,0.27 6.87,0.55 10.27,1.11 a 81.54,81.54 0 0 1 17.61,5.07 51.37,51.37 0 0 1 9.41,4.92 c 1.52,1 3,2.14 4.41,3.31 a 33.25,33.25 0 0 1 5.61,5.94 31.53,31.53 0 0 1 5.7,13 c 0,0.2 0.09,0.47 0.14,0.8 0,0 0.33,1.93 0.46,4.08 A 79.65,79.65 0 0 1 87.4,61"
         id="path50"
         style="fill:url(#linearGradient731)" />
      <path
         class="cls-8"
         d="m 62.48,70 c 4.08,2.75 7,3.53 6.91,3.79"
         id="path52" />
      <path
         class="cls-4"
         d="m 87.35,57.55 a 20.3,20.3 0 0 0 -0.49,-3.26 24.21,24.21 0 0 0 -5.67,-10.37 27.83,27.83 0 0 0 -7.13,-6 c -2,-1.22 -4.09,-2.33 -6.18,-3.42 -3.29,-1.73 -6.67,-3.3 -9.8,-5.34 a 25.3,25.3 0 0 1 -4,-3.23 c -0.81,-0.81 -1.56,-1.66 -2.37,-2.46 a 4.55,4.55 0 0 0 -0.94,-0.69 c -0.33,-0.18 -0.53,-0.05 -0.55,0.31 a 1.88,1.88 0 0 0 0.07,0.63 c 0.16,0.48 0.33,0.95 0.53,1.41 a 22.27,22.27 0 0 0 4.38,6.54 c 1.52,1.65 3.11,3.24 4.65,4.87 A 19,19 0 0 1 62.51,40 7.42,7.42 0 0 1 63.6,43.57 7.75,7.75 0 0 1 63,46.48 5.74,5.74 0 0 1 57.55,50.3 12,12 0 0 1 52.86,49.4 16.53,16.53 0 0 1 46,44.56 c -0.38,-0.46 -0.75,-0.9 -1.14,-1.34 a 1.92,1.92 0 0 0 -0.5,-0.39 0.37,0.37 0 0 0 -0.6,0.32 3.36,3.36 0 0 0 0,0.84 14.67,14.67 0 0 0 0.84,3 53.07,53.07 0 0 0 3.4,7.62 32.28,32.28 0 0 0 4.37,5.79 A 94.47,94.47 0 0 0 64,71.32"
         id="path54"
         style="fill:url(#linearGradient733)" />
      <circle
         class="cls-1"
         cx="72.75"
         cy="59.490002"
         r="14.72"
         transform="rotate(-19.33,72.766591,59.490962)"
         id="circle56" />
      <circle
         class="cls-5"
         cx="72.75"
         cy="59.490002"
         r="9.9300003"
         id="circle58" />
      <line
         class="cls-6"
         x1="72.75"
         y1="59.490002"
         x2="72.75"
         y2="44.77"
         id="line60" />
      <path
         class="cls-1"
         d="M 72.75,59.49 H 58 a 14.68,14.68 0 0 0 14.75,14.72 z"
         id="path62" />
      <path
         class="cls-1"
         d="M 72.75,44.77 A 14.73,14.73 0 0 1 87.48,59.49 H 72.75 Z"
         id="path64" />
      <rect
         class="cls-7"
         x="69.220001"
         y="89.839996"
         width="16.59"
         height="3.02"
         transform="rotate(30,77.516994,91.349384)"
         id="rect66" />
      <circle
         class="cls-7"
         cx="70.330002"
         cy="87.199997"
         r="1.51"
         id="circle68" />
      <circle
         class="cls-7"
         cx="84.699997"
         cy="95.5"
         r="1.51"
         id="circle70" />
      <path
         class="cls-1"
         d="m 46.94,73.64 -2.84,4.72 3.11,3.82 6.73,-1.9 2.62,2.72 -1,4.75 5.15,3.25 3.77,-3 24.14,13.2 -0.75,5.66 3.77,1.89 4.52,-3.77 7.92,2.26 2.64,4.52 h 4.53 l 2.26,-4.52 H 118 q 1.13,2.27 2.26,4.52 h 4.15 c 0.75,-1.63 1.51,-3.26 2.26,-4.9 L 48.27,73.6"
         id="path72" />
      <path
         class="cls-1"
         d="m 49.2,66.57 a 1,1 0 0 0 -0.85,-0.2 0.65,0.65 0 0 0 -0.3,0.37 c -0.33,0.82 -1.06,1.15 -1.64,2.09 a 4.9,4.9 0 0 0 -0.66,2.11 7.12,7.12 0 0 0 1.7,4.91 28.35,28.35 0 0 0 6.55,6.83 c 17.48,11.44 41.36,23.1 43.22,24.2 a 8.84,8.84 0 0 0 1.87,0.84 10.35,10.35 0 0 0 1.75,0.38 22.86,22.86 0 0 0 3.1,0.24 h 19.14 a 19.72,19.72 0 0 0 3,-0.73 3.37,3.37 0 0 0 1.4,-0.71 3.24,3.24 0 0 0 0.77,-2.27 7,7 0 0 0 -1,-3.43 C 125.18,97.8 55.1,69 49.2,66.57 Z"
         id="path74" />
      <path
         class="cls-2"
         d="M 54.84,61.18 A 19.84,19.84 0 0 0 51.24,65 6.56,6.56 0 0 0 50,67.25 6.06,6.06 0 0 0 50.78,71.4 c 1.17,2.42 3.07,4.39 6.7,7.43 6.63,5.55 8.38,6.18 9.78,5.74 a 6.09,6.09 0 0 1 2.4,-0.66 4.9,4.9 0 0 1 2.45,0.73 c 4.43,2.52 7.58,4.35 13.88,8 A 5,5 0 0 1 88.34,95 c 0.4,1 0,1.4 0.45,2.3 0.45,0.9 1.25,1.55 3.1,2.3 5.55,2.26 4.39,2.43 8,3.58 a 21.86,21.86 0 0 0 7.06,1.3 86.5,86.5 0 0 0 15.7,0 5.81,5.81 0 0 0 4,-1.48 5.3,5.3 0 0 0 1.2,-4.11 c -0.34,-2.24 -2.18,-3.59 -3.88,-4.79 -3.07,-2.16 -6.46,-3.18 -12.13,-4.87 a 21.29,21.29 0 0 1 -6.19,-3 84.22,84.22 0 0 1 -10.77,-11.9 c -0.58,-0.8 -1,-1.48 -1.13,-1.6 a 68.12,68.12 0 0 1 -6,-11 c -0.34,-0.81 -0.58,-1.37 -0.87,-2.21 a 32.8,32.8 0 0 1 -1.79,-8.39"
         id="path76" />
      <path
         class="cls-3"
         d="m 69.39,73.83 c -7.69,-1.9 -10.46,-2.78 -20.47,-7 a 60.83,60.83 0 0 1 -12.59,-6.7 69.53,69.53 0 0 1 -6,-4.92 71.4,71.4 0 0 1 -9.77,-11 60.48,60.48 0 0 1 -4.75,-7.91 3.42,3.42 0 0 1 -0.33,-1.13 c -0.08,-0.57 0.34,-0.89 0.89,-0.71 a 3,3 0 0 1 0.57,0.28 c 0.6,0.36 1.18,0.75 1.78,1.09 a 24.38,24.38 0 0 0 6.87,2.81 12.86,12.86 0 0 0 7.12,-0.2 6.07,6.07 0 0 0 4.07,-4 9.49,9.49 0 0 0 0,-5.36 A 8.78,8.78 0 0 0 35,25.81 20.93,20.93 0 0 0 30.18,21.64 53.87,53.87 0 0 0 23.62,18 c -3.66,-1.77 -7.34,-3.48 -11,-5.25 A 45.27,45.27 0 0 1 4.28,7.75 11.76,11.76 0 0 1 0.5,3 5.1,5.1 0 0 1 0,0.88 0.81,0.81 0 0 1 0.61,0 C 0.94,-0.08 1.16,0.06 1.4,0.55 a 5.08,5.08 0 0 0 1.5,1.9 c 0.43,0.33 0.89,0.64 1.34,0.93 a 30.85,30.85 0 0 0 7.12,3.4 52.35,52.35 0 0 0 9.79,2.22 c 4.44,0.63 8.91,0.91 13.37,1.26 3.44,0.27 6.87,0.55 10.27,1.11 a 81.54,81.54 0 0 1 17.61,5.07 51.37,51.37 0 0 1 9.41,4.92 c 1.52,1 3,2.14 4.41,3.31 a 33.25,33.25 0 0 1 5.61,5.94 31.53,31.53 0 0 1 5.7,13 c 0,0.2 0.09,0.47 0.14,0.8 0,0 0.33,1.93 0.46,4.08 A 79.65,79.65 0 0 1 87.4,61"
         id="path78"
         style="fill:url(#linearGradient735)" />
      <path
         class="cls-8"
         d="m 62.48,70 c 4.08,2.75 7,3.53 6.91,3.79"
         id="path80" />
      <path
         class="cls-4"
         d="m 87.35,57.55 a 20.3,20.3 0 0 0 -0.49,-3.26 24.21,24.21 0 0 0 -5.67,-10.37 27.83,27.83 0 0 0 -7.13,-6 c -2,-1.22 -4.09,-2.33 -6.18,-3.42 -3.29,-1.73 -6.67,-3.3 -9.8,-5.34 a 25.3,25.3 0 0 1 -4,-3.23 c -0.81,-0.81 -1.56,-1.66 -2.37,-2.46 a 4.55,4.55 0 0 0 -0.94,-0.69 c -0.33,-0.18 -0.53,-0.05 -0.55,0.31 a 1.88,1.88 0 0 0 0.07,0.63 c 0.16,0.48 0.33,0.95 0.53,1.41 a 22.27,22.27 0 0 0 4.38,6.54 c 1.52,1.65 3.11,3.24 4.65,4.87 A 19,19 0 0 1 62.51,40 7.42,7.42 0 0 1 63.6,43.57 7.75,7.75 0 0 1 63,46.48 5.74,5.74 0 0 1 57.55,50.3 12,12 0 0 1 52.86,49.4 16.53,16.53 0 0 1 46,44.56 c -0.38,-0.46 -0.75,-0.9 -1.14,-1.34 a 1.92,1.92 0 0 0 -0.5,-0.39 0.37,0.37 0 0 0 -0.6,0.32 3.36,3.36 0 0 0 0,0.84 14.67,14.67 0 0 0 0.84,3 53.07,53.07 0 0 0 3.4,7.62 32.28,32.28 0 0 0 4.37,5.79 A 94.47,94.47 0 0 0 64,71.32"
         id="path82"
         style="fill:url(#linearGradient737)" />
      <circle
         class="cls-1"
         cx="72.75"
         cy="59.490002"
         r="14.72"
         transform="rotate(-19.33,72.766591,59.490962)"
         id="circle84" />
      <circle
         class="cls-5"
         cx="72.75"
         cy="59.490002"
         r="9.9300003"
         id="circle86" />
      <line
         class="cls-6"
         x1="72.75"
         y1="59.490002"
         x2="72.75"
         y2="44.77"
         id="line88" />
      <path
         class="cls-1"
         d="M 72.75,59.49 H 58 a 14.68,14.68 0 0 0 14.75,14.72 z"
         id="path90" />
      <path
         class="cls-1"
         d="M 72.75,44.77 A 14.73,14.73 0 0 1 87.48,59.49 H 72.75 Z"
         id="path92" />
      <rect
         class="cls-7"
         x="69.220001"
         y="89.839996"
         width="16.59"
         height="3.02"
         transform="rotate(30,77.516994,91.349384)"
         id="rect94" />
      <circle
         class="cls-7"
         cx="70.330002"
         cy="87.199997"
         r="1.51"
         id="circle96" />
      <circle
         class="cls-7"
         cx="84.699997"
         cy="95.5"
         r="1.51"
         id="circle98" />
      <path
         class="cls-1"
         d="m 46.94,73.64 -2.84,4.72 3.11,3.82 6.73,-1.9 2.62,2.72 -1,4.75 5.15,3.25 3.77,-3 24.14,13.2 -0.75,5.66 3.77,1.89 4.52,-3.77 7.92,2.26 2.64,4.52 h 4.53 l 2.26,-4.52 H 118 q 1.13,2.27 2.26,4.52 h 4.15 c 0.75,-1.63 1.51,-3.26 2.26,-4.9 L 48.27,73.6"
         id="path100" />
      <path
         class="cls-1"
         d="m 49.2,66.57 a 1,1 0 0 0 -0.85,-0.2 0.65,0.65 0 0 0 -0.3,0.37 c -0.33,0.82 -1.06,1.15 -1.64,2.09 a 4.9,4.9 0 0 0 -0.66,2.11 7.12,7.12 0 0 0 1.7,4.91 28.35,28.35 0 0 0 6.55,6.83 c 17.48,11.44 41.36,23.1 43.22,24.2 a 8.84,8.84 0 0 0 1.87,0.84 10.35,10.35 0 0 0 1.75,0.38 22.86,22.86 0 0 0 3.1,0.24 h 19.14 a 19.72,19.72 0 0 0 3,-0.73 3.37,3.37 0 0 0 1.4,-0.71 3.24,3.24 0 0 0 0.77,-2.27 7,7 0 0 0 -1,-3.43 C 125.18,97.8 55.1,69 49.2,66.57 Z"
         id="path102" />
      <path
         class="cls-2"
         d="M 54.84,61.18 A 19.84,19.84 0 0 0 51.24,65 6.56,6.56 0 0 0 50,67.25 6.06,6.06 0 0 0 50.78,71.4 c 1.17,2.42 3.07,4.39 6.7,7.43 6.63,5.55 8.38,6.18 9.78,5.74 a 6.09,6.09 0 0 1 2.4,-0.66 4.9,4.9 0 0 1 2.45,0.73 c 4.43,2.52 7.58,4.35 13.88,8 A 5,5 0 0 1 88.34,95 c 0.4,1 0,1.4 0.45,2.3 0.45,0.9 1.25,1.55 3.1,2.3 5.55,2.26 4.39,2.43 8,3.58 a 21.86,21.86 0 0 0 7.06,1.3 86.5,86.5 0 0 0 15.7,0 5.81,5.81 0 0 0 4,-1.48 5.3,5.3 0 0 0 1.2,-4.11 c -0.34,-2.24 -2.18,-3.59 -3.88,-4.79 -3.07,-2.16 -6.46,-3.18 -12.13,-4.87 a 21.29,21.29 0 0 1 -6.19,-3 84.22,84.22 0 0 1 -10.77,-11.9 c -0.58,-0.8 -1,-1.48 -1.13,-1.6 a 68.12,68.12 0 0 1 -6,-11 c -0.34,-0.81 -0.58,-1.37 -0.87,-2.21 a 32.8,32.8 0 0 1 -1.79,-8.39"
         id="path104" />
      <path
         class="cls-3"
         d="m 69.39,73.83 c -7.69,-1.9 -10.46,-2.78 -20.47,-7 a 60.83,60.83 0 0 1 -12.59,-6.7 69.53,69.53 0 0 1 -6,-4.92 71.4,71.4 0 0 1 -9.77,-11 60.48,60.48 0 0 1 -4.75,-7.91 3.42,3.42 0 0 1 -0.33,-1.13 c -0.08,-0.57 0.34,-0.89 0.89,-0.71 a 3,3 0 0 1 0.57,0.28 c 0.6,0.36 1.18,0.75 1.78,1.09 a 24.38,24.38 0 0 0 6.87,2.81 12.86,12.86 0 0 0 7.12,-0.2 6.07,6.07 0 0 0 4.07,-4 9.49,9.49 0 0 0 0,-5.36 A 8.78,8.78 0 0 0 35,25.81 20.93,20.93 0 0 0 30.18,21.64 53.87,53.87 0 0 0 23.62,18 c -3.66,-1.77 -7.34,-3.48 -11,-5.25 A 45.27,45.27 0 0 1 4.28,7.75 11.76,11.76 0 0 1 0.5,3 5.1,5.1 0 0 1 0,0.88 0.81,0.81 0 0 1 0.61,0 C 0.94,-0.08 1.16,0.06 1.4,0.55 a 5.08,5.08 0 0 0 1.5,1.9 c 0.43,0.33 0.89,0.64 1.34,0.93 a 30.85,30.85 0 0 0 7.12,3.4 52.35,52.35 0 0 0 9.79,2.22 c 4.44,0.63 8.91,0.91 13.37,1.26 3.44,0.27 6.87,0.55 10.27,1.11 a 81.54,81.54 0 0 1 17.61,5.07 51.37,51.37 0 0 1 9.41,4.92 c 1.52,1 3,2.14 4.41,3.31 a 33.25,33.25 0 0 1 5.61,5.94 31.53,31.53 0 0 1 5.7,13 c 0,0.2 0.09,0.47 0.14,0.8 0,0 0.33,1.93 0.46,4.08 A 79.65,79.65 0 0 1 87.4,61"
         id="path106"
         style="fill:url(#linearGradient739)" />
      <path
         class="cls-8"
         d="m 62.48,70 c 4.08,2.75 7,3.53 6.91,3.79"
         id="path108" />
      <path
         class="cls-4"
         d="m 87.35,57.55 a 20.3,20.3 0 0 0 -0.49,-3.26 24.21,24.21 0 0 0 -5.67,-10.37 27.83,27.83 0 0 0 -7.13,-6 c -2,-1.22 -4.09,-2.33 -6.18,-3.42 -3.29,-1.73 -6.67,-3.3 -9.8,-5.34 a 25.3,25.3 0 0 1 -4,-3.23 c -0.81,-0.81 -1.56,-1.66 -2.37,-2.46 a 4.55,4.55 0 0 0 -0.94,-0.69 c -0.33,-0.18 -0.53,-0.05 -0.55,0.31 a 1.88,1.88 0 0 0 0.07,0.63 c 0.16,0.48 0.33,0.95 0.53,1.41 a 22.27,22.27 0 0 0 4.38,6.54 c 1.52,1.65 3.11,3.24 4.65,4.87 A 19,19 0 0 1 62.51,40 7.42,7.42 0 0 1 63.6,43.57 7.75,7.75 0 0 1 63,46.48 5.74,5.74 0 0 1 57.55,50.3 12,12 0 0 1 52.86,49.4 16.53,16.53 0 0 1 46,44.56 c -0.38,-0.46 -0.75,-0.9 -1.14,-1.34 a 1.92,1.92 0 0 0 -0.5,-0.39 0.37,0.37 0 0 0 -0.6,0.32 3.36,3.36 0 0 0 0,0.84 14.67,14.67 0 0 0 0.84,3 53.07,53.07 0 0 0 3.4,7.62 32.28,32.28 0 0 0 4.37,5.79 A 94.47,94.47 0 0 0 64,71.32"
         id="path110"
         style="fill:url(#linearGradient741)" />
      <circle
         class="cls-1"
         cx="72.75"
         cy="59.490002"
         r="14.72"
         transform="rotate(-19.33,72.766591,59.490962)"
         id="circle112" />
      <circle
         class="cls-5"
         cx="72.75"
         cy="59.490002"
         r="9.9300003"
         id="circle114" />
      <line
         class="cls-6"
         x1="72.75"
         y1="59.490002"
         x2="72.75"
         y2="44.77"
         id="line116" />
      <path
         class="cls-1"
         d="M 72.75,59.49 H 58 a 14.68,14.68 0 0 0 14.75,14.72 z"
         id="path118" />
      <path
         class="cls-1"
         d="M 72.75,44.77 A 14.73,14.73 0 0 1 87.48,59.49 H 72.75 Z"
         id="path120" />
      <rect
         class="cls-7"
         x="69.220001"
         y="89.839996"
         width="16.59"
         height="3.02"
         transform="rotate(30,77.516994,91.349384)"
         id="rect122" />
      <circle
         class="cls-7"
         cx="70.330002"
         cy="87.199997"
         r="1.51"
         id="circle124" />
      <circle
         class="cls-7"
         cx="84.699997"
         cy="95.5"
         r="1.51"
         id="circle126" />
      <path
         class="cls-1"
         d="m 46.94,73.64 -2.84,4.72 3.11,3.82 6.73,-1.9 2.62,2.72 -1,4.75 5.15,3.25 3.77,-3 24.14,13.2 -0.75,5.66 3.77,1.89 4.52,-3.77 7.92,2.26 2.64,4.52 h 4.53 l 2.26,-4.52 H 118 q 1.13,2.27 2.26,4.52 h 4.15 c 0.75,-1.63 1.51,-3.26 2.26,-4.9 L 48.27,73.6"
         id="path128" />
      <path
         class="cls-1"
         d="m 49.2,66.57 a 1,1 0 0 0 -0.85,-0.2 0.65,0.65 0 0 0 -0.3,0.37 c -0.33,0.82 -1.06,1.15 -1.64,2.09 a 4.9,4.9 0 0 0 -0.66,2.11 7.12,7.12 0 0 0 1.7,4.91 28.35,28.35 0 0 0 6.55,6.83 c 17.48,11.44 41.36,23.1 43.22,24.2 a 8.84,8.84 0 0 0 1.87,0.84 10.35,10.35 0 0 0 1.75,0.38 22.86,22.86 0 0 0 3.1,0.24 h 19.14 a 19.72,19.72 0 0 0 3,-0.73 3.37,3.37 0 0 0 1.4,-0.71 3.24,3.24 0 0 0 0.77,-2.27 7,7 0 0 0 -1,-3.43 C 125.18,97.8 55.1,69 49.2,66.57 Z"
         id="path130" />
      <path
         class="cls-2"
         d="M 54.84,61.18 A 19.84,19.84 0 0 0 51.24,65 6.56,6.56 0 0 0 50,67.25 6.06,6.06 0 0 0 50.78,71.4 c 1.17,2.42 3.07,4.39 6.7,7.43 6.63,5.55 8.38,6.18 9.78,5.74 a 6.09,6.09 0 0 1 2.4,-0.66 4.9,4.9 0 0 1 2.45,0.73 c 4.43,2.52 7.58,4.35 13.88,8 A 5,5 0 0 1 88.34,95 c 0.4,1 0,1.4 0.45,2.3 0.45,0.9 1.25,1.55 3.1,2.3 5.55,2.26 4.39,2.43 8,3.58 a 21.86,21.86 0 0 0 7.06,1.3 86.5,86.5 0 0 0 15.7,0 5.81,5.81 0 0 0 4,-1.48 5.3,5.3 0 0 0 1.2,-4.11 c -0.34,-2.24 -2.18,-3.59 -3.88,-4.79 -3.07,-2.16 -6.46,-3.18 -12.13,-4.87 a 21.29,21.29 0 0 1 -6.19,-3 84.22,84.22 0 0 1 -10.77,-11.9 c -0.58,-0.8 -1,-1.48 -1.13,-1.6 a 68.12,68.12 0 0 1 -6,-11 c -0.34,-0.81 -0.58,-1.37 -0.87,-2.21 a 32.8,32.8 0 0 1 -1.79,-8.39"
         id="path132" />
      <path
         class="cls-3"
         d="m 69.39,73.83 c -7.69,-1.9 -10.46,-2.78 -20.47,-7 a 60.83,60.83 0 0 1 -12.59,-6.7 69.53,69.53 0 0 1 -6,-4.92 71.4,71.4 0 0 1 -9.77,-11 60.48,60.48 0 0 1 -4.75,-7.91 3.42,3.42 0 0 1 -0.33,-1.13 c -0.08,-0.57 0.34,-0.89 0.89,-0.71 a 3,3 0 0 1 0.57,0.28 c 0.6,0.36 1.18,0.75 1.78,1.09 a 24.38,24.38 0 0 0 6.87,2.81 12.86,12.86 0 0 0 7.12,-0.2 6.07,6.07 0 0 0 4.07,-4 9.49,9.49 0 0 0 0,-5.36 A 8.78,8.78 0 0 0 35,25.81 20.93,20.93 0 0 0 30.18,21.64 53.87,53.87 0 0 0 23.62,18 c -3.66,-1.77 -7.34,-3.48 -11,-5.25 A 45.27,45.27 0 0 1 4.28,7.75 11.76,11.76 0 0 1 0.5,3 5.1,5.1 0 0 1 0,0.88 0.81,0.81 0 0 1 0.61,0 C 0.94,-0.08 1.16,0.06 1.4,0.55 a 5.08,5.08 0 0 0 1.5,1.9 c 0.43,0.33 0.89,0.64 1.34,0.93 a 30.85,30.85 0 0 0 7.12,3.4 52.35,52.35 0 0 0 9.79,2.22 c 4.44,0.63 8.91,0.91 13.37,1.26 3.44,0.27 6.87,0.55 10.27,1.11 a 81.54,81.54 0 0 1 17.61,5.07 51.37,51.37 0 0 1 9.41,4.92 c 1.52,1 3,2.14 4.41,3.31 a 33.25,33.25 0 0 1 5.61,5.94 31.53,31.53 0 0 1 5.7,13 c 0,0.2 0.09,0.47 0.14,0.8 0,0 0.33,1.93 0.46,4.08 A 79.65,79.65 0 0 1 87.4,61"
         id="path134"
         style="fill:url(#linearGradient743)" />
      <path
         class="cls-8"
         d="m 62.48,70 c 4.08,2.75 7,3.53 6.91,3.79"
         id="path136" />
      <path
         class="cls-4"
         d="m 87.35,57.55 a 20.3,20.3 0 0 0 -0.49,-3.26 24.21,24.21 0 0 0 -5.67,-10.37 27.83,27.83 0 0 0 -7.13,-6 c -2,-1.22 -4.09,-2.33 -6.18,-3.42 -3.29,-1.73 -6.67,-3.3 -9.8,-5.34 a 25.3,25.3 0 0 1 -4,-3.23 c -0.81,-0.81 -1.56,-1.66 -2.37,-2.46 a 4.55,4.55 0 0 0 -0.94,-0.69 c -0.33,-0.18 -0.53,-0.05 -0.55,0.31 a 1.88,1.88 0 0 0 0.07,0.63 c 0.16,0.48 0.33,0.95 0.53,1.41 a 22.27,22.27 0 0 0 4.38,6.54 c 1.52,1.65 3.11,3.24 4.65,4.87 A 19,19 0 0 1 62.51,40 7.42,7.42 0 0 1 63.6,43.57 7.75,7.75 0 0 1 63,46.48 5.74,5.74 0 0 1 57.55,50.3 12,12 0 0 1 52.86,49.4 16.53,16.53 0 0 1 46,44.56 c -0.38,-0.46 -0.75,-0.9 -1.14,-1.34 a 1.92,1.92 0 0 0 -0.5,-0.39 0.37,0.37 0 0 0 -0.6,0.32 3.36,3.36 0 0 0 0,0.84 14.67,14.67 0 0 0 0.84,3 53.07,53.07 0 0 0 3.4,7.62 32.28,32.28 0 0 0 4.37,5.79 A 94.47,94.47 0 0 0 64,71.32"
         id="path138"
         style="fill:url(#linearGradient745)" />
      <circle
         class="cls-1"
         cx="72.75"
         cy="59.490002"
         r="14.72"
         transform="rotate(-19.33,72.766591,59.490962)"
         id="circle140" />
      <circle
         class="cls-5"
         cx="72.75"
         cy="59.490002"
         r="9.9300003"
         id="circle142" />
      <line
         class="cls-6"
         x1="72.75"
         y1="59.490002"
         x2="72.75"
         y2="44.77"
         id="line144" />
      <path
         class="cls-1"
         d="M 72.75,59.49 H 58 a 14.68,14.68 0 0 0 14.75,14.72 z"
         id="path146" />
      <path
         class="cls-1"
         d="M 72.75,44.77 A 14.73,14.73 0 0 1 87.48,59.49 H 72.75 Z"
         id="path148" />
      <rect
         class="cls-7"
         x="69.220001"
         y="89.839996"
         width="16.59"
         height="3.02"
         transform="rotate(30,77.516994,91.349384)"
         id="rect150" />
      <circle
         class="cls-7"
         cx="70.330002"
         cy="87.199997"
         r="1.51"
         id="circle152" />
      <circle
         class="cls-7"
         cx="84.699997"
         cy="95.5"
         r="1.51"
         id="circle154" />
      <path
         class="cls-1"
         d="m 46.94,73.64 -2.84,4.72 3.11,3.82 6.73,-1.9 2.62,2.72 -1,4.75 5.15,3.25 3.77,-3 24.14,13.2 -0.75,5.66 3.77,1.89 4.52,-3.77 7.92,2.26 2.64,4.52 h 4.53 l 2.26,-4.52 H 118 q 1.13,2.27 2.26,4.52 h 4.15 c 0.75,-1.63 1.51,-3.26 2.26,-4.9 L 48.27,73.6"
         id="path156" />
      <path
         class="cls-1"
         d="m 49.2,66.57 a 1,1 0 0 0 -0.85,-0.2 0.65,0.65 0 0 0 -0.3,0.37 c -0.33,0.82 -1.06,1.15 -1.64,2.09 a 4.9,4.9 0 0 0 -0.66,2.11 7.12,7.12 0 0 0 1.7,4.91 28.35,28.35 0 0 0 6.55,6.83 c 17.48,11.44 41.36,23.1 43.22,24.2 a 8.84,8.84 0 0 0 1.87,0.84 10.35,10.35 0 0 0 1.75,0.38 22.86,22.86 0 0 0 3.1,0.24 h 19.14 a 19.72,19.72 0 0 0 3,-0.73 3.37,3.37 0 0 0 1.4,-0.71 3.24,3.24 0 0 0 0.77,-2.27 7,7 0 0 0 -1,-3.43 C 125.18,97.8 55.1,69 49.2,66.57 Z"
         id="path158" />
      <path
         class="cls-2"
         d="M 54.84,61.18 A 19.84,19.84 0 0 0 51.24,65 6.56,6.56 0 0 0 50,67.25 6.06,6.06 0 0 0 50.78,71.4 c 1.17,2.42 3.07,4.39 6.7,7.43 6.63,5.55 8.38,6.18 9.78,5.74 a 6.09,6.09 0 0 1 2.4,-0.66 4.9,4.9 0 0 1 2.45,0.73 c 4.43,2.52 7.58,4.35 13.88,8 A 5,5 0 0 1 88.34,95 c 0.4,1 0,1.4 0.45,2.3 0.45,0.9 1.25,1.55 3.1,2.3 5.55,2.26 4.39,2.43 8,3.58 a 21.86,21.86 0 0 0 7.06,1.3 86.5,86.5 0 0 0 15.7,0 5.81,5.81 0 0 0 4,-1.48 5.3,5.3 0 0 0 1.2,-4.11 c -0.34,-2.24 -2.18,-3.59 -3.88,-4.79 -3.07,-2.16 -6.46,-3.18 -12.13,-4.87 a 21.29,21.29 0 0 1 -6.19,-3 84.22,84.22 0 0 1 -10.77,-11.9 c -0.58,-0.8 -1,-1.48 -1.13,-1.6 a 68.12,68.12 0 0 1 -6,-11 c -0.34,-0.81 -0.58,-1.37 -0.87,-2.21 a 32.8,32.8 0 0 1 -1.79,-8.39"
         id="path160" />
      <path
         class="cls-3"
         d="m 69.39,73.83 c -7.69,-1.9 -10.46,-2.78 -20.47,-7 a 60.83,60.83 0 0 1 -12.59,-6.7 69.53,69.53 0 0 1 -6,-4.92 71.4,71.4 0 0 1 -9.77,-11 60.48,60.48 0 0 1 -4.75,-7.91 3.42,3.42 0 0 1 -0.33,-1.13 c -0.08,-0.57 0.34,-0.89 0.89,-0.71 a 3,3 0 0 1 0.57,0.28 c 0.6,0.36 1.18,0.75 1.78,1.09 a 24.38,24.38 0 0 0 6.87,2.81 12.86,12.86 0 0 0 7.12,-0.2 6.07,6.07 0 0 0 4.07,-4 9.49,9.49 0 0 0 0,-5.36 A 8.78,8.78 0 0 0 35,25.81 20.93,20.93 0 0 0 30.18,21.64 53.87,53.87 0 0 0 23.62,18 c -3.66,-1.77 -7.34,-3.48 -11,-5.25 A 45.27,45.27 0 0 1 4.28,7.75 11.76,11.76 0 0 1 0.5,3 5.1,5.1 0 0 1 0,0.88 0.81,0.81 0 0 1 0.61,0 C 0.94,-0.08 1.16,0.06 1.4,0.55 a 5.08,5.08 0 0 0 1.5,1.9 c 0.43,0.33 0.89,0.64 1.34,0.93 a 30.85,30.85 0 0 0 7.12,3.4 52.35,52.35 0 0 0 9.79,2.22 c 4.44,0.63 8.91,0.91 13.37,1.26 3.44,0.27 6.87,0.55 10.27,1.11 a 81.54,81.54 0 0 1 17.61,5.07 51.37,51.37 0 0 1 9.41,4.92 c 1.52,1 3,2.14 4.41,3.31 a 33.25,33.25 0 0 1 5.61,5.94 31.53,31.53 0 0 1 5.7,13 c 0,0.2 0.09,0.47 0.14,0.8 0,0 0.33,1.93 0.46,4.08 A 79.65,79.65 0 0 1 87.4,61"
         id="path162"
         style="fill:url(#linearGradient747)" />
      <path
         class="cls-8"
         d="m 62.48,70 c 4.08,2.75 7,3.53 6.91,3.79"
         id="path164" />
      <path
         class="cls-4"
         d="m 87.35,57.55 a 20.3,20.3 0 0 0 -0.49,-3.26 24.21,24.21 0 0 0 -5.67,-10.37 27.83,27.83 0 0 0 -7.13,-6 c -2,-1.22 -4.09,-2.33 -6.18,-3.42 -3.29,-1.73 -6.67,-3.3 -9.8,-5.34 a 25.3,25.3 0 0 1 -4,-3.23 c -0.81,-0.81 -1.56,-1.66 -2.37,-2.46 a 4.55,4.55 0 0 0 -0.94,-0.69 c -0.33,-0.18 -0.53,-0.05 -0.55,0.31 a 1.88,1.88 0 0 0 0.07,0.63 c 0.16,0.48 0.33,0.95 0.53,1.41 a 22.27,22.27 0 0 0 4.38,6.54 c 1.52,1.65 3.11,3.24 4.65,4.87 A 19,19 0 0 1 62.51,40 7.42,7.42 0 0 1 63.6,43.57 7.75,7.75 0 0 1 63,46.48 5.74,5.74 0 0 1 57.55,50.3 12,12 0 0 1 52.86,49.4 16.53,16.53 0 0 1 46,44.56 c -0.38,-0.46 -0.75,-0.9 -1.14,-1.34 a 1.92,1.92 0 0 0 -0.5,-0.39 0.37,0.37 0 0 0 -0.6,0.32 3.36,3.36 0 0 0 0,0.84 14.67,14.67 0 0 0 0.84,3 53.07,53.07 0 0 0 3.4,7.62 32.28,32.28 0 0 0 4.37,5.79 A 94.47,94.47 0 0 0 64,71.32"
         id="path166"
         style="fill:url(#linearGradient749)" />
      <circle
         class="cls-1"
         cx="72.75"
         cy="59.490002"
         r="14.72"
         transform="rotate(-19.33,72.766591,59.490962)"
         id="circle168" />
      <circle
         class="cls-5"
         cx="72.75"
         cy="59.490002"
         r="9.9300003"
         id="circle170" />
      <line
         class="cls-6"
         x1="72.75"
         y1="59.490002"
         x2="72.75"
         y2="44.77"
         id="line172" />
      <path
         class="cls-1"
         d="M 72.75,59.49 H 58 a 14.68,14.68 0 0 0 14.75,14.72 z"
         id="path174" />
      <path
         class="cls-1"
         d="M 72.75,44.77 A 14.73,14.73 0 0 1 87.48,59.49 H 72.75 Z"
         id="path176" />
      <rect
         class="cls-7"
         x="69.220001"
         y="89.839996"
         width="16.59"
         height="3.02"
         transform="rotate(30,77.516994,91.349384)"
         id="rect178" />
      <circle
         class="cls-7"
         cx="70.330002"
         cy="87.199997"
         r="1.51"
         id="circle180" />
      <circle
         class="cls-7"
         cx="84.699997"
         cy="95.5"
         r="1.51"
         id="circle182" />
      <path
         class="cls-1"
         d="m 46.94,73.64 -2.84,4.72 3.11,3.82 6.73,-1.9 2.62,2.72 -1,4.75 5.15,3.25 3.77,-3 24.14,13.2 -0.75,5.66 3.77,1.89 4.52,-3.77 7.92,2.26 2.64,4.52 h 4.53 l 2.26,-4.52 H 118 q 1.13,2.27 2.26,4.52 h 4.15 c 0.75,-1.63 1.51,-3.26 2.26,-4.9 L 48.27,73.6"
         id="path184" />
      <path
         class="cls-1"
         d="m 49.2,66.57 a 1,1 0 0 0 -0.85,-0.2 0.65,0.65 0 0 0 -0.3,0.37 c -0.33,0.82 -1.06,1.15 -1.64,2.09 a 4.9,4.9 0 0 0 -0.66,2.11 7.12,7.12 0 0 0 1.7,4.91 28.35,28.35 0 0 0 6.55,6.83 c 17.48,11.44 41.36,23.1 43.22,24.2 a 8.84,8.84 0 0 0 1.87,0.84 10.35,10.35 0 0 0 1.75,0.38 22.86,22.86 0 0 0 3.1,0.24 h 19.14 a 19.72,19.72 0 0 0 3,-0.73 3.37,3.37 0 0 0 1.4,-0.71 3.24,3.24 0 0 0 0.77,-2.27 7,7 0 0 0 -1,-3.43 C 125.18,97.8 55.1,69 49.2,66.57 Z"
         id="path186" />
      <path
         class="cls-2"
         d="M 54.84,61.18 A 19.84,19.84 0 0 0 51.24,65 6.56,6.56 0 0 0 50,67.25 6.06,6.06 0 0 0 50.78,71.4 c 1.17,2.42 3.07,4.39 6.7,7.43 6.63,5.55 8.38,6.18 9.78,5.74 a 6.09,6.09 0 0 1 2.4,-0.66 4.9,4.9 0 0 1 2.45,0.73 c 4.43,2.52 7.58,4.35 13.88,8 A 5,5 0 0 1 88.34,95 c 0.4,1 0,1.4 0.45,2.3 0.45,0.9 1.25,1.55 3.1,2.3 5.55,2.26 4.39,2.43 8,3.58 a 21.86,21.86 0 0 0 7.06,1.3 86.5,86.5 0 0 0 15.7,0 5.81,5.81 0 0 0 4,-1.48 5.3,5.3 0 0 0 1.2,-4.11 c -0.34,-2.24 -2.18,-3.59 -3.88,-4.79 -3.07,-2.16 -6.46,-3.18 -12.13,-4.87 a 21.29,21.29 0 0 1 -6.19,-3 84.22,84.22 0 0 1 -10.77,-11.9 c -0.58,-0.8 -1,-1.48 -1.13,-1.6 a 68.12,68.12 0 0 1 -6,-11 c -0.34,-0.81 -0.58,-1.37 -0.87,-2.21 a 32.8,32.8 0 0 1 -1.79,-8.39"
         id="path188" />
      <path
         class="cls-3"
         d="m 69.39,73.83 c -7.69,-1.9 -10.46,-2.78 -20.47,-7 a 60.83,60.83 0 0 1 -12.59,-6.7 69.53,69.53 0 0 1 -6,-4.92 71.4,71.4 0 0 1 -9.77,-11 60.48,60.48 0 0 1 -4.75,-7.91 3.42,3.42 0 0 1 -0.33,-1.13 c -0.08,-0.57 0.34,-0.89 0.89,-0.71 a 3,3 0 0 1 0.57,0.28 c 0.6,0.36 1.18,0.75 1.78,1.09 a 24.38,24.38 0 0 0 6.87,2.81 12.86,12.86 0 0 0 7.12,-0.2 6.07,6.07 0 0 0 4.07,-4 9.49,9.49 0 0 0 0,-5.36 A 8.78,8.78 0 0 0 35,25.81 20.93,20.93 0 0 0 30.18,21.64 53.87,53.87 0 0 0 23.62,18 c -3.66,-1.77 -7.34,-3.48 -11,-5.25 A 45.27,45.27 0 0 1 4.28,7.75 11.76,11.76 0 0 1 0.5,3 5.1,5.1 0 0 1 0,0.88 0.81,0.81 0 0 1 0.61,0 C 0.94,-0.08 1.16,0.06 1.4,0.55 a 5.08,5.08 0 0 0 1.5,1.9 c 0.43,0.33 0.89,0.64 1.34,0.93 a 30.85,30.85 0 0 0 7.12,3.4 52.35,52.35 0 0 0 9.79,2.22 c 4.44,0.63 8.91,0.91 13.37,1.26 3.44,0.27 6.87,0.55 10.27,1.11 a 81.54,81.54 0 0 1 17.61,5.07 51.37,51.37 0 0 1 9.41,4.92 c 1.52,1 3,2.14 4.41,3.31 a 33.25,33.25 0 0 1 5.61,5.94 31.53,31.53 0 0 1 5.7,13 c 0,0.2 0.09,0.47 0.14,0.8 0,0 0.33,1.93 0.46,4.08 A 79.65,79.65 0 0 1 87.4,61"
         id="path190"
         style="fill:url(#linearGradient751)" />
      <path
         class="cls-8"
         d="m 62.48,70 c 4.08,2.75 7,3.53 6.91,3.79"
         id="path192" />
      <path
         class="cls-4"
         d="m 87.35,57.55 a 20.3,20.3 0 0 0 -0.49,-3.26 24.21,24.21 0 0 0 -5.67,-10.37 27.83,27.83 0 0 0 -7.13,-6 c -2,-1.22 -4.09,-2.33 -6.18,-3.42 -3.29,-1.73 -6.67,-3.3 -9.8,-5.34 a 25.3,25.3 0 0 1 -4,-3.23 c -0.81,-0.81 -1.56,-1.66 -2.37,-2.46 a 4.55,4.55 0 0 0 -0.94,-0.69 c -0.33,-0.18 -0.53,-0.05 -0.55,0.31 a 1.88,1.88 0 0 0 0.07,0.63 c 0.16,0.48 0.33,0.95 0.53,1.41 a 22.27,22.27 0 0 0 4.38,6.54 c 1.52,1.65 3.11,3.24 4.65,4.87 A 19,19 0 0 1 62.51,40 7.42,7.42 0 0 1 63.6,43.57 7.75,7.75 0 0 1 63,46.48 5.74,5.74 0 0 1 57.55,50.3 12,12 0 0 1 52.86,49.4 16.53,16.53 0 0 1 46,44.56 c -0.38,-0.46 -0.75,-0.9 -1.14,-1.34 a 1.92,1.92 0 0 0 -0.5,-0.39 0.37,0.37 0 0 0 -0.6,0.32 3.36,3.36 0 0 0 0,0.84 14.67,14.67 0 0 0 0.84,3 53.07,53.07 0 0 0 3.4,7.62 32.28,32.28 0 0 0 4.37,5.79 A 94.47,94.47 0 0 0 64,71.32"
         id="path194"
         style="fill:url(#linearGradient753)" />
      <circle
         class="cls-1"
         cx="72.75"
         cy="59.490002"
         r="14.72"
         transform="rotate(-19.33,72.766591,59.490962)"
         id="circle196" />
      <circle
         class="cls-5"
         cx="72.75"
         cy="59.490002"
         r="9.9300003"
         id="circle198" />
      <line
         class="cls-6"
         x1="72.75"
         y1="59.490002"
         x2="72.75"
         y2="44.77"
         id="line200" />
      <path
         class="cls-1"
         d="M 72.75,59.49 H 58 a 14.68,14.68 0 0 0 14.75,14.72 z"
         id="path202" />
      <path
         class="cls-1"
         d="M 72.75,44.77 A 14.73,14.73 0 0 1 87.48,59.49 H 72.75 Z"
         id="path204" />
      <rect
         class="cls-7"
         x="69.220001"
         y="89.839996"
         width="16.59"
         height="3.02"
         transform="rotate(30,77.516994,91.349384)"
         id="rect206" />
      <circle
         class="cls-7"
         cx="70.330002"
         cy="87.199997"
         r="1.51"
         id="circle208" />
      <circle
         class="cls-7"
         cx="84.699997"
         cy="95.5"
         r="1.51"
         id="circle210" />
      <path
         class="cls-1"
         d="m 46.94,73.64 -2.84,4.72 3.11,3.82 6.73,-1.9 2.62,2.72 -1,4.75 5.15,3.25 3.77,-3 24.14,13.2 -0.75,5.66 3.77,1.89 4.52,-3.77 7.92,2.26 2.64,4.52 h 4.53 l 2.26,-4.52 H 118 q 1.13,2.27 2.26,4.52 h 4.15 c 0.75,-1.63 1.51,-3.26 2.26,-4.9 L 48.27,73.6"
         id="path212" />
      <path
         class="cls-1"
         d="m 49.2,66.57 a 1,1 0 0 0 -0.85,-0.2 0.65,0.65 0 0 0 -0.3,0.37 c -0.33,0.82 -1.06,1.15 -1.64,2.09 a 4.9,4.9 0 0 0 -0.66,2.11 7.12,7.12 0 0 0 1.7,4.91 28.35,28.35 0 0 0 6.55,6.83 c 17.48,11.44 41.36,23.1 43.22,24.2 a 8.84,8.84 0 0 0 1.87,0.84 10.35,10.35 0 0 0 1.75,0.38 22.86,22.86 0 0 0 3.1,0.24 h 19.14 a 19.72,19.72 0 0 0 3,-0.73 3.37,3.37 0 0 0 1.4,-0.71 3.24,3.24 0 0 0 0.77,-2.27 7,7 0 0 0 -1,-3.43 C 125.18,97.8 55.1,69 49.2,66.57 Z"
         id="path214" />
      <path
         class="cls-2"
         d="M 54.84,61.18 A 19.84,19.84 0 0 0 51.24,65 6.56,6.56 0 0 0 50,67.25 6.06,6.06 0 0 0 50.78,71.4 c 1.17,2.42 3.07,4.39 6.7,7.43 6.63,5.55 8.38,6.18 9.78,5.74 a 6.09,6.09 0 0 1 2.4,-0.66 4.9,4.9 0 0 1 2.45,0.73 c 4.43,2.52 7.58,4.35 13.88,8 A 5,5 0 0 1 88.34,95 c 0.4,1 0,1.4 0.45,2.3 0.45,0.9 1.25,1.55 3.1,2.3 5.55,2.26 4.39,2.43 8,3.58 a 21.86,21.86 0 0 0 7.06,1.3 86.5,86.5 0 0 0 15.7,0 5.81,5.81 0 0 0 4,-1.48 5.3,5.3 0 0 0 1.2,-4.11 c -0.34,-2.24 -2.18,-3.59 -3.88,-4.79 -3.07,-2.16 -6.46,-3.18 -12.13,-4.87 a 21.29,21.29 0 0 1 -6.19,-3 84.22,84.22 0 0 1 -10.77,-11.9 c -0.58,-0.8 -1,-1.48 -1.13,-1.6 a 68.12,68.12 0 0 1 -6,-11 c -0.34,-0.81 -0.58,-1.37 -0.87,-2.21 a 32.8,32.8 0 0 1 -1.79,-8.39"
         id="path216" />
      <path
         class="cls-3"
         d="m 69.39,73.83 c -7.69,-1.9 -10.46,-2.78 -20.47,-7 a 60.83,60.83 0 0 1 -12.59,-6.7 69.53,69.53 0 0 1 -6,-4.92 71.4,71.4 0 0 1 -9.77,-11 60.48,60.48 0 0 1 -4.75,-7.91 3.42,3.42 0 0 1 -0.33,-1.13 c -0.08,-0.57 0.34,-0.89 0.89,-0.71 a 3,3 0 0 1 0.57,0.28 c 0.6,0.36 1.18,0.75 1.78,1.09 a 24.38,24.38 0 0 0 6.87,2.81 12.86,12.86 0 0 0 7.12,-0.2 6.07,6.07 0 0 0 4.07,-4 9.49,9.49 0 0 0 0,-5.36 A 8.78,8.78 0 0 0 35,25.81 20.93,20.93 0 0 0 30.18,21.64 53.87,53.87 0 0 0 23.62,18 c -3.66,-1.77 -7.34,-3.48 -11,-5.25 A 45.27,45.27 0 0 1 4.28,7.75 11.76,11.76 0 0 1 0.5,3 5.1,5.1 0 0 1 0,0.88 0.81,0.81 0 0 1 0.61,0 C 0.94,-0.08 1.16,0.06 1.4,0.55 a 5.08,5.08 0 0 0 1.5,1.9 c 0.43,0.33 0.89,0.64 1.34,0.93 a 30.85,30.85 0 0 0 7.12,3.4 52.35,52.35 0 0 0 9.79,2.22 c 4.44,0.63 8.91,0.91 13.37,1.26 3.44,0.27 6.87,0.55 10.27,1.11 a 81.54,81.54 0 0 1 17.61,5.07 51.37,51.37 0 0 1 9.41,4.92 c 1.52,1 3,2.14 4.41,3.31 a 33.25,33.25 0 0 1 5.61,5.94 31.53,31.53 0 0 1 5.7,13 c 0,0.2 0.09,0.47 0.14,0.8 0,0 0.33,1.93 0.46,4.08 A 79.65,79.65 0 0 1 87.4,61"
         id="path218"
         style="fill:url(#linearGradient755)" />
      <path
         class="cls-8"
         d="m 62.48,70 c 4.08,2.75 7,3.53 6.91,3.79"
         id="path220" />
      <path
         class="cls-4"
         d="m 87.35,57.55 a 20.3,20.3 0 0 0 -0.49,-3.26 24.21,24.21 0 0 0 -5.67,-10.37 27.83,27.83 0 0 0 -7.13,-6 c -2,-1.22 -4.09,-2.33 -6.18,-3.42 -3.29,-1.73 -6.67,-3.3 -9.8,-5.34 a 25.3,25.3 0 0 1 -4,-3.23 c -0.81,-0.81 -1.56,-1.66 -2.37,-2.46 a 4.55,4.55 0 0 0 -0.94,-0.69 c -0.33,-0.18 -0.53,-0.05 -0.55,0.31 a 1.88,1.88 0 0 0 0.07,0.63 c 0.16,0.48 0.33,0.95 0.53,1.41 a 22.27,22.27 0 0 0 4.38,6.54 c 1.52,1.65 3.11,3.24 4.65,4.87 A 19,19 0 0 1 62.51,40 7.42,7.42 0 0 1 63.6,43.57 7.75,7.75 0 0 1 63,46.48 5.74,5.74 0 0 1 57.55,50.3 12,12 0 0 1 52.86,49.4 16.53,16.53 0 0 1 46,44.56 c -0.38,-0.46 -0.75,-0.9 -1.14,-1.34 a 1.92,1.92 0 0 0 -0.5,-0.39 0.37,0.37 0 0 0 -0.6,0.32 3.36,3.36 0 0 0 0,0.84 14.67,14.67 0 0 0 0.84,3 53.07,53.07 0 0 0 3.4,7.62 32.28,32.28 0 0 0 4.37,5.79 A 94.47,94.47 0 0 0 64,71.32"
         id="path222"
         style="fill:url(#linearGradient757)" />
      <circle
         class="cls-1"
         cx="72.75"
         cy="59.490002"
         r="14.72"
         transform="rotate(-19.33,72.766591,59.490962)"
         id="circle224" />
      <circle
         class="cls-5"
         cx="72.75"
         cy="59.490002"
         r="9.9300003"
         id="circle226" />
      <line
         class="cls-6"
         x1="72.75"
         y1="59.490002"
         x2="72.75"
         y2="44.77"
         id="line228" />
      <path
         class="cls-1"
         d="M 72.75,59.49 H 58 a 14.68,14.68 0 0 0 14.75,14.72 z"
         id="path230" />
      <path
         class="cls-1"
         d="M 72.75,44.77 A 14.73,14.73 0 0 1 87.48,59.49 H 72.75 Z"
         id="path232" />
      <rect
         class="cls-7"
         x="69.220001"
         y="89.839996"
         width="16.59"
         height="3.02"
         transform="rotate(30,77.516994,91.349384)"
         id="rect234" />
      <circle
         class="cls-7"
         cx="70.330002"
         cy="87.199997"
         r="1.51"
         id="circle236" />
      <circle
         class="cls-7"
         cx="84.699997"
         cy="95.5"
         r="1.51"
         id="circle238" />
      <path
         class="cls-1"
         d="m 46.94,73.64 -2.84,4.72 3.11,3.82 6.73,-1.9 2.62,2.72 -1,4.75 5.15,3.25 3.77,-3 24.14,13.2 -0.75,5.66 3.77,1.89 4.52,-3.77 7.92,2.26 2.64,4.52 h 4.53 l 2.26,-4.52 H 118 q 1.13,2.27 2.26,4.52 h 4.15 c 0.75,-1.63 1.51,-3.26 2.26,-4.9 L 48.27,73.6"
         id="path240" />
      <path
         class="cls-1"
         d="m 49.2,66.57 a 1,1 0 0 0 -0.85,-0.2 0.65,0.65 0 0 0 -0.3,0.37 c -0.33,0.82 -1.06,1.15 -1.64,2.09 a 4.9,4.9 0 0 0 -0.66,2.11 7.12,7.12 0 0 0 1.7,4.91 28.35,28.35 0 0 0 6.55,6.83 c 17.48,11.44 41.36,23.1 43.22,24.2 a 8.84,8.84 0 0 0 1.87,0.84 10.35,10.35 0 0 0 1.75,0.38 22.86,22.86 0 0 0 3.1,0.24 h 19.14 a 19.72,19.72 0 0 0 3,-0.73 3.37,3.37 0 0 0 1.4,-0.71 3.24,3.24 0 0 0 0.77,-2.27 7,7 0 0 0 -1,-3.43 C 125.18,97.8 55.1,69 49.2,66.57 Z"
         id="path242" />
      <path
         class="cls-2"
         d="M 54.84,61.18 A 19.84,19.84 0 0 0 51.24,65 6.56,6.56 0 0 0 50,67.25 6.06,6.06 0 0 0 50.78,71.4 c 1.17,2.42 3.07,4.39 6.7,7.43 6.63,5.55 8.38,6.18 9.78,5.74 a 6.09,6.09 0 0 1 2.4,-0.66 4.9,4.9 0 0 1 2.45,0.73 c 4.43,2.52 7.58,4.35 13.88,8 A 5,5 0 0 1 88.34,95 c 0.4,1 0,1.4 0.45,2.3 0.45,0.9 1.25,1.55 3.1,2.3 5.55,2.26 4.39,2.43 8,3.58 a 21.86,21.86 0 0 0 7.06,1.3 86.5,86.5 0 0 0 15.7,0 5.81,5.81 0 0 0 4,-1.48 5.3,5.3 0 0 0 1.2,-4.11 c -0.34,-2.24 -2.18,-3.59 -3.88,-4.79 -3.07,-2.16 -6.46,-3.18 -12.13,-4.87 a 21.29,21.29 0 0 1 -6.19,-3 84.22,84.22 0 0 1 -10.77,-11.9 c -0.58,-0.8 -1,-1.48 -1.13,-1.6 a 68.12,68.12 0 0 1 -6,-11 c -0.34,-0.81 -0.58,-1.37 -0.87,-2.21 a 32.8,32.8 0 0 1 -1.79,-8.39"
         id="path244" />
      <path
         class="cls-3"
         d="m 69.39,73.83 c -7.69,-1.9 -10.46,-2.78 -20.47,-7 a 60.83,60.83 0 0 1 -12.59,-6.7 69.53,69.53 0 0 1 -6,-4.92 71.4,71.4 0 0 1 -9.77,-11 60.48,60.48 0 0 1 -4.75,-7.91 3.42,3.42 0 0 1 -0.33,-1.13 c -0.08,-0.57 0.34,-0.89 0.89,-0.71 a 3,3 0 0 1 0.57,0.28 c 0.6,0.36 1.18,0.75 1.78,1.09 a 24.38,24.38 0 0 0 6.87,2.81 12.86,12.86 0 0 0 7.12,-0.2 6.07,6.07 0 0 0 4.07,-4 9.49,9.49 0 0 0 0,-5.36 A 8.78,8.78 0 0 0 35,25.81 20.93,20.93 0 0 0 30.18,21.64 53.87,53.87 0 0 0 23.62,18 c -3.66,-1.77 -7.34,-3.48 -11,-5.25 A 45.27,45.27 0 0 1 4.28,7.75 11.76,11.76 0 0 1 0.5,3 5.1,5.1 0 0 1 0,0.88 0.81,0.81 0 0 1 0.61,0 C 0.94,-0.08 1.16,0.06 1.4,0.55 a 5.08,5.08 0 0 0 1.5,1.9 c 0.43,0.33 0.89,0.64 1.34,0.93 a 30.85,30.85 0 0 0 7.12,3.4 52.35,52.35 0 0 0 9.79,2.22 c 4.44,0.63 8.91,0.91 13.37,1.26 3.44,0.27 6.87,0.55 10.27,1.11 a 81.54,81.54 0 0 1 17.61,5.07 51.37,51.37 0 0 1 9.41,4.92 c 1.52,1 3,2.14 4.41,3.31 a 33.25,33.25 0 0 1 5.61,5.94 31.53,31.53 0 0 1 5.7,13 c 0,0.2 0.09,0.47 0.14,0.8 0,0 0.33,1.93 0.46,4.08 A 79.65,79.65 0 0 1 87.4,61"
         id="path246"
         style="fill:url(#linearGradient759)" />
      <path
         class="cls-8"
         d="m 62.48,70 c 4.08,2.75 7,3.53 6.91,3.79"
         id="path248" />
      <path
         class="cls-4"
         d="m 87.35,57.55 a 20.3,20.3 0 0 0 -0.49,-3.26 24.21,24.21 0 0 0 -5.67,-10.37 27.83,27.83 0 0 0 -7.13,-6 c -2,-1.22 -4.09,-2.33 -6.18,-3.42 -3.29,-1.73 -6.67,-3.3 -9.8,-5.34 a 25.3,25.3 0 0 1 -4,-3.23 c -0.81,-0.81 -1.56,-1.66 -2.37,-2.46 a 4.55,4.55 0 0 0 -0.94,-0.69 c -0.33,-0.18 -0.53,-0.05 -0.55,0.31 a 1.88,1.88 0 0 0 0.07,0.63 c 0.16,0.48 0.33,0.95 0.53,1.41 a 22.27,22.27 0 0 0 4.38,6.54 c 1.52,1.65 3.11,3.24 4.65,4.87 A 19,19 0 0 1 62.51,40 7.42,7.42 0 0 1 63.6,43.57 7.75,7.75 0 0 1 63,46.48 5.74,5.74 0 0 1 57.55,50.3 12,12 0 0 1 52.86,49.4 16.53,16.53 0 0 1 46,44.56 c -0.38,-0.46 -0.75,-0.9 -1.14,-1.34 a 1.92,1.92 0 0 0 -0.5,-0.39 0.37,0.37 0 0 0 -0.6,0.32 3.36,3.36 0 0 0 0,0.84 14.67,14.67 0 0 0 0.84,3 53.07,53.07 0 0 0 3.4,7.62 32.28,32.28 0 0 0 4.37,5.79 A 94.47,94.47 0 0 0 64,71.32"
         id="path250"
         style="fill:url(#linearGradient761)" />
      <circle
         class="cls-1"
         cx="72.75"
         cy="59.490002"
         r="14.72"
         transform="rotate(-19.33,72.766591,59.490962)"
         id="circle252" />
      <circle
         class="cls-5"
         cx="72.75"
         cy="59.490002"
         r="9.9300003"
         id="circle254" />
      <line
         class="cls-6"
         x1="72.75"
         y1="59.490002"
         x2="72.75"
         y2="44.77"
         id="line256" />
      <path
         class="cls-1"
         d="M 72.75,59.49 H 58 a 14.68,14.68 0 0 0 14.75,14.72 z"
         id="path258" />
      <path
         class="cls-1"
         d="M 72.75,44.77 A 14.73,14.73 0 0 1 87.48,59.49 H 72.75 Z"
         id="path260" />
      <rect
         class="cls-7"
         x="69.220001"
         y="89.839996"
         width="16.59"
         height="3.02"
         transform="rotate(30,77.516994,91.349384)"
         id="rect262" />
      <circle
         class="cls-7"
         cx="70.330002"
         cy="87.199997"
         r="1.51"
         id="circle264" />
      <circle
         class="cls-7"
         cx="84.699997"
         cy="95.5"
         r="1.51"
         id="circle266" />
      <path
         class="cls-1"
         d="m 46.94,73.64 -2.84,4.72 3.11,3.82 6.73,-1.9 2.62,2.72 -1,4.75 5.15,3.25 3.77,-3 24.14,13.2 -0.75,5.66 3.77,1.89 4.52,-3.77 7.92,2.26 2.64,4.52 h 4.53 l 2.26,-4.52 H 118 q 1.13,2.27 2.26,4.52 h 4.15 c 0.75,-1.63 1.51,-3.26 2.26,-4.9 L 48.27,73.6"
         id="path268" />
      <path
         class="cls-1"
         d="m 49.2,66.57 a 1,1 0 0 0 -0.85,-0.2 0.65,0.65 0 0 0 -0.3,0.37 c -0.33,0.82 -1.06,1.15 -1.64,2.09 a 4.9,4.9 0 0 0 -0.66,2.11 7.12,7.12 0 0 0 1.7,4.91 28.35,28.35 0 0 0 6.55,6.83 c 17.48,11.44 41.36,23.1 43.22,24.2 a 8.84,8.84 0 0 0 1.87,0.84 10.35,10.35 0 0 0 1.75,0.38 22.86,22.86 0 0 0 3.1,0.24 h 19.14 a 19.72,19.72 0 0 0 3,-0.73 3.37,3.37 0 0 0 1.4,-0.71 3.24,3.24 0 0 0 0.77,-2.27 7,7 0 0 0 -1,-3.43 C 125.18,97.8 55.1,69 49.2,66.57 Z"
         id="path270" />
      <path
         class="cls-2"
         d="M 54.84,61.18 A 19.84,19.84 0 0 0 51.24,65 6.56,6.56 0 0 0 50,67.25 6.06,6.06 0 0 0 50.78,71.4 c 1.17,2.42 3.07,4.39 6.7,7.43 6.63,5.55 8.38,6.18 9.78,5.74 a 6.09,6.09 0 0 1 2.4,-0.66 4.9,4.9 0 0 1 2.45,0.73 c 4.43,2.52 7.58,4.35 13.88,8 A 5,5 0 0 1 88.34,95 c 0.4,1 0,1.4 0.45,2.3 0.45,0.9 1.25,1.55 3.1,2.3 5.55,2.26 4.39,2.43 8,3.58 a 21.86,21.86 0 0 0 7.06,1.3 86.5,86.5 0 0 0 15.7,0 5.81,5.81 0 0 0 4,-1.48 5.3,5.3 0 0 0 1.2,-4.11 c -0.34,-2.24 -2.18,-3.59 -3.88,-4.79 -3.07,-2.16 -6.46,-3.18 -12.13,-4.87 a 21.29,21.29 0 0 1 -6.19,-3 84.22,84.22 0 0 1 -10.77,-11.9 c -0.58,-0.8 -1,-1.48 -1.13,-1.6 a 68.12,68.12 0 0 1 -6,-11 c -0.34,-0.81 -0.58,-1.37 -0.87,-2.21 a 32.8,32.8 0 0 1 -1.79,-8.39"
         id="path272" />
      <path
         class="cls-3"
         d="m 69.39,73.83 c -7.69,-1.9 -10.46,-2.78 -20.47,-7 a 60.83,60.83 0 0 1 -12.59,-6.7 69.53,69.53 0 0 1 -6,-4.92 71.4,71.4 0 0 1 -9.77,-11 60.48,60.48 0 0 1 -4.75,-7.91 3.42,3.42 0 0 1 -0.33,-1.13 c -0.08,-0.57 0.34,-0.89 0.89,-0.71 a 3,3 0 0 1 0.57,0.28 c 0.6,0.36 1.18,0.75 1.78,1.09 a 24.38,24.38 0 0 0 6.87,2.81 12.86,12.86 0 0 0 7.12,-0.2 6.07,6.07 0 0 0 4.07,-4 9.49,9.49 0 0 0 0,-5.36 A 8.78,8.78 0 0 0 35,25.81 20.93,20.93 0 0 0 30.18,21.64 53.87,53.87 0 0 0 23.62,18 c -3.66,-1.77 -7.34,-3.48 -11,-5.25 A 45.27,45.27 0 0 1 4.28,7.75 11.76,11.76 0 0 1 0.5,3 5.1,5.1 0 0 1 0,0.88 0.81,0.81 0 0 1 0.61,0 C 0.94,-0.08 1.16,0.06 1.4,0.55 a 5.08,5.08 0 0 0 1.5,1.9 c 0.43,0.33 0.89,0.64 1.34,0.93 a 30.85,30.85 0 0 0 7.12,3.4 52.35,52.35 0 0 0 9.79,2.22 c 4.44,0.63 8.91,0.91 13.37,1.26 3.44,0.27 6.87,0.55 10.27,1.11 a 81.54,81.54 0 0 1 17.61,5.07 51.37,51.37 0 0 1 9.41,4.92 c 1.52,1 3,2.14 4.41,3.31 a 33.25,33.25 0 0 1 5.61,5.94 31.53,31.53 0 0 1 5.7,13 c 0,0.2 0.09,0.47 0.14,0.8 0,0 0.33,1.93 0.46,4.08 A 79.65,79.65 0 0 1 87.4,61"
         id="path274"
         style="fill:url(#linearGradient763)" />
      <path
         class="cls-8"
         d="m 62.48,70 c 4.08,2.75 7,3.53 6.91,3.79"
         id="path276" />
      <path
         class="cls-4"
         d="m 87.35,57.55 a 20.3,20.3 0 0 0 -0.49,-3.26 24.21,24.21 0 0 0 -5.67,-10.37 27.83,27.83 0 0 0 -7.13,-6 c -2,-1.22 -4.09,-2.33 -6.18,-3.42 -3.29,-1.73 -6.67,-3.3 -9.8,-5.34 a 25.3,25.3 0 0 1 -4,-3.23 c -0.81,-0.81 -1.56,-1.66 -2.37,-2.46 a 4.55,4.55 0 0 0 -0.94,-0.69 c -0.33,-0.18 -0.53,-0.05 -0.55,0.31 a 1.88,1.88 0 0 0 0.07,0.63 c 0.16,0.48 0.33,0.95 0.53,1.41 a 22.27,22.27 0 0 0 4.38,6.54 c 1.52,1.65 3.11,3.24 4.65,4.87 A 19,19 0 0 1 62.51,40 7.42,7.42 0 0 1 63.6,43.57 7.75,7.75 0 0 1 63,46.48 5.74,5.74 0 0 1 57.55,50.3 12,12 0 0 1 52.86,49.4 16.53,16.53 0 0 1 46,44.56 c -0.38,-0.46 -0.75,-0.9 -1.14,-1.34 a 1.92,1.92 0 0 0 -0.5,-0.39 0.37,0.37 0 0 0 -0.6,0.32 3.36,3.36 0 0 0 0,0.84 14.67,14.67 0 0 0 0.84,3 53.07,53.07 0 0 0 3.4,7.62 32.28,32.28 0 0 0 4.37,5.79 A 94.47,94.47 0 0 0 64,71.32"
         id="path278"
         style="fill:url(#linearGradient765)" />
      <circle
         class="cls-1"
         cx="72.75"
         cy="59.490002"
         r="14.72"
         transform="rotate(-19.33,72.766591,59.490962)"
         id="circle280" />
      <circle
         class="cls-5"
         cx="72.75"
         cy="59.490002"
         r="9.9300003"
         id="circle282" />
      <line
         class="cls-6"
         x1="72.75"
         y1="59.490002"
         x2="72.75"
         y2="44.77"
         id="line284" />
      <path
         class="cls-1"
         d="M 72.75,59.49 H 58 a 14.68,14.68 0 0 0 14.75,14.72 z"
         id="path286" />
      <path
         class="cls-1"
         d="M 72.75,44.77 A 14.73,14.73 0 0 1 87.48,59.49 H 72.75 Z"
         id="path288" />
      <rect
         class="cls-7"
         x="69.220001"
         y="89.839996"
         width="16.59"
         height="3.02"
         transform="rotate(30,77.516994,91.349384)"
         id="rect290" />
      <circle
         class="cls-7"
         cx="70.330002"
         cy="87.199997"
         r="1.51"
         id="circle292" />
      <circle
         class="cls-7"
         cx="84.699997"
         cy="95.5"
         r="1.51"
         id="circle294" />
      <path
         class="cls-1"
         d="m 46.94,73.64 -2.84,4.72 3.11,3.82 6.73,-1.9 2.62,2.72 -1,4.75 5.15,3.25 3.77,-3 24.14,13.2 -0.75,5.66 3.77,1.89 4.52,-3.77 7.92,2.26 2.64,4.52 h 4.53 l 2.26,-4.52 H 118 q 1.13,2.27 2.26,4.52 h 4.15 c 0.75,-1.63 1.51,-3.26 2.26,-4.9 L 48.27,73.6"
         id="path296" />
      <path
         class="cls-1"
         d="m 49.2,66.57 a 1,1 0 0 0 -0.85,-0.2 0.65,0.65 0 0 0 -0.3,0.37 c -0.33,0.82 -1.06,1.15 -1.64,2.09 a 4.9,4.9 0 0 0 -0.66,2.11 7.12,7.12 0 0 0 1.7,4.91 28.35,28.35 0 0 0 6.55,6.83 c 17.48,11.44 41.36,23.1 43.22,24.2 a 8.84,8.84 0 0 0 1.87,0.84 10.35,10.35 0 0 0 1.75,0.38 22.86,22.86 0 0 0 3.1,0.24 h 19.14 a 19.72,19.72 0 0 0 3,-0.73 3.37,3.37 0 0 0 1.4,-0.71 3.24,3.24 0 0 0 0.77,-2.27 7,7 0 0 0 -1,-3.43 C 125.18,97.8 55.1,69 49.2,66.57 Z"
         id="path298" />
      <path
         class="cls-2"
         d="M 54.84,61.18 A 19.84,19.84 0 0 0 51.24,65 6.56,6.56 0 0 0 50,67.25 6.06,6.06 0 0 0 50.78,71.4 c 1.17,2.42 3.07,4.39 6.7,7.43 6.63,5.55 8.38,6.18 9.78,5.74 a 6.09,6.09 0 0 1 2.4,-0.66 4.9,4.9 0 0 1 2.45,0.73 c 4.43,2.52 7.58,4.35 13.88,8 A 5,5 0 0 1 88.34,95 c 0.4,1 0,1.4 0.45,2.3 0.45,0.9 1.25,1.55 3.1,2.3 5.55,2.26 4.39,2.43 8,3.58 a 21.86,21.86 0 0 0 7.06,1.3 86.5,86.5 0 0 0 15.7,0 5.81,5.81 0 0 0 4,-1.48 5.3,5.3 0 0 0 1.2,-4.11 c -0.34,-2.24 -2.18,-3.59 -3.88,-4.79 -3.07,-2.16 -6.46,-3.18 -12.13,-4.87 a 21.29,21.29 0 0 1 -6.19,-3 84.22,84.22 0 0 1 -10.77,-11.9 c -0.58,-0.8 -1,-1.48 -1.13,-1.6 a 68.12,68.12 0 0 1 -6,-11 c -0.34,-0.81 -0.58,-1.37 -0.87,-2.21 a 32.8,32.8 0 0 1 -1.79,-8.39"
         id="path300" />
      <path
         class="cls-3"
         d="m 69.39,73.83 c -7.69,-1.9 -10.46,-2.78 -20.47,-7 a 60.83,60.83 0 0 1 -12.59,-6.7 69.53,69.53 0 0 1 -6,-4.92 71.4,71.4 0 0 1 -9.77,-11 60.48,60.48 0 0 1 -4.75,-7.91 3.42,3.42 0 0 1 -0.33,-1.13 c -0.08,-0.57 0.34,-0.89 0.89,-0.71 a 3,3 0 0 1 0.57,0.28 c 0.6,0.36 1.18,0.75 1.78,1.09 a 24.38,24.38 0 0 0 6.87,2.81 12.86,12.86 0 0 0 7.12,-0.2 6.07,6.07 0 0 0 4.07,-4 9.49,9.49 0 0 0 0,-5.36 A 8.78,8.78 0 0 0 35,25.81 20.93,20.93 0 0 0 30.18,21.64 53.87,53.87 0 0 0 23.62,18 c -3.66,-1.77 -7.34,-3.48 -11,-5.25 A 45.27,45.27 0 0 1 4.28,7.75 11.76,11.76 0 0 1 0.5,3 5.1,5.1 0 0 1 0,0.88 0.81,0.81 0 0 1 0.61,0 C 0.94,-0.08 1.16,0.06 1.4,0.55 a 5.08,5.08 0 0 0 1.5,1.9 c 0.43,0.33 0.89,0.64 1.34,0.93 a 30.85,30.85 0 0 0 7.12,3.4 52.35,52.35 0 0 0 9.79,2.22 c 4.44,0.63 8.91,0.91 13.37,1.26 3.44,0.27 6.87,0.55 10.27,1.11 a 81.54,81.54 0 0 1 17.61,5.07 51.37,51.37 0 0 1 9.41,4.92 c 1.52,1 3,2.14 4.41,3.31 a 33.25,33.25 0 0 1 5.61,5.94 31.53,31.53 0 0 1 5.7,13 c 0,0.2 0.09,0.47 0.14,0.8 0,0 0.33,1.93 0.46,4.08 A 79.65,79.65 0 0 1 87.4,61"
         id="path302"
         style="fill:url(#linearGradient767)" />
      <path
         class="cls-8"
         d="m 62.48,70 c 4.08,2.75 7,3.53 6.91,3.79"
         id="path304" />
      <path
         class="cls-4"
         d="m 87.35,57.55 a 20.3,20.3 0 0 0 -0.49,-3.26 24.21,24.21 0 0 0 -5.67,-10.37 27.83,27.83 0 0 0 -7.13,-6 c -2,-1.22 -4.09,-2.33 -6.18,-3.42 -3.29,-1.73 -6.67,-3.3 -9.8,-5.34 a 25.3,25.3 0 0 1 -4,-3.23 c -0.81,-0.81 -1.56,-1.66 -2.37,-2.46 a 4.55,4.55 0 0 0 -0.94,-0.69 c -0.33,-0.18 -0.53,-0.05 -0.55,0.31 a 1.88,1.88 0 0 0 0.07,0.63 c 0.16,0.48 0.33,0.95 0.53,1.41 a 22.27,22.27 0 0 0 4.38,6.54 c 1.52,1.65 3.11,3.24 4.65,4.87 A 19,19 0 0 1 62.51,40 7.42,7.42 0 0 1 63.6,43.57 7.75,7.75 0 0 1 63,46.48 5.74,5.74 0 0 1 57.55,50.3 12,12 0 0 1 52.86,49.4 16.53,16.53 0 0 1 46,44.56 c -0.38,-0.46 -0.75,-0.9 -1.14,-1.34 a 1.92,1.92 0 0 0 -0.5,-0.39 0.37,0.37 0 0 0 -0.6,0.32 3.36,3.36 0 0 0 0,0.84 14.67,14.67 0 0 0 0.84,3 53.07,53.07 0 0 0 3.4,7.62 32.28,32.28 0 0 0 4.37,5.79 A 94.47,94.47 0 0 0 64,71.32"
         id="path306"
         style="fill:url(#linearGradient769)" />
      <circle
         class="cls-1"
         cx="72.75"
         cy="59.490002"
         r="14.72"
         transform="rotate(-19.33,72.766591,59.490962)"
         id="circle308" />
      <circle
         class="cls-5"
         cx="72.75"
         cy="59.490002"
         r="9.9300003"
         id="circle310" />
      <line
         class="cls-6"
         x1="72.75"
         y1="59.490002"
         x2="72.75"
         y2="44.77"
         id="line312" />
      <path
         class="cls-1"
         d="M 72.75,59.49 H 58 a 14.68,14.68 0 0 0 14.75,14.72 z"
         id="path314" />
      <path
         class="cls-1"
         d="M 72.75,44.77 A 14.73,14.73 0 0 1 87.48,59.49 H 72.75 Z"
         id="path316" />
      <rect
         class="cls-7"
         x="69.220001"
         y="89.839996"
         width="16.59"
         height="3.02"
         transform="rotate(30,77.516994,91.349384)"
         id="rect318" />
      <circle
         class="cls-7"
         cx="70.330002"
         cy="87.199997"
         r="1.51"
         id="circle320" />
      <circle
         class="cls-7"
         cx="84.699997"
         cy="95.5"
         r="1.51"
         id="circle322" />
      <path
         class="cls-1"
         d="m 46.94,73.64 -2.84,4.72 3.11,3.82 6.73,-1.9 2.62,2.72 -1,4.75 5.15,3.25 3.77,-3 24.14,13.2 -0.75,5.66 3.77,1.89 4.52,-3.77 7.92,2.26 2.64,4.52 h 4.53 l 2.26,-4.52 H 118 q 1.13,2.27 2.26,4.52 h 4.15 c 0.75,-1.63 1.51,-3.26 2.26,-4.9 L 48.27,73.6"
         id="path324" />
      <path
         class="cls-1"
         d="m 49.2,66.57 a 1,1 0 0 0 -0.85,-0.2 0.65,0.65 0 0 0 -0.3,0.37 c -0.33,0.82 -1.06,1.15 -1.64,2.09 a 4.9,4.9 0 0 0 -0.66,2.11 7.12,7.12 0 0 0 1.7,4.91 28.35,28.35 0 0 0 6.55,6.83 c 17.48,11.44 41.36,23.1 43.22,24.2 a 8.84,8.84 0 0 0 1.87,0.84 10.35,10.35 0 0 0 1.75,0.38 22.86,22.86 0 0 0 3.1,0.24 h 19.14 a 19.72,19.72 0 0 0 3,-0.73 3.37,3.37 0 0 0 1.4,-0.71 3.24,3.24 0 0 0 0.77,-2.27 7,7 0 0 0 -1,-3.43 C 125.18,97.8 55.1,69 49.2,66.57 Z"
         id="path326" />
      <path
         class="cls-2"
         d="M 54.84,61.18 A 19.84,19.84 0 0 0 51.24,65 6.56,6.56 0 0 0 50,67.25 6.06,6.06 0 0 0 50.78,71.4 c 1.17,2.42 3.07,4.39 6.7,7.43 6.63,5.55 8.38,6.18 9.78,5.74 a 6.09,6.09 0 0 1 2.4,-0.66 4.9,4.9 0 0 1 2.45,0.73 c 4.43,2.52 7.58,4.35 13.88,8 A 5,5 0 0 1 88.34,95 c 0.4,1 0,1.4 0.45,2.3 0.45,0.9 1.25,1.55 3.1,2.3 5.55,2.26 4.39,2.43 8,3.58 a 21.86,21.86 0 0 0 7.06,1.3 86.5,86.5 0 0 0 15.7,0 5.81,5.81 0 0 0 4,-1.48 5.3,5.3 0 0 0 1.2,-4.11 c -0.34,-2.24 -2.18,-3.59 -3.88,-4.79 -3.07,-2.16 -6.46,-3.18 -12.13,-4.87 a 21.29,21.29 0 0 1 -6.19,-3 84.22,84.22 0 0 1 -10.77,-11.9 c -0.58,-0.8 -1,-1.48 -1.13,-1.6 a 68.12,68.12 0 0 1 -6,-11 c -0.34,-0.81 -0.58,-1.37 -0.87,-2.21 a 32.8,32.8 0 0 1 -1.79,-8.39"
         id="path328" />
      <path
         class="cls-3"
         d="m 69.39,73.83 c -7.69,-1.9 -10.46,-2.78 -20.47,-7 a 60.83,60.83 0 0 1 -12.59,-6.7 69.53,69.53 0 0 1 -6,-4.92 71.4,71.4 0 0 1 -9.77,-11 60.48,60.48 0 0 1 -4.75,-7.91 3.42,3.42 0 0 1 -0.33,-1.13 c -0.08,-0.57 0.34,-0.89 0.89,-0.71 a 3,3 0 0 1 0.57,0.28 c 0.6,0.36 1.18,0.75 1.78,1.09 a 24.38,24.38 0 0 0 6.87,2.81 12.86,12.86 0 0 0 7.12,-0.2 6.07,6.07 0 0 0 4.07,-4 9.49,9.49 0 0 0 0,-5.36 A 8.78,8.78 0 0 0 35,25.81 20.93,20.93 0 0 0 30.18,21.64 53.87,53.87 0 0 0 23.62,18 c -3.66,-1.77 -7.34,-3.48 -11,-5.25 A 45.27,45.27 0 0 1 4.28,7.75 11.76,11.76 0 0 1 0.5,3 5.1,5.1 0 0 1 0,0.88 0.81,0.81 0 0 1 0.61,0 C 0.94,-0.08 1.16,0.06 1.4,0.55 a 5.08,5.08 0 0 0 1.5,1.9 c 0.43,0.33 0.89,0.64 1.34,0.93 a 30.85,30.85 0 0 0 7.12,3.4 52.35,52.35 0 0 0 9.79,2.22 c 4.44,0.63 8.91,0.91 13.37,1.26 3.44,0.27 6.87,0.55 10.27,1.11 a 81.54,81.54 0 0 1 17.61,5.07 51.37,51.37 0 0 1 9.41,4.92 c 1.52,1 3,2.14 4.41,3.31 a 33.25,33.25 0 0 1 5.61,5.94 31.53,31.53 0 0 1 5.7,13 c 0,0.2 0.09,0.47 0.14,0.8 0,0 0.33,1.93 0.46,4.08 A 79.65,79.65 0 0 1 87.4,61"
         id="path330"
         style="fill:url(#linearGradient771)" />
      <path
         class="cls-8"
         d="m 62.48,70 c 4.08,2.75 7,3.53 6.91,3.79"
         id="path332" />
      <path
         class="cls-4"
         d="m 87.35,57.55 a 20.3,20.3 0 0 0 -0.49,-3.26 24.21,24.21 0 0 0 -5.67,-10.37 27.83,27.83 0 0 0 -7.13,-6 c -2,-1.22 -4.09,-2.33 -6.18,-3.42 -3.29,-1.73 -6.67,-3.3 -9.8,-5.34 a 25.3,25.3 0 0 1 -4,-3.23 c -0.81,-0.81 -1.56,-1.66 -2.37,-2.46 a 4.55,4.55 0 0 0 -0.94,-0.69 c -0.33,-0.18 -0.53,-0.05 -0.55,0.31 a 1.88,1.88 0 0 0 0.07,0.63 c 0.16,0.48 0.33,0.95 0.53,1.41 a 22.27,22.27 0 0 0 4.38,6.54 c 1.52,1.65 3.11,3.24 4.65,4.87 A 19,19 0 0 1 62.51,40 7.42,7.42 0 0 1 63.6,43.57 7.75,7.75 0 0 1 63,46.48 5.74,5.74 0 0 1 57.55,50.3 12,12 0 0 1 52.86,49.4 16.53,16.53 0 0 1 46,44.56 c -0.38,-0.46 -0.75,-0.9 -1.14,-1.34 a 1.92,1.92 0 0 0 -0.5,-0.39 0.37,0.37 0 0 0 -0.6,0.32 3.36,3.36 0 0 0 0,0.84 14.67,14.67 0 0 0 0.84,3 53.07,53.07 0 0 0 3.4,7.62 32.28,32.28 0 0 0 4.37,5.79 A 94.47,94.47 0 0 0 64,71.32"
         id="path334"
         style="fill:url(#linearGradient773)" />
      <circle
         class="cls-1"
         cx="72.75"
         cy="59.490002"
         r="14.72"
         transform="rotate(-19.33,72.766591,59.490962)"
         id="circle336" />
      <circle
         class="cls-5"
         cx="72.75"
         cy="59.490002"
         r="9.9300003"
         id="circle338" />
      <line
         class="cls-6"
         x1="72.75"
         y1="59.490002"
         x2="72.75"
         y2="44.77"
         id="line340" />
      <path
         class="cls-1"
         d="M 72.75,59.49 H 58 a 14.68,14.68 0 0 0 14.75,14.72 z"
         id="path342" />
      <path
         class="cls-1"
         d="M 72.75,44.77 A 14.73,14.73 0 0 1 87.48,59.49 H 72.75 Z"
         id="path344" />
      <rect
         class="cls-7"
         x="69.220001"
         y="89.839996"
         width="16.59"
         height="3.02"
         transform="rotate(30,77.516994,91.349384)"
         id="rect346" />
      <circle
         class="cls-7"
         cx="70.330002"
         cy="87.199997"
         r="1.51"
         id="circle348" />
      <circle
         class="cls-7"
         cx="84.699997"
         cy="95.5"
         r="1.51"
         id="circle350" />
      <path
         class="cls-1"
         d="m 46.94,73.64 -2.84,4.72 3.11,3.82 6.73,-1.9 2.62,2.72 -1,4.75 5.15,3.25 3.77,-3 24.14,13.2 -0.75,5.66 3.77,1.89 4.52,-3.77 7.92,2.26 2.64,4.52 h 4.53 l 2.26,-4.52 H 118 q 1.13,2.27 2.26,4.52 h 4.15 c 0.75,-1.63 1.51,-3.26 2.26,-4.9 L 48.27,73.6"
         id="path352" />
      <path
         class="cls-1"
         d="m 49.2,66.57 a 1,1 0 0 0 -0.85,-0.2 0.65,0.65 0 0 0 -0.3,0.37 c -0.33,0.82 -1.06,1.15 -1.64,2.09 a 4.9,4.9 0 0 0 -0.66,2.11 7.12,7.12 0 0 0 1.7,4.91 28.35,28.35 0 0 0 6.55,6.83 c 17.48,11.44 41.36,23.1 43.22,24.2 a 8.84,8.84 0 0 0 1.87,0.84 10.35,10.35 0 0 0 1.75,0.38 22.86,22.86 0 0 0 3.1,0.24 h 19.14 a 19.72,19.72 0 0 0 3,-0.73 3.37,3.37 0 0 0 1.4,-0.71 3.24,3.24 0 0 0 0.77,-2.27 7,7 0 0 0 -1,-3.43 C 125.18,97.8 55.1,69 49.2,66.57 Z"
         id="path354" />
      <path
         class="cls-2"
         d="M 54.84,61.18 A 19.84,19.84 0 0 0 51.24,65 6.56,6.56 0 0 0 50,67.25 6.06,6.06 0 0 0 50.78,71.4 c 1.17,2.42 3.07,4.39 6.7,7.43 6.63,5.55 8.38,6.18 9.78,5.74 a 6.09,6.09 0 0 1 2.4,-0.66 4.9,4.9 0 0 1 2.45,0.73 c 4.43,2.52 7.58,4.35 13.88,8 A 5,5 0 0 1 88.34,95 c 0.4,1 0,1.4 0.45,2.3 0.45,0.9 1.25,1.55 3.1,2.3 5.55,2.26 4.39,2.43 8,3.58 a 21.86,21.86 0 0 0 7.06,1.3 86.5,86.5 0 0 0 15.7,0 5.81,5.81 0 0 0 4,-1.48 5.3,5.3 0 0 0 1.2,-4.11 c -0.34,-2.24 -2.18,-3.59 -3.88,-4.79 -3.07,-2.16 -6.46,-3.18 -12.13,-4.87 a 21.29,21.29 0 0 1 -6.19,-3 84.22,84.22 0 0 1 -10.77,-11.9 c -0.58,-0.8 -1,-1.48 -1.13,-1.6 a 68.12,68.12 0 0 1 -6,-11 c -0.34,-0.81 -0.58,-1.37 -0.87,-2.21 a 32.8,32.8 0 0 1 -1.79,-8.39"
         id="path356" />
      <path
         class="cls-3"
         d="m 69.39,73.83 c -7.69,-1.9 -10.46,-2.78 -20.47,-7 a 60.83,60.83 0 0 1 -12.59,-6.7 69.53,69.53 0 0 1 -6,-4.92 71.4,71.4 0 0 1 -9.77,-11 60.48,60.48 0 0 1 -4.75,-7.91 3.42,3.42 0 0 1 -0.33,-1.13 c -0.08,-0.57 0.34,-0.89 0.89,-0.71 a 3,3 0 0 1 0.57,0.28 c 0.6,0.36 1.18,0.75 1.78,1.09 a 24.38,24.38 0 0 0 6.87,2.81 12.86,12.86 0 0 0 7.12,-0.2 6.07,6.07 0 0 0 4.07,-4 9.49,9.49 0 0 0 0,-5.36 A 8.78,8.78 0 0 0 35,25.81 20.93,20.93 0 0 0 30.18,21.64 53.87,53.87 0 0 0 23.62,18 c -3.66,-1.77 -7.34,-3.48 -11,-5.25 A 45.27,45.27 0 0 1 4.28,7.75 11.76,11.76 0 0 1 0.5,3 5.1,5.1 0 0 1 0,0.88 0.81,0.81 0 0 1 0.61,0 C 0.94,-0.08 1.16,0.06 1.4,0.55 a 5.08,5.08 0 0 0 1.5,1.9 c 0.43,0.33 0.89,0.64 1.34,0.93 a 30.85,30.85 0 0 0 7.12,3.4 52.35,52.35 0 0 0 9.79,2.22 c 4.44,0.63 8.91,0.91 13.37,1.26 3.44,0.27 6.87,0.55 10.27,1.11 a 81.54,81.54 0 0 1 17.61,5.07 51.37,51.37 0 0 1 9.41,4.92 c 1.52,1 3,2.14 4.41,3.31 a 33.25,33.25 0 0 1 5.61,5.94 31.53,31.53 0 0 1 5.7,13 c 0,0.2 0.09,0.47 0.14,0.8 0,0 0.33,1.93 0.46,4.08 A 79.65,79.65 0 0 1 87.4,61"
         id="path358"
         style="fill:url(#linearGradient775)" />
      <path
         class="cls-8"
         d="m 62.48,70 c 4.08,2.75 7,3.53 6.91,3.79"
         id="path360" />
      <path
         class="cls-4"
         d="m 87.35,57.55 a 20.3,20.3 0 0 0 -0.49,-3.26 24.21,24.21 0 0 0 -5.67,-10.37 27.83,27.83 0 0 0 -7.13,-6 c -2,-1.22 -4.09,-2.33 -6.18,-3.42 -3.29,-1.73 -6.67,-3.3 -9.8,-5.34 a 25.3,25.3 0 0 1 -4,-3.23 c -0.81,-0.81 -1.56,-1.66 -2.37,-2.46 a 4.55,4.55 0 0 0 -0.94,-0.69 c -0.33,-0.18 -0.53,-0.05 -0.55,0.31 a 1.88,1.88 0 0 0 0.07,0.63 c 0.16,0.48 0.33,0.95 0.53,1.41 a 22.27,22.27 0 0 0 4.38,6.54 c 1.52,1.65 3.11,3.24 4.65,4.87 A 19,19 0 0 1 62.51,40 7.42,7.42 0 0 1 63.6,43.57 7.75,7.75 0 0 1 63,46.48 5.74,5.74 0 0 1 57.55,50.3 12,12 0 0 1 52.86,49.4 16.53,16.53 0 0 1 46,44.56 c -0.38,-0.46 -0.75,-0.9 -1.14,-1.34 a 1.92,1.92 0 0 0 -0.5,-0.39 0.37,0.37 0 0 0 -0.6,0.32 3.36,3.36 0 0 0 0,0.84 14.67,14.67 0 0 0 0.84,3 53.07,53.07 0 0 0 3.4,7.62 32.28,32.28 0 0 0 4.37,5.79 A 94.47,94.47 0 0 0 64,71.32"
         id="path362"
         style="fill:url(#linearGradient777)" />
      <circle
         class="cls-1"
         cx="72.75"
         cy="59.490002"
         r="14.72"
         transform="rotate(-19.33,72.766591,59.490962)"
         id="circle364" />
      <circle
         class="cls-5"
         cx="72.75"
         cy="59.490002"
         r="9.9300003"
         id="circle366" />
      <line
         class="cls-6"
         x1="72.75"
         y1="59.490002"
         x2="72.75"
         y2="44.77"
         id="line368" />
      <path
         class="cls-1"
         d="M 72.75,59.49 H 58 a 14.68,14.68 0 0 0 14.75,14.72 z"
         id="path370" />
      <path
         class="cls-1"
         d="M 72.75,44.77 A 14.73,14.73 0 0 1 87.48,59.49 H 72.75 Z"
         id="path372" />
      <rect
         class="cls-7"
         x="69.220001"
         y="89.839996"
         width="16.59"
         height="3.02"
         transform="rotate(30,77.516994,91.349384)"
         id="rect374" />
      <circle
         class="cls-7"
         cx="70.330002"
         cy="87.199997"
         r="1.51"
         id="circle376" />
      <circle
         class="cls-7"
         cx="84.699997"
         cy="95.5"
         r="1.51"
         id="circle378" />
      <path
         class="cls-1"
         d="m 46.94,73.64 -2.84,4.72 3.11,3.82 6.73,-1.9 2.62,2.72 -1,4.75 5.15,3.25 3.77,-3 24.14,13.2 -0.75,5.66 3.77,1.89 4.52,-3.77 7.92,2.26 2.64,4.52 h 4.53 l 2.26,-4.52 H 118 q 1.13,2.27 2.26,4.52 h 4.15 c 0.75,-1.63 1.51,-3.26 2.26,-4.9 L 48.27,73.6"
         id="path380" />
      <path
         class="cls-1"
         d="m 49.2,66.57 a 1,1 0 0 0 -0.85,-0.2 0.65,0.65 0 0 0 -0.3,0.37 c -0.33,0.82 -1.06,1.15 -1.64,2.09 a 4.9,4.9 0 0 0 -0.66,2.11 7.12,7.12 0 0 0 1.7,4.91 28.35,28.35 0 0 0 6.55,6.83 c 17.48,11.44 41.36,23.1 43.22,24.2 a 8.84,8.84 0 0 0 1.87,0.84 10.35,10.35 0 0 0 1.75,0.38 22.86,22.86 0 0 0 3.1,0.24 h 19.14 a 19.72,19.72 0 0 0 3,-0.73 3.37,3.37 0 0 0 1.4,-0.71 3.24,3.24 0 0 0 0.77,-2.27 7,7 0 0 0 -1,-3.43 C 125.18,97.8 55.1,69 49.2,66.57 Z"
         id="path382" />
      <path
         class="cls-2"
         d="M 54.84,61.18 A 19.84,19.84 0 0 0 51.24,65 6.56,6.56 0 0 0 50,67.25 6.06,6.06 0 0 0 50.78,71.4 c 1.17,2.42 3.07,4.39 6.7,7.43 6.63,5.55 8.38,6.18 9.78,5.74 a 6.09,6.09 0 0 1 2.4,-0.66 4.9,4.9 0 0 1 2.45,0.73 c 4.43,2.52 7.58,4.35 13.88,8 A 5,5 0 0 1 88.34,95 c 0.4,1 0,1.4 0.45,2.3 0.45,0.9 1.25,1.55 3.1,2.3 5.55,2.26 4.39,2.43 8,3.58 a 21.86,21.86 0 0 0 7.06,1.3 86.5,86.5 0 0 0 15.7,0 5.81,5.81 0 0 0 4,-1.48 5.3,5.3 0 0 0 1.2,-4.11 c -0.34,-2.24 -2.18,-3.59 -3.88,-4.79 -3.07,-2.16 -6.46,-3.18 -12.13,-4.87 a 21.29,21.29 0 0 1 -6.19,-3 84.22,84.22 0 0 1 -10.77,-11.9 c -0.58,-0.8 -1,-1.48 -1.13,-1.6 a 68.12,68.12 0 0 1 -6,-11 c -0.34,-0.81 -0.58,-1.37 -0.87,-2.21 a 32.8,32.8 0 0 1 -1.79,-8.39"
         id="path384" />
      <path
         class="cls-3"
         d="m 69.39,73.83 c -7.69,-1.9 -10.46,-2.78 -20.47,-7 a 60.83,60.83 0 0 1 -12.59,-6.7 69.53,69.53 0 0 1 -6,-4.92 71.4,71.4 0 0 1 -9.77,-11 60.48,60.48 0 0 1 -4.75,-7.91 3.42,3.42 0 0 1 -0.33,-1.13 c -0.08,-0.57 0.34,-0.89 0.89,-0.71 a 3,3 0 0 1 0.57,0.28 c 0.6,0.36 1.18,0.75 1.78,1.09 a 24.38,24.38 0 0 0 6.87,2.81 12.86,12.86 0 0 0 7.12,-0.2 6.07,6.07 0 0 0 4.07,-4 9.49,9.49 0 0 0 0,-5.36 A 8.78,8.78 0 0 0 35,25.81 20.93,20.93 0 0 0 30.18,21.64 53.87,53.87 0 0 0 23.62,18 c -3.66,-1.77 -7.34,-3.48 -11,-5.25 A 45.27,45.27 0 0 1 4.28,7.75 11.76,11.76 0 0 1 0.5,3 5.1,5.1 0 0 1 0,0.88 0.81,0.81 0 0 1 0.61,0 C 0.94,-0.08 1.16,0.06 1.4,0.55 a 5.08,5.08 0 0 0 1.5,1.9 c 0.43,0.33 0.89,0.64 1.34,0.93 a 30.85,30.85 0 0 0 7.12,3.4 52.35,52.35 0 0 0 9.79,2.22 c 4.44,0.63 8.91,0.91 13.37,1.26 3.44,0.27 6.87,0.55 10.27,1.11 a 81.54,81.54 0 0 1 17.61,5.07 51.37,51.37 0 0 1 9.41,4.92 c 1.52,1 3,2.14 4.41,3.31 a 33.25,33.25 0 0 1 5.61,5.94 31.53,31.53 0 0 1 5.7,13 c 0,0.2 0.09,0.47 0.14,0.8 0,0 0.33,1.93 0.46,4.08 A 79.65,79.65 0 0 1 87.4,61"
         id="path386"
         style="fill:url(#linearGradient779)" />
      <path
         class="cls-8"
         d="m 62.48,70 c 4.08,2.75 7,3.53 6.91,3.79"
         id="path388" />
      <path
         class="cls-4"
         d="m 87.35,57.55 a 20.3,20.3 0 0 0 -0.49,-3.26 24.21,24.21 0 0 0 -5.67,-10.37 27.83,27.83 0 0 0 -7.13,-6 c -2,-1.22 -4.09,-2.33 -6.18,-3.42 -3.29,-1.73 -6.67,-3.3 -9.8,-5.34 a 25.3,25.3 0 0 1 -4,-3.23 c -0.81,-0.81 -1.56,-1.66 -2.37,-2.46 a 4.55,4.55 0 0 0 -0.94,-0.69 c -0.33,-0.18 -0.53,-0.05 -0.55,0.31 a 1.88,1.88 0 0 0 0.07,0.63 c 0.16,0.48 0.33,0.95 0.53,1.41 a 22.27,22.27 0 0 0 4.38,6.54 c 1.52,1.65 3.11,3.24 4.65,4.87 A 19,19 0 0 1 62.51,40 7.42,7.42 0 0 1 63.6,43.57 7.75,7.75 0 0 1 63,46.48 5.74,5.74 0 0 1 57.55,50.3 12,12 0 0 1 52.86,49.4 16.53,16.53 0 0 1 46,44.56 c -0.38,-0.46 -0.75,-0.9 -1.14,-1.34 a 1.92,1.92 0 0 0 -0.5,-0.39 0.37,0.37 0 0 0 -0.6,0.32 3.36,3.36 0 0 0 0,0.84 14.67,14.67 0 0 0 0.84,3 53.07,53.07 0 0 0 3.4,7.62 32.28,32.28 0 0 0 4.37,5.79 A 94.47,94.47 0 0 0 64,71.32"
         id="path390"
         style="fill:url(#linearGradient781)" />
      <circle
         class="cls-1"
         cx="72.75"
         cy="59.490002"
         r="14.72"
         transform="rotate(-19.33,72.766591,59.490962)"
         id="circle392" />
      <circle
         class="cls-5"
         cx="72.75"
         cy="59.490002"
         r="9.9300003"
         id="circle394" />
      <line
         class="cls-6"
         x1="72.75"
         y1="59.490002"
         x2="72.75"
         y2="44.77"
         id="line396" />
      <path
         class="cls-1"
         d="M 72.75,59.49 H 58 a 14.68,14.68 0 0 0 14.75,14.72 z"
         id="path398" />
      <path
         class="cls-1"
         d="M 72.75,44.77 A 14.73,14.73 0 0 1 87.48,59.49 H 72.75 Z"
         id="path400" />
      <rect
         class="cls-7"
         x="69.220001"
         y="89.839996"
         width="16.59"
         height="3.02"
         transform="rotate(30,77.516994,91.349384)"
         id="rect402" />
      <circle
         class="cls-7"
         cx="70.330002"
         cy="87.199997"
         r="1.51"
         id="circle404" />
      <circle
         class="cls-7"
         cx="84.699997"
         cy="95.5"
         r="1.51"
         id="circle406" />
      <path
         class="cls-1"
         d="m 46.94,73.64 -2.84,4.72 3.11,3.82 6.73,-1.9 2.62,2.72 -1,4.75 5.15,3.25 3.77,-3 24.14,13.2 -0.75,5.66 3.77,1.89 4.52,-3.77 7.92,2.26 2.64,4.52 h 4.53 l 2.26,-4.52 H 118 q 1.13,2.27 2.26,4.52 h 4.15 c 0.75,-1.63 1.51,-3.26 2.26,-4.9 L 48.27,73.6"
         id="path408" />
      <path
         class="cls-1"
         d="m 49.2,66.57 a 1,1 0 0 0 -0.85,-0.2 0.65,0.65 0 0 0 -0.3,0.37 c -0.33,0.82 -1.06,1.15 -1.64,2.09 a 4.9,4.9 0 0 0 -0.66,2.11 7.12,7.12 0 0 0 1.7,4.91 28.35,28.35 0 0 0 6.55,6.83 c 17.48,11.44 41.36,23.1 43.22,24.2 a 8.84,8.84 0 0 0 1.87,0.84 10.35,10.35 0 0 0 1.75,0.38 22.86,22.86 0 0 0 3.1,0.24 h 19.14 a 19.72,19.72 0 0 0 3,-0.73 3.37,3.37 0 0 0 1.4,-0.71 3.24,3.24 0 0 0 0.77,-2.27 7,7 0 0 0 -1,-3.43 C 125.18,97.8 55.1,69 49.2,66.57 Z"
         id="path410" />
      <path
         class="cls-2"
         d="M 54.84,61.18 A 19.84,19.84 0 0 0 51.24,65 6.56,6.56 0 0 0 50,67.25 6.06,6.06 0 0 0 50.78,71.4 c 1.17,2.42 3.07,4.39 6.7,7.43 6.63,5.55 8.38,6.18 9.78,5.74 a 6.09,6.09 0 0 1 2.4,-0.66 4.9,4.9 0 0 1 2.45,0.73 c 4.43,2.52 7.58,4.35 13.88,8 A 5,5 0 0 1 88.34,95 c 0.4,1 0,1.4 0.45,2.3 0.45,0.9 1.25,1.55 3.1,2.3 5.55,2.26 4.39,2.43 8,3.58 a 21.86,21.86 0 0 0 7.06,1.3 86.5,86.5 0 0 0 15.7,0 5.81,5.81 0 0 0 4,-1.48 5.3,5.3 0 0 0 1.2,-4.11 c -0.34,-2.24 -2.18,-3.59 -3.88,-4.79 -3.07,-2.16 -6.46,-3.18 -12.13,-4.87 a 21.29,21.29 0 0 1 -6.19,-3 84.22,84.22 0 0 1 -10.77,-11.9 c -0.58,-0.8 -1,-1.48 -1.13,-1.6 a 68.12,68.12 0 0 1 -6,-11 c -0.34,-0.81 -0.58,-1.37 -0.87,-2.21 a 32.8,32.8 0 0 1 -1.79,-8.39"
         id="path412" />
      <path
         class="cls-3"
         d="m 69.39,73.83 c -7.69,-1.9 -10.46,-2.78 -20.47,-7 a 60.83,60.83 0 0 1 -12.59,-6.7 69.53,69.53 0 0 1 -6,-4.92 71.4,71.4 0 0 1 -9.77,-11 60.48,60.48 0 0 1 -4.75,-7.91 3.42,3.42 0 0 1 -0.33,-1.13 c -0.08,-0.57 0.34,-0.89 0.89,-0.71 a 3,3 0 0 1 0.57,0.28 c 0.6,0.36 1.18,0.75 1.78,1.09 a 24.38,24.38 0 0 0 6.87,2.81 12.86,12.86 0 0 0 7.12,-0.2 6.07,6.07 0 0 0 4.07,-4 9.49,9.49 0 0 0 0,-5.36 A 8.78,8.78 0 0 0 35,25.81 20.93,20.93 0 0 0 30.18,21.64 53.87,53.87 0 0 0 23.62,18 c -3.66,-1.77 -7.34,-3.48 -11,-5.25 A 45.27,45.27 0 0 1 4.28,7.75 11.76,11.76 0 0 1 0.5,3 5.1,5.1 0 0 1 0,0.88 0.81,0.81 0 0 1 0.61,0 C 0.94,-0.08 1.16,0.06 1.4,0.55 a 5.08,5.08 0 0 0 1.5,1.9 c 0.43,0.33 0.89,0.64 1.34,0.93 a 30.85,30.85 0 0 0 7.12,3.4 52.35,52.35 0 0 0 9.79,2.22 c 4.44,0.63 8.91,0.91 13.37,1.26 3.44,0.27 6.87,0.55 10.27,1.11 a 81.54,81.54 0 0 1 17.61,5.07 51.37,51.37 0 0 1 9.41,4.92 c 1.52,1 3,2.14 4.41,3.31 a 33.25,33.25 0 0 1 5.61,5.94 31.53,31.53 0 0 1 5.7,13 c 0,0.2 0.09,0.47 0.14,0.8 0,0 0.33,1.93 0.46,4.08 A 79.65,79.65 0 0 1 87.4,61"
         id="path414"
         style="fill:url(#linearGradient783)" />
      <path
         class="cls-8"
         d="m 62.48,70 c 4.08,2.75 7,3.53 6.91,3.79"
         id="path416" />
      <path
         class="cls-4"
         d="m 87.35,57.55 a 20.3,20.3 0 0 0 -0.49,-3.26 24.21,24.21 0 0 0 -5.67,-10.37 27.83,27.83 0 0 0 -7.13,-6 c -2,-1.22 -4.09,-2.33 -6.18,-3.42 -3.29,-1.73 -6.67,-3.3 -9.8,-5.34 a 25.3,25.3 0 0 1 -4,-3.23 c -0.81,-0.81 -1.56,-1.66 -2.37,-2.46 a 4.55,4.55 0 0 0 -0.94,-0.69 c -0.33,-0.18 -0.53,-0.05 -0.55,0.31 a 1.88,1.88 0 0 0 0.07,0.63 c 0.16,0.48 0.33,0.95 0.53,1.41 a 22.27,22.27 0 0 0 4.38,6.54 c 1.52,1.65 3.11,3.24 4.65,4.87 A 19,19 0 0 1 62.51,40 7.42,7.42 0 0 1 63.6,43.57 7.75,7.75 0 0 1 63,46.48 5.74,5.74 0 0 1 57.55,50.3 12,12 0 0 1 52.86,49.4 16.53,16.53 0 0 1 46,44.56 c -0.38,-0.46 -0.75,-0.9 -1.14,-1.34 a 1.92,1.92 0 0 0 -0.5,-0.39 0.37,0.37 0 0 0 -0.6,0.32 3.36,3.36 0 0 0 0,0.84 14.67,14.67 0 0 0 0.84,3 53.07,53.07 0 0 0 3.4,7.62 32.28,32.28 0 0 0 4.37,5.79 A 94.47,94.47 0 0 0 64,71.32"
         id="path418"
         style="fill:url(#linearGradient785)" />
      <circle
         class="cls-1"
         cx="72.75"
         cy="59.490002"
         r="14.72"
         transform="rotate(-19.33,72.766591,59.490962)"
         id="circle420" />
      <circle
         class="cls-5"
         cx="72.75"
         cy="59.490002"
         r="9.9300003"
         id="circle422" />
      <line
         class="cls-6"
         x1="72.75"
         y1="59.490002"
         x2="72.75"
         y2="44.77"
         id="line424" />
      <path
         class="cls-1"
         d="M 72.75,59.49 H 58 a 14.68,14.68 0 0 0 14.75,14.72 z"
         id="path426" />
      <path
         class="cls-1"
         d="M 72.75,44.77 A 14.73,14.73 0 0 1 87.48,59.49 H 72.75 Z"
         id="path428" />
      <rect
         class="cls-7"
         x="69.220001"
         y="89.839996"
         width="16.59"
         height="3.02"
         transform="rotate(30,77.516994,91.349384)"
         id="rect430" />
      <circle
         class="cls-7"
         cx="70.330002"
         cy="87.199997"
         r="1.51"
         id="circle432" />
      <circle
         class="cls-7"
         cx="84.699997"
         cy="95.5"
         r="1.51"
         id="circle434" />
      <path
         class="cls-1"
         d="m 46.94,73.64 -2.84,4.72 3.11,3.82 6.73,-1.9 2.62,2.72 -1,4.75 5.15,3.25 3.77,-3 24.14,13.2 -0.75,5.66 3.77,1.89 4.52,-3.77 7.92,2.26 2.64,4.52 h 4.53 l 2.26,-4.52 H 118 q 1.13,2.27 2.26,4.52 h 4.15 c 0.75,-1.63 1.51,-3.26 2.26,-4.9 L 48.27,73.6"
         id="path436" />
      <path
         class="cls-1"
         d="m 49.2,66.57 a 1,1 0 0 0 -0.85,-0.2 0.65,0.65 0 0 0 -0.3,0.37 c -0.33,0.82 -1.06,1.15 -1.64,2.09 a 4.9,4.9 0 0 0 -0.66,2.11 7.12,7.12 0 0 0 1.7,4.91 28.35,28.35 0 0 0 6.55,6.83 c 17.48,11.44 41.36,23.1 43.22,24.2 a 8.84,8.84 0 0 0 1.87,0.84 10.35,10.35 0 0 0 1.75,0.38 22.86,22.86 0 0 0 3.1,0.24 h 19.14 a 19.72,19.72 0 0 0 3,-0.73 3.37,3.37 0 0 0 1.4,-0.71 3.24,3.24 0 0 0 0.77,-2.27 7,7 0 0 0 -1,-3.43 C 125.18,97.8 55.1,69 49.2,66.57 Z"
         id="path438" />
      <path
         class="cls-2"
         d="M 54.84,61.18 A 19.84,19.84 0 0 0 51.24,65 6.56,6.56 0 0 0 50,67.25 6.06,6.06 0 0 0 50.78,71.4 c 1.17,2.42 3.07,4.39 6.7,7.43 6.63,5.55 8.38,6.18 9.78,5.74 a 6.09,6.09 0 0 1 2.4,-0.66 4.9,4.9 0 0 1 2.45,0.73 c 4.43,2.52 7.58,4.35 13.88,8 A 5,5 0 0 1 88.34,95 c 0.4,1 0,1.4 0.45,2.3 0.45,0.9 1.25,1.55 3.1,2.3 5.55,2.26 4.39,2.43 8,3.58 a 21.86,21.86 0 0 0 7.06,1.3 86.5,86.5 0 0 0 15.7,0 5.81,5.81 0 0 0 4,-1.48 5.3,5.3 0 0 0 1.2,-4.11 c -0.34,-2.24 -2.18,-3.59 -3.88,-4.79 -3.07,-2.16 -6.46,-3.18 -12.13,-4.87 a 21.29,21.29 0 0 1 -6.19,-3 84.22,84.22 0 0 1 -10.77,-11.9 c -0.58,-0.8 -1,-1.48 -1.13,-1.6 a 68.12,68.12 0 0 1 -6,-11 c -0.34,-0.81 -0.58,-1.37 -0.87,-2.21 a 32.8,32.8 0 0 1 -1.79,-8.39"
         id="path440" />
      <path
         class="cls-3"
         d="m 69.39,73.83 c -7.69,-1.9 -10.46,-2.78 -20.47,-7 a 60.83,60.83 0 0 1 -12.59,-6.7 69.53,69.53 0 0 1 -6,-4.92 71.4,71.4 0 0 1 -9.77,-11 60.48,60.48 0 0 1 -4.75,-7.91 3.42,3.42 0 0 1 -0.33,-1.13 c -0.08,-0.57 0.34,-0.89 0.89,-0.71 a 3,3 0 0 1 0.57,0.28 c 0.6,0.36 1.18,0.75 1.78,1.09 a 24.38,24.38 0 0 0 6.87,2.81 12.86,12.86 0 0 0 7.12,-0.2 6.07,6.07 0 0 0 4.07,-4 9.49,9.49 0 0 0 0,-5.36 A 8.78,8.78 0 0 0 35,25.81 20.93,20.93 0 0 0 30.18,21.64 53.87,53.87 0 0 0 23.62,18 c -3.66,-1.77 -7.34,-3.48 -11,-5.25 A 45.27,45.27 0 0 1 4.28,7.75 11.76,11.76 0 0 1 0.5,3 5.1,5.1 0 0 1 0,0.88 0.81,0.81 0 0 1 0.61,0 C 0.94,-0.08 1.16,0.06 1.4,0.55 a 5.08,5.08 0 0 0 1.5,1.9 c 0.43,0.33 0.89,0.64 1.34,0.93 a 30.85,30.85 0 0 0 7.12,3.4 52.35,52.35 0 0 0 9.79,2.22 c 4.44,0.63 8.91,0.91 13.37,1.26 3.44,0.27 6.87,0.55 10.27,1.11 a 81.54,81.54 0 0 1 17.61,5.07 51.37,51.37 0 0 1 9.41,4.92 c 1.52,1 3,2.14 4.41,3.31 a 33.25,33.25 0 0 1 5.61,5.94 31.53,31.53 0 0 1 5.7,13 c 0,0.2 0.09,0.47 0.14,0.8 0,0 0.33,1.93 0.46,4.08 A 79.65,79.65 0 0 1 87.4,61"
         id="path442"
         style="fill:url(#linearGradient787)" />
      <path
         class="cls-8"
         d="m 62.48,70 c 4.08,2.75 7,3.53 6.91,3.79"
         id="path444" />
      <path
         class="cls-4"
         d="m 87.35,57.55 a 20.3,20.3 0 0 0 -0.49,-3.26 24.21,24.21 0 0 0 -5.67,-10.37 27.83,27.83 0 0 0 -7.13,-6 c -2,-1.22 -4.09,-2.33 -6.18,-3.42 -3.29,-1.73 -6.67,-3.3 -9.8,-5.34 a 25.3,25.3 0 0 1 -4,-3.23 c -0.81,-0.81 -1.56,-1.66 -2.37,-2.46 a 4.55,4.55 0 0 0 -0.94,-0.69 c -0.33,-0.18 -0.53,-0.05 -0.55,0.31 a 1.88,1.88 0 0 0 0.07,0.63 c 0.16,0.48 0.33,0.95 0.53,1.41 a 22.27,22.27 0 0 0 4.38,6.54 c 1.52,1.65 3.11,3.24 4.65,4.87 A 19,19 0 0 1 62.51,40 7.42,7.42 0 0 1 63.6,43.57 7.75,7.75 0 0 1 63,46.48 5.74,5.74 0 0 1 57.55,50.3 12,12 0 0 1 52.86,49.4 16.53,16.53 0 0 1 46,44.56 c -0.38,-0.46 -0.75,-0.9 -1.14,-1.34 a 1.92,1.92 0 0 0 -0.5,-0.39 0.37,0.37 0 0 0 -0.6,0.32 3.36,3.36 0 0 0 0,0.84 14.67,14.67 0 0 0 0.84,3 53.07,53.07 0 0 0 3.4,7.62 32.28,32.28 0 0 0 4.37,5.79 A 94.47,94.47 0 0 0 64,71.32"
         id="path446"
         style="fill:url(#linearGradient789)" />
      <circle
         class="cls-1"
         cx="72.75"
         cy="59.490002"
         r="14.72"
         transform="rotate(-19.33,72.766591,59.490962)"
         id="circle448" />
      <circle
         class="cls-5"
         cx="72.75"
         cy="59.490002"
         r="9.9300003"
         id="circle450" />
      <line
         class="cls-6"
         x1="72.75"
         y1="59.490002"
         x2="72.75"
         y2="44.77"
         id="line452" />
      <path
         class="cls-1"
         d="M 72.75,59.49 H 58 a 14.68,14.68 0 0 0 14.75,14.72 z"
         id="path454" />
      <path
         class="cls-1"
         d="M 72.75,44.77 A 14.73,14.73 0 0 1 87.48,59.49 H 72.75 Z"
         id="path456" />
      <rect
         class="cls-7"
         x="69.220001"
         y="89.839996"
         width="16.59"
         height="3.02"
         transform="rotate(30,77.516994,91.349384)"
         id="rect458" />
      <circle
         class="cls-7"
         cx="70.330002"
         cy="87.199997"
         r="1.51"
         id="circle460" />
      <circle
         class="cls-7"
         cx="84.699997"
         cy="95.5"
         r="1.51"
         id="circle462" />
      <path
         class="cls-1"
         d="m 46.94,73.64 -2.84,4.72 3.11,3.82 6.73,-1.9 2.62,2.72 -1,4.75 5.15,3.25 3.77,-3 24.14,13.2 -0.75,5.66 3.77,1.89 4.52,-3.77 7.92,2.26 2.64,4.52 h 4.53 l 2.26,-4.52 H 118 q 1.13,2.27 2.26,4.52 h 4.15 c 0.75,-1.63 1.51,-3.26 2.26,-4.9 L 48.27,73.6"
         id="path464" />
      <path
         class="cls-1"
         d="m 49.2,66.57 a 1,1 0 0 0 -0.85,-0.2 0.65,0.65 0 0 0 -0.3,0.37 c -0.33,0.82 -1.06,1.15 -1.64,2.09 a 4.9,4.9 0 0 0 -0.66,2.11 7.12,7.12 0 0 0 1.7,4.91 28.35,28.35 0 0 0 6.55,6.83 c 17.48,11.44 41.36,23.1 43.22,24.2 a 8.84,8.84 0 0 0 1.87,0.84 10.35,10.35 0 0 0 1.75,0.38 22.86,22.86 0 0 0 3.1,0.24 h 19.14 a 19.72,19.72 0 0 0 3,-0.73 3.37,3.37 0 0 0 1.4,-0.71 3.24,3.24 0 0 0 0.77,-2.27 7,7 0 0 0 -1,-3.43 C 125.18,97.8 55.1,69 49.2,66.57 Z"
         id="path466" />
      <path
         class="cls-2"
         d="m 54.84,60.44 a 19.84,19.84 0 0 0 -3.6,3.79 6.56,6.56 0 0 0 -1.24,2.28 6.06,6.06 0 0 0 0.78,4.15 c 1.17,2.42 3.07,4.4 6.7,7.43 6.63,5.55 8.38,6.18 9.78,5.74 a 6.09,6.09 0 0 1 2.4,-0.66 4.9,4.9 0 0 1 2.45,0.73 c 4.43,2.52 7.58,4.35 13.88,8 a 4.91,4.91 0 0 1 2.33,2.3 c 0.4,1 0,1.4 0.45,2.3 0.45,0.9 1.25,1.55 3.1,2.3 5.55,2.26 4.39,2.43 8,3.58 a 21.86,21.86 0 0 0 7.06,1.3 86.5,86.5 0 0 0 15.7,0 5.81,5.81 0 0 0 4,-1.48 5.3,5.3 0 0 0 1.2,-4.11 c -0.34,-2.24 -2.18,-3.59 -3.88,-4.79 -3.07,-2.16 -6.46,-3.18 -12.13,-4.87 a 20.63,20.63 0 0 1 -6.19,-3 84.22,84.22 0 0 1 -10.75,-11.84 c -0.58,-0.8 -1,-1.48 -1.13,-1.6 a 68.12,68.12 0 0 1 -6,-10.95 c -0.34,-0.81 -0.58,-1.37 -0.87,-2.2 a 33,33 0 0 1 -1.79,-8.4"
         id="path468" />
      <path
         class="cls-3"
         d="m 69.39,73.83 c -7.69,-1.9 -10.46,-2.78 -20.47,-7 a 60.83,60.83 0 0 1 -12.59,-6.7 69.53,69.53 0 0 1 -6,-4.92 71.4,71.4 0 0 1 -9.77,-11 60.48,60.48 0 0 1 -4.75,-7.91 3.42,3.42 0 0 1 -0.33,-1.13 c -0.08,-0.57 0.34,-0.89 0.89,-0.71 a 3,3 0 0 1 0.57,0.28 c 0.6,0.36 1.18,0.75 1.78,1.09 a 24.38,24.38 0 0 0 6.87,2.81 12.86,12.86 0 0 0 7.12,-0.2 6.07,6.07 0 0 0 4.07,-4 9.49,9.49 0 0 0 0,-5.36 A 8.78,8.78 0 0 0 35,25.81 20.93,20.93 0 0 0 30.18,21.64 53.87,53.87 0 0 0 23.62,18 c -3.66,-1.77 -7.34,-3.48 -11,-5.25 A 45.27,45.27 0 0 1 4.28,7.75 11.76,11.76 0 0 1 0.5,3 5.1,5.1 0 0 1 0,0.88 0.81,0.81 0 0 1 0.61,0 C 0.94,-0.08 1.16,0.06 1.4,0.55 a 5.08,5.08 0 0 0 1.5,1.9 c 0.43,0.33 0.89,0.64 1.34,0.93 a 30.85,30.85 0 0 0 7.12,3.4 52.35,52.35 0 0 0 9.79,2.22 c 4.44,0.63 8.91,0.91 13.37,1.26 3.44,0.27 6.87,0.55 10.27,1.11 a 81.54,81.54 0 0 1 17.61,5.07 51.37,51.37 0 0 1 9.41,4.92 c 1.52,1 3,2.14 4.41,3.31 a 33.25,33.25 0 0 1 5.61,5.94 31.53,31.53 0 0 1 5.7,13 c 0,0.2 0.09,0.47 0.14,0.8 0,0 0.33,1.93 0.46,4.08 A 79.65,79.65 0 0 1 87.4,61"
         id="path470"
         style="fill:url(#linearGradient791)" />
      <path
         class="cls-8"
         d="m 62.48,70 c 4.08,2.75 7,3.53 6.91,3.79"
         id="path472" />
      <path
         class="cls-4"
         d="m 87.35,57.55 a 20.3,20.3 0 0 0 -0.49,-3.26 24.21,24.21 0 0 0 -5.67,-10.37 27.83,27.83 0 0 0 -7.13,-6 c -2,-1.22 -4.09,-2.33 -6.18,-3.42 -3.29,-1.73 -6.67,-3.3 -9.8,-5.34 a 25.3,25.3 0 0 1 -4,-3.23 c -0.81,-0.81 -1.56,-1.66 -2.37,-2.46 a 4.55,4.55 0 0 0 -0.94,-0.69 c -0.33,-0.18 -0.53,-0.05 -0.55,0.31 a 1.88,1.88 0 0 0 0.07,0.63 c 0.16,0.48 0.33,0.95 0.53,1.41 a 22.27,22.27 0 0 0 4.38,6.54 c 1.52,1.65 3.11,3.24 4.65,4.87 A 19,19 0 0 1 62.51,40 7.42,7.42 0 0 1 63.6,43.57 7.75,7.75 0 0 1 63,46.48 5.74,5.74 0 0 1 57.55,50.3 12,12 0 0 1 52.86,49.4 16.53,16.53 0 0 1 46,44.56 c -0.38,-0.46 -0.75,-0.9 -1.14,-1.34 a 1.92,1.92 0 0 0 -0.5,-0.39 0.37,0.37 0 0 0 -0.6,0.32 3.36,3.36 0 0 0 0,0.84 14.67,14.67 0 0 0 0.84,3 53.07,53.07 0 0 0 3.4,7.62 32.28,32.28 0 0 0 4.37,5.79 A 94.47,94.47 0 0 0 64,71.32"
         id="path474"
         style="fill:url(#linearGradient793)" />
      <circle
         class="cls-1"
         cx="72.75"
         cy="59.490002"
         r="14.72"
         transform="rotate(-19.33,72.766591,59.490962)"
         id="circle476" />
      <circle
         class="cls-5"
         cx="72.75"
         cy="59.490002"
         r="9.9300003"
         id="circle478" />
      <line
         class="cls-6"
         x1="72.75"
         y1="59.490002"
         x2="72.75"
         y2="44.77"
         id="line480" />
      <path
         class="cls-1"
         d="M 72.75,59.49 H 58 a 14.68,14.68 0 0 0 14.75,14.72 z"
         id="path482" />
      <path
         class="cls-1"
         d="M 72.75,44.77 A 14.73,14.73 0 0 1 87.48,59.49 H 72.75 Z"
         id="path484" />
      <rect
         class="cls-7"
         x="69.220001"
         y="89.839996"
         width="16.59"
         height="3.02"
         transform="rotate(30,77.516994,91.349384)"
         id="rect486" />
      <circle
         class="cls-7"
         cx="70.330002"
         cy="87.199997"
         r="1.51"
         id="circle488" />
      <circle
         class="cls-7"
         cx="84.699997"
         cy="95.5"
         r="1.51"
         id="circle490" />
    </g>
  </g>
  <metadata
     id="metadata725">
    <rdf:RDF>
      <cc:Work
         rdf:about="">
        <dc:title>SmallLogoBlack_SVG</dc:title>
      </cc:Work>
    </rdf:RDF>
  </metadata>
</svg>
