<?xml version="1.0" encoding="UTF-8" standalone="no"?>
<svg
   id="Laag_1"
   viewBox="0 0 99.999999 99.999997"
   version="1.1"
   sodipodi:docname="logo_favicon.svg"
   inkscape:version="1.2.2 (b0a8486541, 2022-12-01)"
   width="100"
   height="100"
   inkscape:export-filename="../logo_favicon_64.png"
   inkscape:export-xdpi="61.439999"
   inkscape:export-ydpi="61.439999"
   xmlns:inkscape="http://www.inkscape.org/namespaces/inkscape"
   xmlns:sodipodi="http://sodipodi.sourceforge.net/DTD/sodipodi-0.dtd"
   xmlns="http://www.w3.org/2000/svg"
   xmlns:svg="http://www.w3.org/2000/svg">
  <sodipodi:namedview
     id="namedview357"
     pagecolor="#ffffff"
     bordercolor="#666666"
     borderopacity="1.0"
     inkscape:showpageshadow="2"
     inkscape:pageopacity="0.0"
     inkscape:pagecheckerboard="0"
     inkscape:deskcolor="#d1d1d1"
     showgrid="false"
     inkscape:zoom="8.6445038"
     inkscape:cx="31.291559"
     inkscape:cy="50.08963"
     inkscape:window-width="1920"
     inkscape:window-height="1131"
     inkscape:window-x="0"
     inkscape:window-y="0"
     inkscape:window-maximized="1"
     inkscape:current-layer="Laag_1"
     showguides="false" />
  <defs
     id="defs296">
    <style
       id="style294">.cls-1,.cls-2{fill:none;}.cls-3{fill:#f15a24;}.cls-3,.cls-4,.cls-5,.cls-2,.cls-6{stroke-miterlimit:10;stroke-width:5px;}.cls-3,.cls-4,.cls-5,.cls-6{stroke:#fff;}.cls-4{fill:#f7931e;}.cls-5{fill:#009cdc;}.cls-2{stroke:#000;}</style>
  </defs>
  <rect
     style="fill:#ffffff;stroke:#1a1a1a;stroke-width:0;stroke-linecap:round;stroke-linejoin:round"
     id="rect1590"
     width="100"
     height="100"
     x="5e-07"
     y="5e-07"
     rx="10"
     ry="10" />
  <rect
     class="cls-1"
     width="266.94"
     height="321.98001"
     id="rect304"
     x="0"
     y="0" />
  <g
     id="g10"
     transform="matrix(0.41116594,0,0,0.41116594,-2.7579901,-6.5218359)">
    <path
       class="cls-3"
       d="m 101.69,146.63 c 0,0 -3.32,-1.66 -5.97,-2.86 -0.46,-0.21 -0.91,-0.41 -0.91,-0.41 -0.01,0 -0.02,0 -0.02,0 -1.68,-0.75 -3.34,-1.45 -5.22,-2.21 -12.75,-5.16 -18.1,-5.3 -26.32,-12.3 C 48.6,116.38 44.31,98.71 43.27,94.24 41.8,87.86 41.54,82.37 41.59,78.54 c 1.38,3.19 7.81,17.15 21.97,21.02 1.43,0.39 14.72,4.02 19.74,-2.87 3.65,-5 1.11,-13.08 -2.23,-17.83 C 77.43,73.69 73.26,73.04 61.65,68.03 47.38,61.88 39.36,58.42 33.31,51.79 29.8,47.94 25.54,41.47 23.76,30.46 c 3.42,3.52 8.57,8.17 15.6,12.42 7.47,4.51 15.16,7.43 25.47,9.87 17.69,4.19 29.11,3.67 37.89,4.46 27.96,2.5 64.51,21.39 71.96,50.31 1.52,5.88 3.59,19.04 -5.09,37.57 0.34,2.05 0.64,4.23 0.88,6.53 0.24,2.33 0.39,4.55 0.47,6.65 -1.91,1.33 -3.83,2.65 -5.74,3.98 -1.53,-1.03 -3.52,-2.18 -5.96,-3.18 -2.38,-0.97 -4.55,-1.53 -6.32,-1.87 -0.35,-1.96 -0.71,-3.91 -1.06,-5.87 h -10.53 c -0.35,1.96 -0.71,3.91 -1.06,5.87 -2.06,0.4 -4.6,1.08 -7.34,2.31 -1.74,0.78 -3.24,1.63 -4.5,2.44 -0.29,0 -0.59,-0.02 -0.88,-0.02 -0.58,-0.39 -1.16,-0.78 -1.75,-1.18 -0.8,-0.55 -1.58,-1.09 -2.34,-1.63 -0.47,-0.2 -0.94,-0.41 -1.41,-0.61 -0.51,-0.47 -1.02,-0.93 -1.53,-1.4 -1.6,-0.94 -3.2,-1.87 -4.81,-2.81 -3.48,-1.94 -6.95,-3.88 -10.43,-5.82 -1.2,-0.61 -2.4,-1.23 -3.6,-1.84 z"
       id="path6"
       style="fill:#f15a24;stroke:#ffffff;stroke-width:5px;stroke-miterlimit:10" />
    <path
       class="cls-4"
       d="m 105.29,148.47 c 1.08,-3.78 1.97,-9.25 -0.85,-13.31 -2.58,-3.71 -6.33,-3.46 -9.11,-6.87 -2.03,-2.48 -3.76,-7.17 -1.07,-16.91 3.02,4.52 8.96,11.82 18.53,15.28 3.43,1.24 7.92,2.79 12.31,0.73 0.54,-0.25 5.16,-2.51 6.07,-7.22 0.19,-1.01 0.47,-3.45 -1.36,-6.91 -3.84,-7.26 -11.26,-8.23 -17.2,-12.3 -4.68,-3.21 -9.94,-9.37 -12.54,-22.35 4.93,4.46 9.59,7.67 13.29,9.92 9.31,5.64 17.8,8.35 19.52,8.78 0.31,0.08 1.89,0.46 3.99,1.2 0.51,0.18 1.03,0.38 1.59,0.6 6.25,2.52 10.34,6.09 13.21,8.64 0.27,0.24 3.9,3.49 6.76,7.1 2.79,3.52 7.47,10.67 11.18,30.24 1.46,7.73 2.95,18.3 3.18,31.06 -1.24,-2.42 -3.98,-6.95 -9.25,-10.67 -4.58,-3.23 -9.03,-4.4 -11.53,-4.87 -2.39,-0.45 -7.29,-1.06 -13.11,0.52 -3.34,0.9 -5.92,2.24 -7.66,3.3 -2.29,-1.54 -4.05,-2.74 -5.25,-3.58 -0.67,-0.47 -1.94,-1.35 -3.73,-2.56 -0.76,-0.52 -1.38,-0.93 -1.75,-1.18 -0.13,-0.07 -0.27,-0.14 -0.4,-0.21 -1.84,-1.13 -3.35,-2 -4.4,-2.6 -1.41,-0.8 -2.53,-1.4 -5.57,-3.11 -0.5,-0.28 -0.92,-0.52 -1.19,-0.67 -1.22,-0.68 -2.45,-1.36 -3.67,-2.04 z"
       id="path8"
       style="fill:#f7931e;stroke:#ffffff;stroke-width:5px;stroke-miterlimit:10" />
  </g>
  <g
     id="g20"
     transform="matrix(0.41116594,0,0,0.41116594,-2.7579901,-6.5218359)">
    <path
       class="cls-5"
       d="m 171.3,211.99 c -2.52,2.8 -7.69,7.59 -15.76,9.91 -5.61,1.61 -10.43,1.4 -13.27,1.06 7.7,5.44 15.4,10.88 23.11,16.33 0.79,2.82 1.58,5.63 2.37,8.45 h 8.45 c 0.77,-2.82 1.54,-5.63 2.3,-8.45 h 1.84 c 0.79,2.82 1.58,5.63 2.37,8.45 h 8.45 c 0.77,-2.82 1.54,-5.63 2.31,-8.45 h 1.84 c 0.79,2.82 1.58,5.63 2.37,8.45 h 8.45 c 0.77,-2.82 1.54,-5.63 2.31,-8.45 h 1.84 c 0.79,2.82 1.58,5.63 2.37,8.45 h 8.45 c 0.77,-2.82 1.54,-5.63 2.3,-8.45 h 0.28 c 1.66,-0.15 4.56,-0.69 6.88,-2.85 1.14,-1.64 3.55,-5.6 3.54,-11 0,0 0,-4.23 -2.07,-8.45 -3.62,-7.43 -16.94,-12.92 -33.96,-13.11 -6.09,-3.94 -12.18,-7.87 -18.27,-11.81 -0.11,1.81 -0.43,4.33 -1.29,7.22 -0.53,1.78 -2.35,7.3 -7.23,12.7 z"
       id="path14"
       style="fill:#009cdc;stroke:#ffffff;stroke-width:5px;stroke-miterlimit:10" />
    <path
       class="cls-5"
       d="m 105.29,148.47 c -1.48,6.6 -4.29,10.21 -6.61,12.29 -3.28,2.94 -10.31,7.12 -12.13,10.1 -1.4,2.3 -1.8,4.44 -1.94,5.34 -0.63,4.02 0.59,7.29 1.28,8.81 -0.79,2.82 -1.58,5.64 -2.37,8.45 2.41,1.47 4.81,2.93 7.22,4.4 2.12,-2.01 4.25,-4.01 6.37,-6.02 0.79,0.47 1.58,0.94 2.37,1.42 -0.79,2.82 -1.58,5.64 -2.37,8.45 2.41,1.47 4.81,2.93 7.22,4.4 2.05,-2.11 4.1,-4.21 6.15,-6.32 v 0 c 1.91,1.17 3.82,2.34 5.72,3.51 -0.56,-4.49 -0.84,-11.75 1.69,-20.07 1.42,-4.66 3.35,-8.42 5.1,-11.24 2.97,-2.65 5.94,-5.3 8.91,-7.95 -8.87,-5.19 -17.73,-10.38 -26.6,-15.57 z"
       id="path16"
       style="fill:#009cdc;stroke:#ffffff;stroke-width:5px;stroke-miterlimit:10" />
    <path
       class="cls-5"
       d="m 221.89,223.09 c 0.02,-0.73 -0.08,-1.38 -0.27,-1.98 -2.75,-8.71 -25.83,-8.02 -28.26,-7.93 -3.1,-2.64 -6.19,-5.27 -9.29,-7.91"
       id="path18"
       style="fill:#009cdc;stroke:#ffffff;stroke-width:5px;stroke-miterlimit:10" />
  </g>
  <circle
     class="cls-5"
     cx="-61.484676"
     cy="68.258507"
     transform="rotate(-80.78)"
     id="circle56"
     style="fill:#009cdc;stroke:#ffffff;stroke-width:2.05583px;stroke-miterlimit:10"
     r="8.7290535" />
  <circle
     class="cls-6"
     cx="57.523052"
     cy="71.394104"
     id="circle58"
     style="stroke:#ffffff;stroke-width:2.05583px;stroke-miterlimit:10"
     r="13.728829" />
  <path
     class="cls-6"
     d="m 49.895918,75.476989 c -0.23436,-0.390611 -2.113396,-3.651153 -0.666091,-7.322869 1.118377,-2.841151 3.795063,-4.839425 6.924043,-5.193026"
     id="path60"
     style="stroke:#ffffff;stroke-width:2.05583px;stroke-miterlimit:10" />
  <path
     class="cls-6"
     d="m 65.03505,67.644279 c 0.234362,0.390602 2.113396,3.651152 0.666091,7.322859 -1.118375,2.841161 -3.795062,4.839425 -6.924034,5.193026"
     id="path62"
     style="stroke:#ffffff;stroke-width:2.05583px;stroke-miterlimit:10" />
</svg>
