<?xml version="1.0" encoding="UTF-8" standalone="no"?>
<svg
   id="Laag_1"
   viewBox="0 0 350.94 115.98"
   version="1.1"
   sodipodi:docname="logo_text.svg"
   inkscape:version="1.2.2 (b0a8486541, 2022-12-01)"
   width="350.94"
   height="115.98"
   xmlns:inkscape="http://www.inkscape.org/namespaces/inkscape"
   xmlns:sodipodi="http://sodipodi.sourceforge.net/DTD/sodipodi-0.dtd"
   xmlns="http://www.w3.org/2000/svg"
   xmlns:svg="http://www.w3.org/2000/svg">
  <sodipodi:namedview
     id="namedview357"
     pagecolor="#ffffff"
     bordercolor="#666666"
     borderopacity="1.0"
     inkscape:showpageshadow="2"
     inkscape:pageopacity="0.0"
     inkscape:pagecheckerboard="0"
     inkscape:deskcolor="#d1d1d1"
     showgrid="false"
     inkscape:zoom="2.5563302"
     inkscape:cx="138.47976"
     inkscape:cy="114.61743"
     inkscape:window-width="1920"
     inkscape:window-height="1131"
     inkscape:window-x="0"
     inkscape:window-y="0"
     inkscape:window-maximized="1"
     inkscape:current-layer="Laag_1"
     showguides="false" />
  <defs
     id="defs296">
    <style
       id="style294">.cls-1,.cls-2{fill:none;}.cls-3{fill:#f15a24;}.cls-3,.cls-4,.cls-5,.cls-2,.cls-6{stroke-miterlimit:10;stroke-width:5px;}.cls-3,.cls-4,.cls-5,.cls-6{stroke:#fff;}.cls-4{fill:#f7931e;}.cls-5{fill:#009cdc;}.cls-2{stroke:#000;}</style>
  </defs>
  <rect
     class="cls-1"
     width="266.94"
     height="321.98001"
     id="rect304"
     x="0"
     y="0" />
  <g
     id="g344"
     transform="translate(77.804325,-209.42999)">
    <path
       d="m 32.63,234.52 c 2.2,0 3.72,1.52 3.72,3.72 v 11.44 c 0,2.2 -1.52,3.72 -3.72,3.72 h -9.84 v -18.89 h 9.84 z m -0.94,15.32 c 0.58,0 0.89,-0.31 0.89,-0.89 v -9.97 c 0,-0.58 -0.31,-0.89 -0.89,-0.89 h -5.11 v 11.75 z"
       id="path314" />
    <path
       d="m 52.41,234.52 v 3.57 h -8.58 v 3.88 h 6.95 v 3.57 h -6.95 v 4.3 h 8.58 v 3.57 H 40.06 v -18.89 z"
       id="path316" />
    <path
       d="m 59.51,234.52 v 15.32 h 7.92 v 3.57 h -11.7 v -18.89 z"
       id="path318" />
    <path
       d="m 70.29,234.52 h 12.35 v 3.57 h -8.58 v 4.04 h 6.95 v 3.57 h -6.95 v 7.71 h -3.78 v -18.89 z"
       id="path320" />
    <path
       d="m 92.79,238.03 v 15.37 h -3.78 v -15.37 h -4.93 v -3.51 h 13.64 v 3.51 z"
       id="path322" />
    <path
       d="m 47.55,290.35 h -4.92 v -17.38 l -5.65,13.22 h -3.77 l -5.65,-13.22 v 17.38 h -4.92 v -26.07 h 5.72 l 6.73,15.28 6.73,-15.28 h 5.72 v 26.07 z"
       id="path324" />
    <path
       d="m 70.33,264.28 v 4.92 H 58.49 v 5.36 h 9.6 v 4.92 h -9.6 v 5.94 h 11.84 v 4.92 H 53.28 v -26.07 h 17.05 z"
       id="path326" />
    <path
       d="m 88.54,290.35 -4.2,-9.67 h -4.2 v 9.67 h -5.21 v -26.07 h 13.29 c 3.04,0 5.14,2.1 5.14,5.14 v 6.12 c 0,2.46 -1.38,4.31 -3.55,4.92 l 4.34,9.88 h -5.61 z m -0.4,-19.92 c 0,-0.8 -0.43,-1.23 -1.23,-1.23 h -6.77 v 6.63 h 6.77 c 0.8,0 1.23,-0.43 1.23,-1.23 v -4.16 z"
       id="path328" />
    <path
       d="m 111.18,270.29 c 0,-0.8 -0.43,-1.23 -1.23,-1.23 h -5.65 c -0.8,0 -1.23,0.43 -1.23,1.23 v 14.05 c 0,0.8 0.43,1.23 1.23,1.23 h 5.65 c 0.8,0 1.23,-0.43 1.23,-1.23 v -3.19 h 5.21 v 4.2 c 0,3.04 -2.1,5.14 -5.14,5.14 h -8.26 c -3.04,0 -5.14,-2.1 -5.14,-5.14 v -16.08 c 0,-3.04 2.1,-5.14 5.14,-5.14 h 8.26 c 3.04,0 5.14,2.1 5.14,5.14 v 4.2 h -5.21 v -3.19 z"
       id="path330" />
    <path
       d="m 139.24,285.36 c 0,3.04 -2.1,5.14 -5.14,5.14 h -8.33 c -3.04,0 -5.14,-2.1 -5.14,-5.14 v -21.07 h 5.21 v 20.06 c 0,0.8 0.43,1.23 1.23,1.23 h 5.72 c 0.8,0 1.23,-0.43 1.23,-1.23 v -20.06 h 5.21 v 21.07 z"
       id="path332" />
    <path
       d="m 158.18,290.35 -4.2,-9.67 h -4.2 v 9.67 h -5.21 v -26.07 h 13.29 c 3.04,0 5.14,2.1 5.14,5.14 v 6.12 c 0,2.46 -1.38,4.31 -3.55,4.92 l 4.35,9.88 h -5.61 z m -0.4,-19.92 c 0,-0.8 -0.43,-1.23 -1.23,-1.23 h -6.77 v 6.63 h 6.77 c 0.8,0 1.23,-0.43 1.23,-1.23 v -4.16 z"
       id="path334" />
    <path
       d="m 168.11,264.28 h 5.21 v 26.07 h -5.21 z"
       id="path336" />
    <path
       d="m 182.16,290.35 h -5.4 l 8.4,-26.07 h 6.08 l 8.4,26.07 h -5.61 l -1.7,-5.87 h -8.44 l -1.74,5.87 z m 3.19,-10.79 h 5.58 l -2.75,-9.56 -2.82,9.56 z"
       id="path338" />
    <path
       d="m 223.19,264.28 v 26.07 h -5.61 l -9.59,-17.78 v 17.78 h -4.89 v -26.07 h 5.61 l 9.6,17.78 v -17.78 h 4.89 z"
       id="path340" />
    <path
       d="m 241.08,270.29 c 0,-0.8 -0.43,-1.23 -1.23,-1.23 h -5.21 c -0.8,0 -1.23,0.43 -1.23,1.23 v 2.46 c 0,0.8 0.43,1.05 1.23,1.23 l 6.73,1.45 c 2.82,0.62 5.21,2.32 5.21,5.21 v 4.71 c 0,3.04 -2.1,5.14 -5.14,5.14 h -8.11 c -3.04,0 -5.14,-2.1 -5.14,-5.14 v -3.33 h 5.07 v 2.32 c 0,0.8 0.43,1.23 1.23,1.23 h 5.65 c 0.8,0 1.23,-0.43 1.23,-1.23 v -2.75 c 0,-0.8 -0.43,-1.05 -1.23,-1.23 l -6.73,-1.45 c -2.82,-0.62 -5.21,-2.32 -5.21,-5.21 v -4.42 c 0,-3.04 2.1,-5.14 5.14,-5.14 h 7.68 c 3.04,0 5.14,2.1 5.14,5.14 v 3.04 h -5.07 v -2.03 z"
       id="path342" />
  </g>
  <line
     class="cls-2"
     x1="100.44432"
     y1="88.399994"
     x2="326.26434"
     y2="88.399994"
     id="line346" />
  <g
     id="g10"
     transform="matrix(0.33737793,0,0,0.33737793,9.955322,8.3534854)">
    <path
       class="cls-3"
       d="m 101.69,146.63 c 0,0 -3.32,-1.66 -5.97,-2.86 -0.46,-0.21 -0.91,-0.41 -0.91,-0.41 -0.01,0 -0.02,0 -0.02,0 -1.68,-0.75 -3.34,-1.45 -5.22,-2.21 -12.75,-5.16 -18.1,-5.3 -26.32,-12.3 C 48.6,116.38 44.31,98.71 43.27,94.24 41.8,87.86 41.54,82.37 41.59,78.54 c 1.38,3.19 7.81,17.15 21.97,21.02 1.43,0.39 14.72,4.02 19.74,-2.87 3.65,-5 1.11,-13.08 -2.23,-17.83 C 77.43,73.69 73.26,73.04 61.65,68.03 47.38,61.88 39.36,58.42 33.31,51.79 29.8,47.94 25.54,41.47 23.76,30.46 c 3.42,3.52 8.57,8.17 15.6,12.42 7.47,4.51 15.16,7.43 25.47,9.87 17.69,4.19 29.11,3.67 37.89,4.46 27.96,2.5 64.51,21.39 71.96,50.31 1.52,5.88 3.59,19.04 -5.09,37.57 0.34,2.05 0.64,4.23 0.88,6.53 0.24,2.33 0.39,4.55 0.47,6.65 -1.91,1.33 -3.83,2.65 -5.74,3.98 -1.53,-1.03 -3.52,-2.18 -5.96,-3.18 -2.38,-0.97 -4.55,-1.53 -6.32,-1.87 -0.35,-1.96 -0.71,-3.91 -1.06,-5.87 h -10.53 c -0.35,1.96 -0.71,3.91 -1.06,5.87 -2.06,0.4 -4.6,1.08 -7.34,2.31 -1.74,0.78 -3.24,1.63 -4.5,2.44 -0.29,0 -0.59,-0.02 -0.88,-0.02 -0.58,-0.39 -1.16,-0.78 -1.75,-1.18 -0.8,-0.55 -1.58,-1.09 -2.34,-1.63 -0.47,-0.2 -0.94,-0.41 -1.41,-0.61 -0.51,-0.47 -1.02,-0.93 -1.53,-1.4 -1.6,-0.94 -3.2,-1.87 -4.81,-2.81 -3.48,-1.94 -6.95,-3.88 -10.43,-5.82 -1.2,-0.61 -2.4,-1.23 -3.6,-1.84 z"
       id="path6"
       style="fill:#f15a24;stroke:#ffffff;stroke-width:5px;stroke-miterlimit:10" />
    <path
       class="cls-4"
       d="m 105.29,148.47 c 1.08,-3.78 1.97,-9.25 -0.85,-13.31 -2.58,-3.71 -6.33,-3.46 -9.11,-6.87 -2.03,-2.48 -3.76,-7.17 -1.07,-16.91 3.02,4.52 8.96,11.82 18.53,15.28 3.43,1.24 7.92,2.79 12.31,0.73 0.54,-0.25 5.16,-2.51 6.07,-7.22 0.19,-1.01 0.47,-3.45 -1.36,-6.91 -3.84,-7.26 -11.26,-8.23 -17.2,-12.3 -4.68,-3.21 -9.94,-9.37 -12.54,-22.35 4.93,4.46 9.59,7.67 13.29,9.92 9.31,5.64 17.8,8.35 19.52,8.78 0.31,0.08 1.89,0.46 3.99,1.2 0.51,0.18 1.03,0.38 1.59,0.6 6.25,2.52 10.34,6.09 13.21,8.64 0.27,0.24 3.9,3.49 6.76,7.1 2.79,3.52 7.47,10.67 11.18,30.24 1.46,7.73 2.95,18.3 3.18,31.06 -1.24,-2.42 -3.98,-6.95 -9.25,-10.67 -4.58,-3.23 -9.03,-4.4 -11.53,-4.87 -2.39,-0.45 -7.29,-1.06 -13.11,0.52 -3.34,0.9 -5.92,2.24 -7.66,3.3 -2.29,-1.54 -4.05,-2.74 -5.25,-3.58 -0.67,-0.47 -1.94,-1.35 -3.73,-2.56 -0.76,-0.52 -1.38,-0.93 -1.75,-1.18 -0.13,-0.07 -0.27,-0.14 -0.4,-0.21 -1.84,-1.13 -3.35,-2 -4.4,-2.6 -1.41,-0.8 -2.53,-1.4 -5.57,-3.11 -0.5,-0.28 -0.92,-0.52 -1.19,-0.67 -1.22,-0.68 -2.45,-1.36 -3.67,-2.04 z"
       id="path8"
       style="fill:#f7931e;stroke:#ffffff;stroke-width:5px;stroke-miterlimit:10" />
  </g>
  <g
     id="g20"
     transform="matrix(0.33737793,0,0,0.33737793,9.955322,8.3534854)">
    <path
       class="cls-5"
       d="m 171.3,211.99 c -2.52,2.8 -7.69,7.59 -15.76,9.91 -5.61,1.61 -10.43,1.4 -13.27,1.06 7.7,5.44 15.4,10.88 23.11,16.33 0.79,2.82 1.58,5.63 2.37,8.45 h 8.45 c 0.77,-2.82 1.54,-5.63 2.3,-8.45 h 1.84 c 0.79,2.82 1.58,5.63 2.37,8.45 h 8.45 c 0.77,-2.82 1.54,-5.63 2.31,-8.45 h 1.84 c 0.79,2.82 1.58,5.63 2.37,8.45 h 8.45 c 0.77,-2.82 1.54,-5.63 2.31,-8.45 h 1.84 c 0.79,2.82 1.58,5.63 2.37,8.45 h 8.45 c 0.77,-2.82 1.54,-5.63 2.3,-8.45 h 0.28 c 1.66,-0.15 4.56,-0.69 6.88,-2.85 1.14,-1.64 3.55,-5.6 3.54,-11 0,0 0,-4.23 -2.07,-8.45 -3.62,-7.43 -16.94,-12.92 -33.96,-13.11 -6.09,-3.94 -12.18,-7.87 -18.27,-11.81 -0.11,1.81 -0.43,4.33 -1.29,7.22 -0.53,1.78 -2.35,7.3 -7.23,12.7 z"
       id="path14"
       style="fill:#009cdc;stroke:#ffffff;stroke-width:5px;stroke-miterlimit:10" />
    <path
       class="cls-5"
       d="m 105.29,148.47 c -1.48,6.6 -4.29,10.21 -6.61,12.29 -3.28,2.94 -10.31,7.12 -12.13,10.1 -1.4,2.3 -1.8,4.44 -1.94,5.34 -0.63,4.02 0.59,7.29 1.28,8.81 -0.79,2.82 -1.58,5.64 -2.37,8.45 2.41,1.47 4.81,2.93 7.22,4.4 2.12,-2.01 4.25,-4.01 6.37,-6.02 0.79,0.47 1.58,0.94 2.37,1.42 -0.79,2.82 -1.58,5.64 -2.37,8.45 2.41,1.47 4.81,2.93 7.22,4.4 2.05,-2.11 4.1,-4.21 6.15,-6.32 v 0 c 1.91,1.17 3.82,2.34 5.72,3.51 -0.56,-4.49 -0.84,-11.75 1.69,-20.07 1.42,-4.66 3.35,-8.42 5.1,-11.24 2.97,-2.65 5.94,-5.3 8.91,-7.95 -8.87,-5.19 -17.73,-10.38 -26.6,-15.57 z"
       id="path16"
       style="fill:#009cdc;stroke:#ffffff;stroke-width:5px;stroke-miterlimit:10" />
    <path
       class="cls-5"
       d="m 221.89,223.09 c 0.02,-0.73 -0.08,-1.38 -0.27,-1.98 -2.75,-8.71 -25.83,-8.02 -28.26,-7.93 -3.1,-2.64 -6.19,-5.27 -9.29,-7.91"
       id="path18"
       style="fill:#009cdc;stroke:#ffffff;stroke-width:5px;stroke-miterlimit:10" />
  </g>
  <circle
     class="cls-5"
     cx="-62.02076"
     cy="70.26519"
     transform="rotate(-80.78)"
     id="circle56"
     style="fill:#009cdc;stroke:#ffffff;stroke-width:1.68689px;stroke-miterlimit:10"
     r="7.1625338" />
  <circle
     class="cls-6"
     cx="59.418304"
     cy="72.286591"
     id="circle58"
     style="stroke:#ffffff;stroke-width:1.68689px;stroke-miterlimit:10"
     r="11.265048" />
  <path
     class="cls-6"
     d="m 53.159938,75.636767 c -0.192302,-0.320512 -1.734125,-2.995916 -0.546554,-6.008704 0.917672,-2.331277 3.113999,-3.97094 5.681451,-4.261083"
     id="path60"
     style="stroke:#ffffff;stroke-width:1.68689px;stroke-miterlimit:10" />
  <path
     class="cls-6"
     d="m 65.582195,69.209718 c 0.192303,0.320505 1.734125,2.995915 0.546554,6.008696 -0.917671,2.331285 -3.113999,3.97094 -5.681444,4.261083"
     id="path62"
     style="stroke:#ffffff;stroke-width:1.68689px;stroke-miterlimit:10" />
</svg>
