<?xml version="1.0" encoding="UTF-8" standalone="no"?>
<svg
   width="650mm"
   height="130mm"
   viewBox="0 0 650 130"
   version="1.1"
   id="svg8"
   sodipodi:docname="rsa_logo.svg"
   inkscape:version="1.2.2 (b0a8486541, 2022-12-01)"
   xmlns:inkscape="http://www.inkscape.org/namespaces/inkscape"
   xmlns:sodipodi="http://sodipodi.sourceforge.net/DTD/sodipodi-0.dtd"
   xmlns="http://www.w3.org/2000/svg"
   xmlns:svg="http://www.w3.org/2000/svg"
   xmlns:rdf="http://www.w3.org/1999/02/22-rdf-syntax-ns#"
   xmlns:cc="http://creativecommons.org/ns#"
   xmlns:dc="http://purl.org/dc/elements/1.1/">
  <sodipodi:namedview
     id="namedview8"
     pagecolor="#ffffff"
     bordercolor="#666666"
     borderopacity="1.0"
     inkscape:showpageshadow="2"
     inkscape:pageopacity="0.0"
     inkscape:pagecheckerboard="0"
     inkscape:deskcolor="#d1d1d1"
     inkscape:document-units="mm"
     showgrid="false"
     inkscape:zoom="0.22792621"
     inkscape:cx="1814.1836"
     inkscape:cy="1368.8641"
     inkscape:window-width="1920"
     inkscape:window-height="1131"
     inkscape:window-x="0"
     inkscape:window-y="0"
     inkscape:window-maximized="1"
     inkscape:current-layer="text345" />
  <defs
     id="defs2" />
  <metadata
     id="metadata5">
    <rdf:RDF>
      <cc:Work
         rdf:about="">
        <dc:format>image/svg+xml</dc:format>
        <dc:type
           rdf:resource="http://purl.org/dc/dcmitype/StillImage" />
      </cc:Work>
    </rdf:RDF>
  </metadata>
  <circle
     style="opacity:1;fill:#ffffff;fill-opacity:1;stroke-width:0.0800516;stroke-linecap:square"
     id="path832"
     cx="85"
     cy="65"
     r="65" />
  <g
     id="layer1"
     transform="matrix(0.22834494,0,0,0.23217503,202.53216,58.199528)">
    <path
       style="fill:#e31a1a;fill-opacity:1;stroke-width:1"
       d="m -445.31697,308.93876 c -1.37795,-0.40069 -3.90024,-2.55867 -4.62202,-3.95447 -1.32564,-2.56353 -0.2219,-6.68651 2.3465,-8.76529 0.69035,-0.55873 2.40118,-1.33248 3.87897,-1.75429 31.25568,-8.92158 57.10283,-21.03473 83.07726,-38.93383 5.05745,-3.48512 13.54303,-9.91256 16.76512,-12.69883 0.68358,-0.59112 2.02519,-1.70977 2.98133,-2.48589 2.94601,-2.3913 8.62464,-7.49924 13.06188,-11.74915 2.32833,-2.23005 4.85672,-4.46755 5.61869,-4.97219 2.88036,-1.90772 7.85188,-0.7934 9.66417,2.16616 2.20038,3.59336 1.65611,6.7051 -1.79313,10.2514 -4.53764,4.66535 -11.50677,10.93191 -21.29766,19.15068 -2.17385,1.82482 -13.08093,10.03882 -15.65179,11.78723 -9.6955,6.59377 -16.57848,10.88044 -27.16389,16.91756 -4.00608,2.28476 -18.25847,9.19741 -23.63611,11.46387 -2.61938,1.10398 -5.23875,2.21516 -5.82084,2.46933 -4.73727,2.06841 -22.37387,8.19373 -27.34027,9.49548 -1.06715,0.27971 -3.12773,0.84137 -4.57902,1.24812 -2.82371,0.79143 -3.79755,0.85602 -5.48919,0.36411 z m -170.84546,-8.88265 c -27.48281,-10.55815 -52.84691,-25.12191 -76.19999,-43.7532 -14.93065,-11.91178 -29.65351,-26.34297 -41.60511,-40.78089 -2.08799,-2.52237 -4.12701,-4.97763 -4.53115,-5.45617 -1.20504,-1.42681 -8.78588,-11.69455 -10.30819,-13.96171 -0.77611,-1.15588 -1.49175,-2.18094 -1.5903,-2.27796 -0.0986,-0.097 -0.91186,-1.28764 -1.80733,-2.64583 -14.23261,-21.58707 -25.5762,-45.22734 -33.34765,-69.49722 -1.24259,-3.88056 -2.48975,-7.76993 -2.77146,-8.64306 -0.49203,-1.52495 -3.47447,-12.99714 -3.85191,-14.816662 -1.22552,-5.907828 -3.37338,-16.94261 -3.67365,-18.87361 -2.77071,-17.818346 -3.76529,-32.069012 -3.47155,-49.741665 0.10966,-6.596944 0.3552,-13.581944 0.54565,-15.522222 0.19046,-1.940277 0.43604,-4.7184024 0.54574,-6.1736107 0.4159,-5.5169574 1.47087,-13.7636527 2.68521,-20.9902773 0.5588,-3.325491 2.77307,-14.51157 3.17735,-16.051388 0.1783,-0.679097 0.81201,-3.298472 1.40826,-5.820833 2.72953,-11.547055 8.80482,-29.933211 13.05555,-39.51111 0.17222,-0.388055 0.7354,-1.73743 1.2515,-2.998611 3.94124,-9.631023 14.62529,-30.099491 20.07143,-38.452781 0.82226,-1.26118 2.73579,-4.19805 4.2523,-6.52638 4.34956,-6.67798 10.76284,-15.49391 15.65466,-21.51945 1.26017,-1.55222 2.93496,-3.6144 3.72176,-4.58262 0.7868,-0.96822 1.60174,-1.92072 1.81097,-2.11667 0.20923,-0.19594 1.871,-2.10251 3.69283,-4.23682 1.82183,-2.1343 7.01106,-7.61118 11.53163,-12.17083 19.40366,-19.5714 38.85539,-34.34538 63.59373,-48.30075 7.09996,-4.00522 24.79694,-12.39467 30.97001,-14.68167 1.30212,-0.48241 2.68499,-1.02291 3.07305,-1.20111 4.08177,-1.87443 20.7538,-7.41352 28.39861,-9.43512 26.918,-7.11822 48.56949,-9.99282 75.22042,-9.98679 12.41494,0.003 24.20897,0.63759 32.90597,1.77108 14.12673,1.84113 21.19047,3.09039 32.98472,5.8335 10.66955,2.48153 22.94487,6.25034 34.925,10.72278 10.36351,3.86893 26.61493,11.26636 35.10138,15.9777 13.43763,7.46003 25.04906,14.95861 35.80695,23.12389 15.40608,11.69329 32.32591,27.53219 43.56805,40.78476 0.97014,1.14363 1.92991,2.25368 2.13282,2.46678 1.08631,1.14081 7.13889,8.70516 9.90727,12.38189 12.61767,16.75758 23.03018,34.10461 30.81017,51.329167 1.00785,2.231319 2.1227,4.691944 2.47742,5.468055 2.15257,4.709534 6.73392,16.543362 8.60421,22.225 4.33793,13.178027 6.20448,20.078752 9.58984,35.454165 0.66816,3.034598 2.4348,13.6108294 3.12318,18.6972215 1.68716,12.4663584 2.65846,26.4070805 2.66689,38.2763875 0.0109,15.160695 -1.54224,33.540946 -4.06516,48.112185 -0.28156,1.626129 -0.51192,3.128856 -0.51192,3.339323 0,0.210503 -0.83344,-0.419064 -1.85208,-1.39901 -7.19963,-6.926122 -17.88245,-9.03926 -28.12539,-5.563447 -0.86836,0.294675 -1.74148,0.657966 -1.94027,0.807297 -0.19879,0.149366 -1.57911,0.930028 -3.06741,1.73482 l -2.70598,1.463216 -2.40929,-1.88475 c -9.24275,-7.230498 -21.49976,-12.935021 -32.5718,-15.159179 -7.47631,-1.501845 -10.15079,-1.725118 -18.49656,-1.544249 -8.21993,0.178153 -10.34189,0.435645 -17.13399,2.079166 -6.28142,1.519908 -12.79797,3.992739 -18.52084,7.028039 -2.82321,1.497365 -14.15139,7.946037 -14.81666,8.434528 -0.19403,0.142487 -1.14508,0.695361 -2.11349,1.228655 -0.96838,0.533294 -4.3815,2.484367 -7.58473,4.335709 -8.50737,4.917017 -14.25402,8.231187 -20.81706,12.005557 -3.20146,1.841114 -6.413,3.721244 -7.13673,4.178014 -0.72376,0.45678 -1.38236,0.83051 -1.46357,0.83051 -0.0812,0 -2.10841,1.15948 -4.50493,2.57659 -2.39649,1.4171 -4.59539,2.69331 -4.88643,2.83605 -0.29105,0.1427 -0.84847,0.45169 -1.23868,0.68661 -0.94435,0.5685 -6.02735,3.51338 -7.58077,4.39194 -1.98441,1.12236 -8.19566,4.72997 -9.34861,5.42988 -0.58208,0.35335 -1.80527,1.04222 -2.71819,1.53081 -0.91292,0.48864 -3.1013,1.76245 -4.86311,2.83076 -1.76177,1.06828 -3.27505,1.94236 -3.36282,1.94236 -0.0878,0 -1.86813,1.01321 -3.95633,2.25161 -2.08823,1.23839 -4.3524,2.56331 -5.03149,2.94431 -1.25854,0.70612 -7.92703,4.55514 -19.93195,11.50472 -3.68652,2.1341 -7.94318,4.572 -9.45924,5.41758 -1.51603,0.84553 -3.34165,1.90461 -4.05694,2.35352 -0.71526,0.44887 -2.01486,1.21373 -2.88798,1.69968 -0.87313,0.48595 -3.175,1.8034 -5.11528,2.9277 -1.94028,1.12427 -7.17903,4.14952 -11.64167,6.72271 -4.46264,2.5732 -10.41576,6.01141 -13.22916,7.64043 -2.81341,1.62905 -5.35341,3.07957 -5.64445,3.22336 -0.29104,0.14383 -0.84666,0.45572 -1.23472,0.69314 -0.87431,0.53485 -3.22865,1.90571 -7.58472,4.41636 -15.29988,8.81806 -20.0684,12.04266 -26.11947,17.6627 -5.5209,5.12759 -9.52735,10.06383 -13.48945,16.61996 -5.9796,9.8945 -9.24626,18.93968 -11.02058,30.51527 -0.68998,4.50145 -0.96222,14.33273 -0.50308,18.16806 0.17421,1.45521 0.42058,3.69203 0.54749,4.97074 l 0.23075,2.32491 -2.30587,1.28951 c -7.28961,4.0766 -11.83491,9.7886 -14.02741,17.62803 -1.07238,3.83437 -0.95993,11.41137 0.2148,14.47263 0.33954,0.88484 -0.21024,0.74941 -6.02302,-1.48367 z m 28.575,-187.33209 c 1.97965,-0.91655 2.86648,-2.01736 5.99783,-7.44506 1.51117,-2.61937 4.13737,-7.143746 5.83602,-10.054163 1.69864,-2.910416 3.44074,-5.926666 3.87133,-6.702777 0.4306,-0.776111 1.62028,-2.839861 2.64374,-4.586111 1.02346,-1.74625 2.17047,-3.730625 2.54891,-4.409722 0.37844,-0.679097 2.18903,-3.854097 4.02352,-7.055556 1.83449,-3.201458 3.5261,-6.264874 3.75913,-6.807587 0.5866,-1.366132 0.52977,-3.896572 -0.1227,-5.462764 -0.66452,-1.595155 -2.89564,-3.957426 -3.73772,-3.957426 -0.33722,0 -0.71125,-0.15875 -0.83117,-0.352778 -0.11991,-0.194027 -1.17936,-0.352777 -2.35432,-0.352777 -1.64745,0 -2.53214,0.215441 -3.86611,0.941493 -1.91228,1.040765 -2.12605,1.34052 -7.00167,9.818229 -1.67382,2.910416 -5.56503,9.657291 -8.64714,14.993055 -3.0821,5.335763 -7.25323,12.558888 -9.26917,16.051388 l -3.66533,6.349996 0.14784,2.50882 c 0.17651,2.99533 1.37976,5.11775 3.62101,6.38715 1.79506,1.0167 5.01046,1.07904 7.046,0.13659 z m 102.48195,-1.45274 c 3.97044,-1.28884 11.61394,-5.20283 16.29646,-8.34485 8.04266,-5.396759 12.32147,-10.573103 11.86889,-14.358549 l -0.11952,-0.999702 -2.82222,2.35525 c -7.99956,6.675826 -21.04097,15.465111 -30.34711,20.452431 -1.35368,0.72545 -2.61997,1.48315 -2.814,1.68374 -0.60473,0.62523 5.42889,0.0261 7.9375,-0.78832 z m -6.29088,-8.67547 c 0.73586,-0.46454 1.40674,-0.84462 1.49077,-0.84462 0.084,0 2.34897,-1.36815 5.03319,-3.040278 9.00126,-5.607438 18.18915,-12.236838 23.03462,-16.620313 2.17537,-1.967936 2.18669,-1.466215 -0.12746,-5.647055 l -1.02284,-1.84792 -2.15106,1.855716 c -8.76791,7.56412 -24.49213,18.094254 -35.01203,23.446704 -1.81254,0.922236 -3.29626,1.777256 -3.29714,1.900136 -0.001,0.12287 0.73678,1.43182 1.63927,2.90875 l 1.64086,2.68538 3.71691,-1.97594 c 2.04431,-1.08677 4.31902,-2.35599 5.05491,-2.82056 z m -13.69045,-8.324606 c 13.08607,-6.826814 28.34064,-17.120587 37.39098,-25.231442 l 1.35827,-1.21726 -1.32356,-3.156232 c -0.72795,-1.735913 -1.41852,-3.213911 -1.53465,-3.284467 -0.1161,-0.07052 -1.7986,1.218812 -3.73888,2.865261 -9.49582,8.057656 -22.14968,16.453696 -35.54401,23.584005 -1.59982,0.851676 -2.89143,1.763783 -2.87025,2.026955 0.0409,0.507824 3.59189,5.543162 3.90916,5.543162 0.10279,0 1.16161,-0.508494 2.35294,-1.129982 z m -7.7656,-12.350397 c 1.58186,-0.817245 5.23502,-2.880995 8.11816,-4.586111 2.88313,-1.705081 5.302,-3.100176 5.37524,-3.100176 0.25876,0 13.29694,-8.856274 15.43576,-10.484837 3.72159,-2.833758 9.16619,-7.382051 10.54082,-8.805545 l 1.31607,-1.362886 -1.06577,-3.6963 c -2.93402,-10.175525 -4.30336,-19.84153 -4.89667,-34.564319 -0.56885,-14.1165077 -0.68837,-15.71207215 -1.4218,-18.9783603 -2.29721,-10.2307137 -6.9221,-18.6520837 -14.28531,-26.0120197 -8.92162,-8.917653 -21.09039,-14.258547 -33.87929,-14.869685 -13.16329,-0.629031 -25.61146,3.572732 -35.8551,12.102553 -10.6023,8.828475 -17.01687,21.408823 -18.3251,35.9394573 -0.66466,7.3824497 0.53017,15.0479367 3.54671,22.7541657 2.65238,6.775916 6.71891,12.869012 12.05579,18.06383 3.44943,3.357612 5.76915,5.061035 11.94564,8.77194 6.11617,3.674639 15.24943,9.755963 18.69456,12.447622 6.70319,5.237162 13.85548,11.861941 17.47499,16.186149 0.76924,0.918986 1.6125,1.673049 1.87391,1.675695 0.26142,0.0035 1.76955,-0.663893 3.35139,-1.481173 z m -84.26002,-71.065783 c 4.00242,-2.1597228 5.5452,-6.3716001 3.71711,-10.14793788 -0.85132,-1.75859362 -2.70792,-3.39759562 -4.5635,-4.02863742 -0.86463,-0.2940438 -8.45915,-0.4078146 -27.22284,-0.4078146 -24.73961,0 -26.09908,0.032879 -27.55221,0.6664183 -3.96845,1.7301668 -5.97312,6.6233497 -4.13723,10.0985282 1.31629,2.4916376 2.93709,3.8142754 5.4309,4.4318374 0.58208,0.144145 12.72645,0.236651 26.9875,0.205567 25.83976,-0.05632 25.93403,-0.05914 27.34027,-0.817961 z m 186.26667,0 c 6.07247,-3.2767301 5.80623,-11.23877612 -0.4657,-13.9272426 -1.44879,-0.6210229 -2.94972,-0.6571473 -27.30388,-0.6571473 -18.93996,0 -26.15568,0.1117494 -27.22283,0.4216012 -2.14341,0.6223458 -3.75059,1.9908448 -4.67868,3.98382402 -2.17636,4.67356098 0.4167,9.74295668 5.5197,10.79094668 0.6791,0.139463 12.82347,0.230145 26.9875,0.201517 25.66321,-0.05188 25.75768,-0.05471 27.16389,-0.813499 z m -152.75278,-58.72043 c 1.9143,-0.5259 4.1503,-2.889878 4.74605,-5.017689 0.87454,-3.123568 0.52684,-4.074911 -5.01577,-13.723464 -11.58333,-20.164199 -15.75554,-27.379333 -17.14243,-29.644988 -0.80381,-1.313106 -1.46146,-2.461659 -1.46146,-2.55234 0,-0.32385 -2.2459,-3.895153 -2.96824,-4.719933 -1.17251,-1.33878 -3.30988,-2.14194 -5.72314,-2.15057 -1.87002,-0.007 -2.39366,0.14846 -3.8433,1.13878 -3.25922,2.22652 -4.34567,6.606442 -2.51584,10.142358 1.05062,2.030176 2.72013,5.011674 3.06188,5.468056 0.14529,0.194027 2.40177,4.083402 5.01439,8.643055 2.61261,4.559653 6.54516,11.385902 8.73898,15.169444 2.19383,3.783541 4.38121,7.593541 4.86085,8.466666 3.11213,5.665304 4.19616,7.140737 5.89575,8.024506 2.2668,1.178708 4.04401,1.390251 6.35228,0.756119 z m 68.99917,-0.363524 c 2.35141,-1.32546 3.15271,-2.499755 10.55801,-15.472656 1.60595,-2.813403 3.17048,-5.512153 3.47669,-5.997222 0.5678,-0.899389 0.72313,-1.16821 3.68021,-6.368457 0.93208,-1.639083 1.97895,-3.456404 2.3264,-4.038487 3.21451,-5.385481 8.48441,-14.786133 8.80593,-15.708446 0.88685,-2.544068 0.23086,-5.542562 -1.64497,-7.519002 -3.49719,-3.68473 -9.31658,-3.02634 -12.24488,1.38536 -0.67659,1.01933 -1.23017,1.93021 -1.23017,2.024194 0,0.09398 -1.19062,2.170218 -2.64583,4.613871 -1.45521,2.443652 -2.64584,4.519873 -2.64584,4.613828 0,0.09395 -0.64907,1.231272 -1.44236,2.527374 -0.79329,1.296106 -2.35543,3.957962 -3.47134,5.915244 -1.87191,3.283147 -5.1938,9.046894 -11.40384,19.786465 -1.73797,3.005614 -2.51905,4.744882 -2.69329,5.997222 -0.57161,4.108482 1.33525,7.382584 5.07611,8.715713 1.05012,0.374224 4.52515,0.07406 5.49917,-0.475001 z m -7.84925,309.03667 c -2.84156,-0.79611 -5.40962,-4.26053 -6.76474,-9.126 -1.1755,-4.22053 -1.29212,-4.96249 -1.29212,-8.22068 0,-6.29902 1.91119,-12.04531 5.67729,-17.06954 7.66476,-10.22537 21.02573,-14.0631 32.84043,-9.43292 5.35559,2.09881 10.7291,6.51351 13.55704,11.138 1.2567,2.05504 1.37107,2.45294 1.37107,4.76945 0,2.23711 -0.1221,2.70306 -1.06306,4.05695 -1.8481,2.65913 -5.24104,3.76237 -8.32111,2.70566 -1.64888,-0.56571 -3.42787,-1.96864 -4.06933,-3.20911 -0.91486,-1.76915 -3.73655,-4.31627 -5.94928,-5.37037 -2.76299,-1.31629 -6.91938,-1.62275 -9.74827,-0.71879 -4.07014,1.30059 -7.41606,4.53655 -8.82594,8.53581 -1.1098,3.14809 -0.8014,7.57598 0.75319,10.81451 1.0451,2.17713 1.13844,2.63056 0.97102,4.71643 -0.30766,3.833 -2.58516,6.23365 -6.27225,6.61141 -0.8647,0.0886 -2.15348,-0.004 -2.86394,-0.20081 z m 132.54547,-76.66111 c -2.04156,-0.75526 -3.06419,-1.62641 -4.29271,-3.65679 -1.59653,-2.63863 -2.86335,-6.4982 -3.36183,-10.24219 -1.42056,-10.66945 3.71676,-21.59801 12.92581,-27.49702 1.65559,-1.06052 5.8147,-2.88456 7.9375,-3.48111 3.46919,-0.9749 11.27923,-0.88942 14.69994,0.16087 3.0789,0.94534 6.05366,2.33098 8.40701,3.91594 2.58007,1.73768 6.52,5.87608 8.03179,8.4364 1.12438,1.90419 1.31682,2.53785 1.31682,4.33557 0,4.47008 -2.85129,7.32825 -7.34293,7.36056 -1.85561,0.0134 -4.35098,-1.28019 -5.53346,-2.86843 -4.55179,-6.11382 -8.84266,-8.20452 -14.73584,-7.17991 -4.51584,0.78514 -7.70506,3.14268 -9.69324,7.16544 -2.10182,4.25277 -2.03356,8.50646 0.20782,12.9455 3.06581,6.07191 -2.42994,12.8754 -8.56668,10.60517 z"
       id="path847" />
  </g>
  <g
     aria-label="Robotics Student
Association"
     id="text345"
     style="font-size:10.5833px;line-height:1.25;fill:#e31a1a;stroke-width:0.264583">
    <path
       d="m 206.76591,32.88136 h -4.27536 v 15.578715 h -8.60929 V 5.8235905 h 13.73386 q 6.47161,0 9.98561,3.3675795 3.54328,3.338296 3.54328,9.517073 0,8.492157 -6.17878,11.889019 l 7.46724,17.452847 v 0.409966 h -9.25352 z m -4.27536,-7.174409 h 4.89031 q 2.57693,0 3.86539,-1.698431 1.28847,-1.727715 1.28847,-4.597478 0,-6.413043 -5.00745,-6.413043 h -5.03672 z"
       style="font-weight:bold;font-size:59.9722px;font-family:'Roboto Condensed';-inkscape-font-specification:'Roboto Condensed, Bold'"
       id="path395" />
    <path
       d="m 225.68292,31.592895 q 0,-7.203692 3.39686,-11.303354 3.39687,-4.099662 9.39994,-4.099662 6.06165,0 9.45851,4.099662 3.39686,4.099662 3.39686,11.36192 v 2.020548 q 0,7.232975 -3.36758,11.303354 -3.36758,4.070378 -9.42922,4.070378 -6.09093,0 -9.48779,-4.070378 -3.36758,-4.099662 -3.36758,-11.361921 z m 8.31646,2.079114 q 0,8.492157 4.53891,8.492157 4.18751,0 4.50963,-7.086559 l 0.0293,-3.484712 q 0,-4.333929 -1.20061,-6.413043 -1.20062,-2.108398 -3.39687,-2.108398 -2.10839,0 -3.30901,2.108398 -1.17133,2.079114 -1.17133,6.413043 z"
       style="font-weight:bold;font-size:59.9722px;font-family:'Roboto Condensed';-inkscape-font-specification:'Roboto Condensed, Bold'"
       id="path397" />
    <path
       d="m 281.20406,33.642726 q 0,7.701507 -2.4598,11.566903 -2.45979,3.836112 -7.73079,3.836112 -4.12894,0 -6.61802,-3.718979 l -0.26355,3.133313 h -7.64295 V 3.4809265 h 8.28718 V 19.352475 q 2.34266,-3.162596 6.17877,-3.162596 5.271,0 7.7308,3.836112 2.45979,3.806829 2.51836,11.186221 z m -8.28717,-2.079115 q 0,-5.007444 -0.96635,-6.705875 -0.96635,-1.727715 -3.36758,-1.727715 -2.60622,0 -3.80683,2.371947 v 14.436667 q 1.11276,2.225531 3.86539,2.225531 2.37195,0 3.27973,-1.552015 0.93707,-1.552015 0.99564,-6.03236 z"
       style="font-weight:bold;font-size:59.9722px;font-family:'Roboto Condensed';-inkscape-font-specification:'Roboto Condensed, Bold'"
       id="path399" />
    <path
       d="m 285.21587,31.592895 q 0,-7.203692 3.39686,-11.303354 3.39687,-4.099662 9.39994,-4.099662 6.06164,0 9.45851,4.099662 3.39686,4.099662 3.39686,11.36192 v 2.020548 q 0,7.232975 -3.36758,11.303354 -3.36758,4.070378 -9.42922,4.070378 -6.09093,0 -9.48779,-4.070378 -3.36758,-4.099662 -3.36758,-11.361921 z m 8.31646,2.079114 q 0,8.492157 4.53891,8.492157 4.18751,0 4.50963,-7.086559 l 0.0293,-3.484712 q 0,-4.333929 -1.20062,-6.413043 -1.20061,-2.108398 -3.39686,-2.108398 -2.1084,0 -3.30901,2.108398 -1.17133,2.079114 -1.17133,6.413043 z"
       style="font-weight:bold;font-size:59.9722px;font-family:'Roboto Condensed';-inkscape-font-specification:'Roboto Condensed, Bold'"
       id="path401" />
    <path
       d="m 325.65611,8.9861869 v 7.7893581 h 4.24608 v 6.237343 h -4.24608 V 38.73802 q 0,1.874131 0.49781,2.57693 0.5271,0.702799 1.99127,0.702799 1.20061,0 1.96198,-0.204983 l -0.0586,6.442326 q -2.10839,0.790649 -4.56819,0.790649 -8.02363,0 -8.11148,-9.194956 V 23.012888 h -3.66041 v -6.237343 h 3.66041 V 8.9861869 Z"
       style="font-weight:bold;font-size:59.9722px;font-family:'Roboto Condensed';-inkscape-font-specification:'Roboto Condensed, Bold'"
       id="path403" />
    <path
       d="m 343.13823,48.460075 h -8.31646 v -31.68453 h 8.31646 z M 334.44109,8.5762207 q 0,-1.9326978 1.2299,-3.1625964 1.2299,-1.2298986 3.27973,-1.2298986 2.04983,0 3.27973,1.2298986 1.2299,1.2298986 1.2299,3.1625964 0,1.9034143 -1.2299,3.1625963 -1.20062,1.259182 -3.27973,1.259182 -2.07911,0 -3.30901,-1.259182 -1.20062,-1.259182 -1.20062,-3.1625963 z"
       style="font-weight:bold;font-size:59.9722px;font-family:'Roboto Condensed';-inkscape-font-specification:'Roboto Condensed, Bold'"
       id="path405" />
    <path
       d="m 361.00105,42.164166 q 3.60184,0 3.66041,-4.685328 h 7.78936 q -0.0586,5.183144 -3.19188,8.375024 -3.13332,3.191879 -8.08219,3.191879 -6.12021,0 -9.34138,-3.806829 -3.22116,-3.806829 -3.27973,-11.215504 v -2.518363 q 0,-7.467242 3.1626,-11.391204 3.19188,-3.923962 9.39994,-3.923962 5.24171,0 8.25789,3.250446 3.01618,3.221163 3.07475,9.165673 h -7.78936 q -0.0293,-2.66478 -0.8785,-4.099662 -0.84922,-1.434882 -2.8112,-1.434882 -2.16696,0 -3.10403,1.552015 -0.93706,1.522732 -0.99563,5.94451 v 3.221163 q 0,3.865396 0.38068,5.417411 0.38069,1.522731 1.25918,2.254814 0.8785,0.702799 2.48909,0.702799 z"
       style="font-weight:bold;font-size:59.9722px;font-family:'Roboto Condensed';-inkscape-font-specification:'Roboto Condensed, Bold'"
       id="path407" />
    <path
       d="m 391.16285,39.967918 q 0,-1.054198 -1.02492,-1.932697 -0.99563,-0.907783 -4.48035,-2.430514 -5.12457,-2.079115 -7.05727,-4.304645 -1.90341,-2.225531 -1.90341,-5.534544 0,-4.158229 2.98689,-6.852292 3.01618,-2.723347 7.96506,-2.723347 5.21243,0 8.34574,2.694063 3.13331,2.694064 3.13331,7.232975 h -8.28717 q 0,-3.865395 -3.22116,-3.865395 -1.31775,0 -2.16697,0.819932 -0.84921,0.819933 -0.84921,2.284098 0,1.054198 0.93706,1.874131 0.93707,0.790649 4.42178,2.284097 5.06601,1.874131 7.14513,4.187512 2.10839,2.284098 2.10839,5.94451 0,4.246079 -3.19188,6.823009 -3.19188,2.57693 -8.37502,2.57693 -3.48471,0 -6.14949,-1.347031 -2.66478,-1.376316 -4.18752,-3.806829 -1.49344,-2.430514 -1.49344,-5.241711 h 7.8772 q 0.0586,2.166964 0.99564,3.250446 0.96634,1.083482 3.13331,1.083482 3.3383,0 3.3383,-3.01618 z"
       style="font-weight:bold;font-size:59.9722px;font-family:'Roboto Condensed';-inkscape-font-specification:'Roboto Condensed, Bold'"
       id="path409" />
    <path
       d="m 436.61053,37.273855 q 0,-2.606214 -1.34703,-3.923962 -1.31775,-1.347032 -4.83175,-2.781914 -6.41304,-2.430514 -9.22423,-5.68096 -2.8112,-3.27973 -2.8112,-7.730791 0,-5.388128 3.80683,-8.6385739 3.83611,-3.2797296 9.72205,-3.2797296 3.92397,0 6.99871,1.6691481 3.07475,1.6398648 4.71461,4.6560444 1.66915,3.01618 1.66915,6.852293 h -8.58001 q 0,-2.986897 -1.28846,-4.538912 -1.25918,-1.581298 -3.66041,-1.581298 -2.25482,0 -3.514,1.347032 -1.25918,1.317748 -1.25918,3.572562 0,1.756998 1.4056,3.19188 1.4056,1.405598 4.97816,2.92833 6.23734,2.254814 9.04854,5.534544 2.84048,3.279729 2.84048,8.34574 0,5.563827 -3.54328,8.69714 -3.54328,3.133313 -9.63421,3.133313 -4.12894,0 -7.52581,-1.698431 -3.39686,-1.698431 -5.32956,-4.861028 -1.90341,-3.162596 -1.90341,-7.467241 h 8.63857 q 0,3.689695 1.43489,5.358844 1.43488,1.669148 4.68532,1.669148 4.50963,0 4.50963,-4.773178 z"
       style="font-weight:bold;font-size:59.9722px;font-family:'Roboto Condensed';-inkscape-font-specification:'Roboto Condensed, Bold'"
       id="path411" />
    <path
       d="m 460.21287,8.9861869 v 7.7893581 h 4.24608 v 6.237343 h -4.24608 V 38.73802 q 0,1.874131 0.49782,2.57693 0.5271,0.702799 1.99126,0.702799 1.20062,0 1.96198,-0.204983 l -0.0586,6.442326 q -2.1084,0.790649 -4.5682,0.790649 -8.02362,0 -8.11147,-9.194956 V 23.012888 h -3.66042 v -6.237343 h 3.66042 V 8.9861869 Z"
       style="font-weight:bold;font-size:59.9722px;font-family:'Roboto Condensed';-inkscape-font-specification:'Roboto Condensed, Bold'"
       id="path413" />
    <path
       d="m 484.57657,45.561029 q -2.57693,3.484712 -6.91086,3.484712 -4.36321,0 -6.61802,-2.986896 -2.25482,-3.01618 -2.25482,-8.755707 V 16.775545 h 8.28717 v 20.732576 q 0.0586,4.626762 3.07475,4.626762 2.84048,0 4.09966,-2.459798 v -22.89954 h 8.34574 v 31.68453 h -7.78935 z"
       style="font-weight:bold;font-size:59.9722px;font-family:'Roboto Condensed';-inkscape-font-specification:'Roboto Condensed, Bold'"
       id="path415" />
    <path
       d="m 497.40267,31.651461 q 0,-7.789358 2.63549,-11.62547 2.6355,-3.836112 7.67223,-3.836112 3.66041,0 6.09092,3.162596 V 3.4809265 h 8.34575 V 48.460075 h -7.52581 l -0.38069,-3.221163 q -2.54764,3.806829 -6.55945,3.806829 -4.97817,0 -7.61366,-3.806829 -2.60622,-3.806829 -2.66478,-11.18622 z m 8.31645,2.079114 q 0,4.685328 0.99564,6.55946 0.99563,1.844848 3.36758,1.844848 2.45979,0 3.71897,-2.196248 v -14.46595 q -1.22989,-2.342664 -3.68969,-2.342664 -2.2841,0 -3.3383,1.844848 -1.0542,1.844848 -1.0542,6.559459 z"
       style="font-weight:bold;font-size:59.9722px;font-family:'Roboto Condensed';-inkscape-font-specification:'Roboto Condensed, Bold'"
       id="path417" />
    <path
       d="m 541.03477,49.045741 q -6.38376,0 -9.95632,-3.806829 -3.57257,-3.806829 -3.57257,-10.893387 v -2.518364 q 0,-7.496525 3.27973,-11.566904 3.27973,-4.070378 9.39994,-4.070378 5.9738,0 8.98998,3.836112 3.01618,3.806829 3.07474,11.303354 v 4.070379 h -16.4865 q 0.1757,3.513996 1.55202,5.15386 1.37631,1.610582 4.24608,1.610582 4.15823,0 6.94014,-2.84048 l 3.25045,5.007444 q -1.52274,2.108398 -4.42178,3.426146 -2.89905,1.288465 -6.29591,1.288465 z M 535.82234,29.60163 h 8.28718 v -0.761366 q -0.0586,-2.84048 -0.93707,-4.304645 -0.8785,-1.464165 -3.04546,-1.464165 -2.16697,0 -3.1626,1.552015 -0.96635,1.552015 -1.14205,4.978161 z"
       style="font-weight:bold;font-size:59.9722px;font-family:'Roboto Condensed';-inkscape-font-specification:'Roboto Condensed, Bold'"
       id="path419" />
    <path
       d="m 564.51997,16.775545 0.23427,3.133313 q 2.8112,-3.718979 7.35011,-3.718979 8.17004,0 8.4043,11.44977 V 48.460075 H 572.1922 V 28.254598 q 0,-2.694063 -0.81993,-3.894679 -0.79065,-1.229898 -2.8112,-1.229898 -2.25482,0 -3.514,2.313381 v 23.016673 h -8.31645 v -31.68453 z"
       style="font-weight:bold;font-size:59.9722px;font-family:'Roboto Condensed';-inkscape-font-specification:'Roboto Condensed, Bold'"
       id="path421" />
    <path
       d="m 596.08738,8.9861869 v 7.7893581 h 4.24608 v 6.237343 h -4.24608 V 38.73802 q 0,1.874131 0.49782,2.57693 0.5271,0.702799 1.99126,0.702799 1.20062,0 1.96198,-0.204983 l -0.0586,6.442326 q -2.1084,0.790649 -4.5682,0.790649 -8.02362,0 -8.11147,-9.194956 V 23.012888 h -3.66041 v -6.237343 h 3.66041 V 8.9861869 Z"
       style="font-weight:bold;font-size:59.9722px;font-family:'Roboto Condensed';-inkscape-font-specification:'Roboto Condensed, Bold'"
       id="path423" />
    <path
       d="m 214.20387,114.6989 h -11.74261 l -2.28409,8.72642 h -9.10711 l 13.3239,-42.636481 h 7.87721 l 13.41175,42.636481 h -9.19496 z m -9.86848,-7.17441 h 7.96506 l -3.98253,-15.198031 z"
       style="font-weight:bold;font-size:59.9722px;font-family:'Roboto Condensed';-inkscape-font-specification:'Roboto Condensed, Bold'"
       id="path425" />
    <path
       d="m 243.28218,114.93317 q 0,-1.0542 -1.02491,-1.9327 -0.99563,-0.90778 -4.48035,-2.43052 -5.12457,-2.07911 -7.05727,-4.30464 -1.90342,-2.22553 -1.90342,-5.53454 0,-4.158233 2.9869,-6.852296 3.01618,-2.723347 7.96506,-2.723347 5.21243,0 8.34574,2.694063 3.13331,2.694064 3.13331,7.23298 h -8.28717 q 0,-3.8654 -3.22117,-3.8654 -1.31774,0 -2.16696,0.819932 -0.84921,0.819933 -0.84921,2.284098 0,1.0542 0.93706,1.87413 0.93707,0.79065 4.42178,2.2841 5.06601,1.87413 7.14512,4.18751 2.1084,2.2841 2.1084,5.94451 0,4.24608 -3.19188,6.82301 -3.19188,2.57693 -8.37502,2.57693 -3.48471,0 -6.14949,-1.34703 -2.66479,-1.37632 -4.18752,-3.80683 -1.49345,-2.43052 -1.49345,-5.24171 h 7.87721 q 0.0586,2.16696 0.99563,3.25044 0.96635,1.08349 3.13332,1.08349 3.33829,0 3.33829,-3.01618 z"
       style="font-weight:bold;font-size:59.9722px;font-family:'Roboto Condensed';-inkscape-font-specification:'Roboto Condensed, Bold'"
       id="path427" />
    <path
       d="m 270.51565,114.93317 q 0,-1.0542 -1.02491,-1.9327 -0.99564,-0.90778 -4.48035,-2.43052 -5.12458,-2.07911 -7.05727,-4.30464 -1.90342,-2.22553 -1.90342,-5.53454 0,-4.158233 2.9869,-6.852296 3.01618,-2.723347 7.96506,-2.723347 5.21242,0 8.34574,2.694063 3.13331,2.694064 3.13331,7.23298 h -8.28717 q 0,-3.8654 -3.22117,-3.8654 -1.31775,0 -2.16696,0.819932 -0.84922,0.819933 -0.84922,2.284098 0,1.0542 0.93707,1.87413 0.93706,0.79065 4.42178,2.2841 5.06601,1.87413 7.14512,4.18751 2.1084,2.2841 2.1084,5.94451 0,4.24608 -3.19188,6.82301 -3.19188,2.57693 -8.37502,2.57693 -3.48472,0 -6.1495,-1.34703 -2.66478,-1.37632 -4.18751,-3.80683 -1.49345,-2.43052 -1.49345,-5.24171 h 7.87721 q 0.0586,2.16696 0.99563,3.25044 0.96635,1.08349 3.13332,1.08349 3.33829,0 3.33829,-3.01618 z"
       style="font-weight:bold;font-size:59.9722px;font-family:'Roboto Condensed';-inkscape-font-specification:'Roboto Condensed, Bold'"
       id="path429" />
    <path
       d="m 282.75607,106.55814 q 0,-7.203689 3.39686,-11.303351 3.39686,-4.099662 9.39994,-4.099662 6.06164,0 9.45851,4.099662 3.39686,4.099662 3.39686,11.361921 v 2.02055 q 0,7.23297 -3.36758,11.30335 -3.36758,4.07038 -9.42922,4.07038 -6.09093,0 -9.48779,-4.07038 -3.36758,-4.09966 -3.36758,-11.36192 z m 8.31646,2.07912 q 0,8.49215 4.53891,8.49215 4.18751,0 4.50963,-7.08655 l 0.0293,-3.48472 q 0,-4.33393 -1.20062,-6.41304 -1.20061,-2.108398 -3.39686,-2.108398 -2.1084,0 -3.30901,2.108398 -1.17133,2.07911 -1.17133,6.41304 z"
       style="font-weight:bold;font-size:59.9722px;font-family:'Roboto Condensed';-inkscape-font-specification:'Roboto Condensed, Bold'"
       id="path431" />
    <path
       d="m 325.01188,117.12941 q 3.60185,0 3.66041,-4.68532 h 7.78936 q -0.0586,5.18314 -3.19188,8.37502 -3.13331,3.19188 -8.08219,3.19188 -6.12021,0 -9.34137,-3.80683 -3.22117,-3.80683 -3.27973,-11.2155 v -2.51837 q 0,-7.467239 3.16259,-11.391201 3.19188,-3.923962 9.39994,-3.923962 5.24171,0 8.25789,3.250446 3.01618,3.221163 3.07475,9.165677 h -7.78936 q -0.0293,-2.66478 -0.8785,-4.099666 -0.84921,-1.434882 -2.81119,-1.434882 -2.16697,0 -3.10403,1.552015 -0.93707,1.522733 -0.99564,5.944513 v 3.22116 q 0,3.8654 0.38069,5.41741 0.38068,1.52273 1.25918,2.25481 0.8785,0.7028 2.48908,0.7028 z"
       style="font-weight:bold;font-size:59.9722px;font-family:'Roboto Condensed';-inkscape-font-specification:'Roboto Condensed, Bold'"
       id="path433" />
    <path
       d="m 349.84412,123.42532 h -8.31646 V 91.740793 h 8.31646 z m -8.69714,-39.883851 q 0,-1.932698 1.2299,-3.162597 1.2299,-1.229898 3.27973,-1.229898 2.04983,0 3.27973,1.229898 1.22989,1.229899 1.22989,3.162597 0,1.903414 -1.22989,3.162596 -1.20062,1.259182 -3.27973,1.259182 -2.07912,0 -3.30902,-1.259182 -1.20061,-1.259182 -1.20061,-3.162596 z"
       style="font-weight:bold;font-size:59.9722px;font-family:'Roboto Condensed';-inkscape-font-specification:'Roboto Condensed, Bold'"
       id="path435" />
    <path
       d="m 371.30878,123.42532 q -0.3514,-0.73208 -0.7028,-2.45979 -2.22553,3.04546 -6.03236,3.04546 -3.98253,0 -6.61803,-2.6355 -2.60621,-2.63549 -2.60621,-6.82301 0,-4.97816 3.1626,-7.7015 3.19188,-2.72335 9.16567,-2.78192 h 2.51836 v -2.54764 q 0,-2.137686 -0.73208,-3.016185 -0.73208,-0.878499 -2.13768,-0.878499 -3.10403,0 -3.10403,3.631134 h -8.28717 q 0,-4.3925 3.27973,-7.23298 3.30901,-2.869763 8.34574,-2.869763 5.21242,0 8.0529,2.723347 2.86977,2.694063 2.86977,7.730786 v 14.9052 q 0.0586,4.09967 1.17133,6.41305 v 0.49781 z m -4.89031,-5.91522 q 1.37631,0 2.34266,-0.55639 0.96635,-0.55638 1.43488,-1.31774 v -6.58875 h -1.99126 q -2.1084,0 -3.3383,1.34703 -1.20061,1.34704 -1.20061,3.60185 0,3.514 2.75263,3.514 z"
       style="font-weight:bold;font-size:59.9722px;font-family:'Roboto Condensed';-inkscape-font-specification:'Roboto Condensed, Bold'"
       id="path437" />
    <path
       d="m 394.12046,83.951435 v 7.789358 h 4.24608 v 6.237343 h -4.24608 v 15.725134 q 0,1.87413 0.49782,2.57693 0.5271,0.7028 1.99126,0.7028 1.20062,0 1.96198,-0.20499 l -0.0586,6.44233 q -2.1084,0.79065 -4.5682,0.79065 -8.02362,0 -8.11147,-9.19496 V 97.978136 h -3.66041 v -6.237343 h 3.66041 v -7.789358 z"
       style="font-weight:bold;font-size:59.9722px;font-family:'Roboto Condensed';-inkscape-font-specification:'Roboto Condensed, Bold'"
       id="path439" />
    <path
       d="m 411.60259,123.42532 h -8.31646 V 91.740793 h 8.31646 z m -8.69714,-39.883851 q 0,-1.932698 1.2299,-3.162597 1.22989,-1.229898 3.27973,-1.229898 2.04983,0 3.27972,1.229898 1.2299,1.229899 1.2299,3.162597 0,1.903414 -1.2299,3.162596 -1.20061,1.259182 -3.27972,1.259182 -2.07912,0 -3.30902,-1.259182 -1.20061,-1.259182 -1.20061,-3.162596 z"
       style="font-weight:bold;font-size:59.9722px;font-family:'Roboto Condensed';-inkscape-font-specification:'Roboto Condensed, Bold'"
       id="path441" />
    <path
       d="m 417.04928,106.55814 q 0,-7.203689 3.39686,-11.303351 3.39687,-4.099662 9.39994,-4.099662 6.06165,0 9.45851,4.099662 3.39686,4.099662 3.39686,11.361921 v 2.02055 q 0,7.23297 -3.36758,11.30335 -3.36758,4.07038 -9.42922,4.07038 -6.09093,0 -9.48779,-4.07038 -3.36758,-4.09966 -3.36758,-11.36192 z m 8.31646,2.07912 q 0,8.49215 4.53891,8.49215 4.18751,0 4.50963,-7.08655 l 0.0293,-3.48472 q 0,-4.33393 -1.20061,-6.41304 -1.20062,-2.108398 -3.39687,-2.108398 -2.10839,0 -3.30901,2.108398 -1.17133,2.07911 -1.17133,6.41304 z"
       style="font-weight:bold;font-size:59.9722px;font-family:'Roboto Condensed';-inkscape-font-specification:'Roboto Condensed, Bold'"
       id="path443" />
    <path
       d="m 455.4397,91.740793 0.23426,3.133313 q 2.8112,-3.718979 7.35011,-3.718979 8.17004,0 8.40431,11.449773 v 20.82042 h -8.31646 v -20.20547 q 0,-2.69407 -0.81993,-3.894682 -0.79065,-1.229899 -2.8112,-1.229899 -2.25481,0 -3.51399,2.313381 v 23.01667 h -8.31646 V 91.740793 Z"
       style="font-weight:bold;font-size:59.9722px;font-family:'Roboto Condensed';-inkscape-font-specification:'Roboto Condensed, Bold'"
       id="path445" />
  </g>
</svg>
